<svg width="49" height="18" viewBox="0 0 49 18" fill="none" xmlns="http://www.w3.org/2000/svg">
<path d="M7.504 14.696C7.504 14.856 7.648 15 7.808 15H8.416C8.576 15 8.72 14.856 8.72 14.696V4.872H11.504C11.68 4.872 11.808 4.728 11.808 4.568V4.104C11.808 3.944 11.68 3.8 11.504 3.8H4.72C4.544 3.8 4.416 3.944 4.416 4.104V4.568C4.416 4.728 4.544 4.872 4.72 4.872H7.504V14.696ZM11.7368 11.288C11.7368 13.4 13.4008 15.176 15.4488 15.176C17.4968 15.176 19.1608 13.4 19.1608 11.288C19.1608 9.208 17.4968 7.448 15.4488 7.448C13.4008 7.448 11.7368 9.208 11.7368 11.288ZM12.9048 11.288C12.9048 9.784 13.9928 8.52 15.4488 8.52C16.9048 8.52 17.9768 9.784 17.9768 11.288C17.9768 12.824 16.9048 14.104 15.4488 14.104C13.9928 14.104 12.9048 12.824 12.9048 11.288ZM20.7059 11.288C20.7059 13.4 22.1459 15.176 24.0179 15.176C24.9939 15.176 25.8419 14.68 26.3539 14.232C26.4179 14.712 26.6739 15.064 27.1379 15.064C27.3139 15.064 27.4259 14.952 27.4259 14.776V4.152C27.4259 3.976 27.2499 3.8 27.0579 3.8H26.6099C26.4179 3.8 26.2579 3.976 26.2579 4.152V7.912C26.2579 7.912 25.4259 7.448 24.2099 7.448C21.9859 7.448 20.7059 9.128 20.7059 11.288ZM21.9059 11.304C21.9059 9.832 22.7859 8.52 24.3699 8.52C25.3939 8.52 26.2579 8.936 26.2579 8.936V12.92C26.2579 12.92 25.4899 14.104 24.1619 14.104C22.8179 14.104 21.9059 12.744 21.9059 11.304ZM29.4399 11.288C29.4399 13.4 31.1039 15.176 33.1519 15.176C35.1999 15.176 36.8639 13.4 36.8639 11.288C36.8639 9.208 35.1999 7.448 33.1519 7.448C31.1039 7.448 29.4399 9.208 29.4399 11.288ZM30.6079 11.288C30.6079 9.784 31.6959 8.52 33.1519 8.52C34.6079 8.52 35.6799 9.784 35.6799 11.288C35.6799 12.824 34.6079 14.104 33.1519 14.104C31.6959 14.104 30.6079 12.824 30.6079 11.288ZM40.937 15.176C42.441 15.176 43.449 14.232 43.449 13.064C43.449 11.72 42.345 11.24 41.065 10.648C40.169 10.232 39.657 9.992 39.657 9.336C39.657 8.984 39.929 8.52 40.745 8.52C41.433 8.52 41.945 8.76 42.265 8.952C42.425 9.048 42.665 9.032 42.777 8.824L42.937 8.52C43.049 8.312 43.017 8.152 42.857 8.024C42.505 7.768 41.705 7.448 40.745 7.448C39.033 7.448 38.457 8.616 38.457 9.384C38.457 10.648 39.577 11.176 40.553 11.656C41.625 12.184 42.201 12.472 42.201 13.176C42.201 13.752 41.689 14.104 40.937 14.104C39.993 14.104 39.353 13.64 39.097 13.448C38.889 13.304 38.761 13.368 38.665 13.544L38.441 13.96C38.377 14.088 38.409 14.2 38.489 14.28C38.873 14.632 39.705 15.176 40.937 15.176Z" fill="#0D346B"/>
<rect x="0.75" y="0.75" width="47.5" height="16.5" rx="3.25" stroke="#0D346B" stroke-width="1.5"/>
</svg>
