<svg width="19" height="12" viewBox="0 0 19 12" fill="none" xmlns="http://www.w3.org/2000/svg">
<mask id="path-1-inside-1" fill="white">
<path fill-rule="evenodd" clip-rule="evenodd" d="M0.735179 6.4714C0.671261 6.40748 0.623036 6.33381 0.590503 6.25518C0.557907 6.17658 0.539917 6.09039 0.539917 5.99999C0.539917 5.9096 0.557907 5.82341 0.590503 5.7448C0.623036 5.66617 0.671261 5.59251 0.735179 5.52859L5.9479 0.315868C6.20825 0.0555182 6.63036 0.0555183 6.89071 0.315868C7.15106 0.576217 7.15106 0.998327 6.89071 1.25868L2.81606 5.33333H17.7934C18.1616 5.33333 18.46 5.6318 18.46 5.99999C18.46 6.36818 18.1616 6.66666 17.7934 6.66666H2.81606L6.89071 10.7413C7.15106 11.0017 7.15106 11.4238 6.89071 11.6841C6.63036 11.9445 6.20825 11.9445 5.9479 11.6841L0.735179 6.4714Z"/>
</mask>
<path fill-rule="evenodd" clip-rule="evenodd" d="M0.735179 6.4714C0.671261 6.40748 0.623036 6.33381 0.590503 6.25518C0.557907 6.17658 0.539917 6.09039 0.539917 5.99999C0.539917 5.9096 0.557907 5.82341 0.590503 5.7448C0.623036 5.66617 0.671261 5.59251 0.735179 5.52859L5.9479 0.315868C6.20825 0.0555182 6.63036 0.0555183 6.89071 0.315868C7.15106 0.576217 7.15106 0.998327 6.89071 1.25868L2.81606 5.33333H17.7934C18.1616 5.33333 18.46 5.6318 18.46 5.99999C18.46 6.36818 18.1616 6.66666 17.7934 6.66666H2.81606L6.89071 10.7413C7.15106 11.0017 7.15106 11.4238 6.89071 11.6841C6.63036 11.9445 6.20825 11.9445 5.9479 11.6841L0.735179 6.4714Z" fill="#0D346B"/>
<path d="M0.590503 6.25518L1.51453 5.87286L1.51423 5.87213L0.590503 6.25518ZM0.735179 6.4714L1.44229 5.76429L1.44229 5.76429L0.735179 6.4714ZM0.590503 5.7448L1.51423 6.12785L1.51453 6.12712L0.590503 5.7448ZM0.735179 5.52859L1.44229 6.2357L1.44229 6.2357L0.735179 5.52859ZM5.9479 0.315868L6.65501 1.02297L6.65501 1.02297L5.9479 0.315868ZM6.89071 0.315868L7.59782 -0.391239L7.59782 -0.391239L6.89071 0.315868ZM6.89071 1.25868L7.59782 1.96578L7.59782 1.96578L6.89071 1.25868ZM2.81606 5.33333L2.10895 4.62622L0.401846 6.33333H2.81606V5.33333ZM2.81606 6.66666V5.66666H0.401846L2.10895 7.37377L2.81606 6.66666ZM6.89071 11.6841L7.59782 12.3912L7.59782 12.3912L6.89071 11.6841ZM5.9479 11.6841L5.24079 12.3912L5.9479 11.6841ZM-0.333528 6.6375C-0.251622 6.83546 -0.13042 7.02001 0.0280726 7.1785L1.44229 5.76429C1.47294 5.79495 1.49769 5.83216 1.51453 5.87286L-0.333528 6.6375ZM-0.460083 5.99999C-0.460083 6.22413 -0.415289 6.44033 -0.333225 6.63823L1.51423 5.87213C1.5311 5.91282 1.53992 5.95664 1.53992 5.99999H-0.460083ZM-0.333225 5.36175C-0.415289 5.55965 -0.460083 5.77585 -0.460083 5.99999H1.53992C1.53992 6.04335 1.5311 6.08716 1.51423 6.12785L-0.333225 5.36175ZM0.0280726 4.82148C-0.13042 4.97997 -0.251622 5.16453 -0.333528 5.36249L1.51453 6.12712C1.49769 6.16782 1.47294 6.20504 1.44229 6.2357L0.0280726 4.82148ZM5.24079 -0.391239L0.0280724 4.82148L1.44229 6.2357L6.65501 1.02297L5.24079 -0.391239ZM7.59782 -0.391239C6.94694 -1.04211 5.89167 -1.04211 5.24079 -0.391239L6.65501 1.02297C6.52483 1.15315 6.31378 1.15315 6.1836 1.02297L7.59782 -0.391239ZM7.59782 1.96578C8.24869 1.31491 8.24869 0.259635 7.59782 -0.391239L6.1836 1.02297C6.05343 0.8928 6.05343 0.681745 6.1836 0.55157L7.59782 1.96578ZM3.52317 6.04043L7.59782 1.96578L6.1836 0.55157L2.10895 4.62622L3.52317 6.04043ZM17.7934 4.33333H2.81606V6.33333H17.7934V4.33333ZM19.46 5.99999C19.46 5.07952 18.7138 4.33333 17.7934 4.33333V6.33333C17.6093 6.33333 17.46 6.18409 17.46 5.99999H19.46ZM17.7934 7.66666C18.7138 7.66666 19.46 6.92047 19.46 5.99999H17.46C17.46 5.8159 17.6093 5.66666 17.7934 5.66666V7.66666ZM2.81606 7.66666H17.7934V5.66666H2.81606V7.66666ZM7.59782 10.0342L3.52317 5.95955L2.10895 7.37377L6.1836 11.4484L7.59782 10.0342ZM7.59782 12.3912C8.24869 11.7404 8.24869 10.6851 7.59782 10.0342L6.1836 11.4484C6.05343 11.3182 6.05343 11.1072 6.1836 10.977L7.59782 12.3912ZM5.24079 12.3912C5.89167 13.0421 6.94694 13.0421 7.59782 12.3912L6.1836 10.977C6.31378 10.8468 6.52483 10.8468 6.65501 10.977L5.24079 12.3912ZM0.0280724 7.1785L5.24079 12.3912L6.65501 10.977L1.44229 5.76429L0.0280724 7.1785Z" fill="black" mask="url(#path-1-inside-1)"/>
</svg>
