<svg width="331" height="32" viewBox="0 0 331 32" fill="none" xmlns="http://www.w3.org/2000/svg">
<path d="M104.704 16.416C104.704 19.616 107.28 22.16 110.48 22.16C111.904 22.16 113.28 21.664 114.368 20.608C114.48 20.496 114.512 20.288 114.384 20.176L113.392 19.152C113.296 19.056 113.12 19.04 112.992 19.152C112.32 19.696 111.504 20.064 110.544 20.064C108.496 20.064 106.96 18.368 106.96 16.368C106.96 14.352 108.48 12.64 110.528 12.64C111.424 12.64 112.32 12.992 112.992 13.584C113.12 13.712 113.28 13.712 113.392 13.584L114.368 12.576C114.496 12.448 114.496 12.256 114.352 12.128C113.264 11.152 112.096 10.64 110.48 10.64C107.28 10.64 104.704 13.216 104.704 16.416ZM115.852 21.648C115.852 21.84 116.028 22 116.204 22H117.436C117.676 22 117.852 21.92 117.852 21.648V17.04C117.98 16.784 118.46 16.272 119.26 16.272C119.596 16.272 119.772 16.336 119.948 16.416C120.124 16.496 120.3 16.432 120.38 16.256L120.86 15.168C121.068 14.688 120.348 14.448 119.468 14.448C118.348 14.448 117.676 15.184 117.404 15.552C117.308 14.992 116.924 14.544 116.236 14.544C115.98 14.544 115.852 14.704 115.852 14.88V21.648ZM121.404 18.304C121.404 20.416 122.94 22.176 125.148 22.176C126.348 22.176 127.26 21.712 127.9 21.168C128.076 21.008 128.06 20.832 127.932 20.688L127.308 19.856C127.196 19.696 127.004 19.712 126.828 19.856C126.492 20.128 125.98 20.4 125.244 20.4C124.172 20.4 123.42 19.6 123.404 18.688H128.14C128.3 18.688 128.476 18.544 128.492 18.352C128.508 18.24 128.524 17.984 128.524 17.872C128.524 15.872 127.052 14.448 125.132 14.448C122.94 14.448 121.404 16.224 121.404 18.304ZM123.516 17.376C123.612 16.64 124.188 16.096 125.084 16.096C125.9 16.096 126.476 16.656 126.508 17.376H123.516ZM129.512 19.648C129.512 21.232 130.536 22.176 132.008 22.176C133.096 22.176 133.816 21.712 134.264 21.312C134.408 21.744 134.776 22.064 135.368 22.064C135.624 22.064 135.752 21.904 135.752 21.728V17.664C135.752 15.648 134.744 14.448 132.6 14.448C131.592 14.448 130.6 14.752 130.44 14.816C130.28 14.864 130.136 14.992 130.2 15.264L130.36 16.096C130.392 16.32 130.536 16.496 130.776 16.416C131.208 16.288 131.832 16.144 132.488 16.144C133.272 16.144 133.912 16.592 133.88 17.536C133.88 17.536 133.208 17.328 132.456 17.328C130.584 17.328 129.512 18.336 129.512 19.648ZM131.432 19.648C131.432 18.992 131.896 18.592 132.744 18.592C133.336 18.592 133.832 18.816 133.832 18.816V19.904C133.736 20.176 133.16 20.688 132.504 20.688C131.816 20.688 131.432 20.272 131.432 19.648ZM137.743 21.648C137.743 21.84 137.919 22 138.095 22H139.327C139.567 22 139.743 21.92 139.743 21.648V17.04C139.871 16.784 140.351 16.272 141.151 16.272C141.487 16.272 141.663 16.336 141.839 16.416C142.015 16.496 142.191 16.432 142.271 16.256L142.751 15.168C142.959 14.688 142.239 14.448 141.359 14.448C140.239 14.448 139.567 15.184 139.295 15.552C139.199 14.992 138.815 14.544 138.127 14.544C137.871 14.544 137.743 14.704 137.743 14.88V21.648ZM147.35 18.88C147.35 20.752 147.846 22.176 150.134 22.176C151.222 22.176 151.974 21.552 152.374 21.152C152.486 21.68 152.854 22.064 153.526 22.064C153.782 22.064 153.91 21.904 153.91 21.728V14.96C153.91 14.752 153.75 14.608 153.558 14.608H152.31C152.006 14.608 151.91 14.672 151.91 14.96V18.976C151.798 19.616 151.414 20.352 150.598 20.352C149.686 20.352 149.35 19.856 149.35 18.88V14.96C149.35 14.752 149.19 14.608 148.998 14.608H147.702C147.51 14.608 147.35 14.752 147.35 14.96V18.88ZM155.962 21.648C155.962 21.84 156.138 22 156.314 22H157.498C157.85 22 157.962 21.92 157.962 21.648V17.424C158.138 16.912 158.602 16.272 159.562 16.272C160.458 16.272 160.842 16.864 160.842 17.824V21.648C160.842 21.84 161.002 22 161.194 22H162.49C162.666 22 162.842 21.84 162.842 21.648V17.824C162.842 16.032 162.234 14.448 159.882 14.448C158.602 14.448 157.914 15.056 157.498 15.504C157.402 14.96 157.018 14.544 156.346 14.544C156.09 14.544 155.962 14.704 155.962 14.88V21.648ZM164.293 19.648C164.293 21.232 165.317 22.176 166.789 22.176C167.877 22.176 168.597 21.712 169.045 21.312C169.189 21.744 169.557 22.064 170.149 22.064C170.405 22.064 170.533 21.904 170.533 21.728V17.664C170.533 15.648 169.525 14.448 167.381 14.448C166.373 14.448 165.381 14.752 165.221 14.816C165.061 14.864 164.917 14.992 164.981 15.264L165.141 16.096C165.173 16.32 165.317 16.496 165.557 16.416C165.989 16.288 166.613 16.144 167.269 16.144C168.053 16.144 168.693 16.592 168.661 17.536C168.661 17.536 167.989 17.328 167.237 17.328C165.365 17.328 164.293 18.336 164.293 19.648ZM166.213 19.648C166.213 18.992 166.677 18.592 167.525 18.592C168.117 18.592 168.613 18.816 168.613 18.816V19.904C168.517 20.176 167.941 20.688 167.285 20.688C166.597 20.688 166.213 20.272 166.213 19.648ZM176.384 21.648C176.384 21.84 176.56 22 176.736 22H178.032C178.208 22 178.384 21.84 178.384 21.648V11.152C178.384 10.976 178.208 10.8 178.032 10.8H176.736C176.56 10.8 176.384 10.976 176.384 11.152V21.648ZM180.446 21.648C180.446 21.84 180.622 22 180.798 22H182.094C182.27 22 182.446 21.84 182.446 21.648V14.96C182.446 14.752 182.27 14.608 182.094 14.608H180.798C180.622 14.608 180.446 14.752 180.446 14.96V21.648ZM181.422 13.344C182.142 13.344 182.702 12.768 182.702 12.064C182.702 11.36 182.142 10.8 181.422 10.8C180.702 10.8 180.158 11.36 180.158 12.064C180.158 12.768 180.702 13.344 181.422 13.344ZM186.685 22.176C188.541 22.176 189.533 21.136 189.533 19.968C189.533 18.496 188.509 17.984 187.085 17.408C186.397 17.12 186.029 16.944 186.029 16.608C186.029 16.368 186.237 16.128 186.733 16.128C187.341 16.128 187.853 16.336 188.205 16.496C188.365 16.56 188.557 16.528 188.669 16.352L189.085 15.504C189.181 15.312 189.085 15.12 188.925 14.992C188.525 14.736 187.821 14.448 186.733 14.448C184.925 14.448 184.077 15.488 184.077 16.608C184.077 17.728 184.717 18.4 186.141 18.944C187.117 19.328 187.533 19.632 187.533 19.968C187.533 20.288 187.277 20.496 186.717 20.496C185.949 20.496 185.421 20.224 185.085 20.016C184.909 19.904 184.733 19.968 184.653 20.144L184.173 21.104C184.093 21.264 184.173 21.44 184.269 21.504C184.685 21.792 185.453 22.176 186.685 22.176ZM191.598 16.4V19.52C191.598 21.2 192.542 22.176 194.046 22.176C194.814 22.176 195.486 21.936 195.742 21.792C195.918 21.696 195.998 21.552 195.95 21.36L195.742 20.4C195.71 20.224 195.534 20.128 195.326 20.208C195.134 20.288 194.702 20.384 194.382 20.384C193.918 20.384 193.598 20.096 193.598 19.376V16.4H195.326C195.518 16.4 195.678 16.224 195.678 16.048V14.96C195.678 14.752 195.518 14.608 195.326 14.608H193.598V12.56C193.598 12.368 193.454 12.208 193.262 12.208H191.95C191.774 12.208 191.598 12.368 191.598 12.56V14.608H190.878C190.686 14.608 190.542 14.752 190.542 14.96V16.048C190.542 16.224 190.686 16.4 190.878 16.4H191.598ZM196.825 19.648C196.825 21.232 197.849 22.176 199.321 22.176C200.409 22.176 201.129 21.712 201.577 21.312C201.721 21.744 202.089 22.064 202.681 22.064C202.937 22.064 203.065 21.904 203.065 21.728V17.664C203.065 15.648 202.057 14.448 199.913 14.448C198.905 14.448 197.913 14.752 197.753 14.816C197.593 14.864 197.449 14.992 197.513 15.264L197.673 16.096C197.705 16.32 197.849 16.496 198.089 16.416C198.521 16.288 199.145 16.144 199.801 16.144C200.585 16.144 201.225 16.592 201.193 17.536C201.193 17.536 200.521 17.328 199.769 17.328C197.897 17.328 196.825 18.336 196.825 19.648ZM198.745 19.648C198.745 18.992 199.209 18.592 200.057 18.592C200.649 18.592 201.145 18.816 201.145 18.816V19.904C201.049 20.176 200.473 20.688 199.817 20.688C199.129 20.688 198.745 20.272 198.745 19.648Z" fill="#0071CE"/>
<circle cx="219" cy="16" r="7.65" stroke="#0071CE" stroke-width="0.7"/>
<path d="M218.475 19.488C218.475 19.648 218.619 19.776 218.779 19.776H219.227C219.387 19.776 219.531 19.648 219.531 19.488V16.976H222.059C222.219 16.976 222.347 16.832 222.347 16.672V16.224C222.347 16.064 222.219 15.92 222.059 15.92H219.531V13.392C219.531 13.232 219.387 13.104 219.227 13.104H218.779C218.619 13.104 218.475 13.232 218.475 13.392V15.92H215.963C215.803 15.92 215.659 16.064 215.659 16.224V16.672C215.659 16.832 215.803 16.976 215.963 16.976H218.475V19.488Z" fill="#0071CE"/>
<rect x="0.25" y="0.25" width="330.5" height="31.5" rx="7.75" stroke="#0071CE" stroke-width="0.5"/>
</svg>
