<svg width="154" height="19" viewBox="0 0 154 19" fill="none" xmlns="http://www.w3.org/2000/svg">
<path d="M6.736 8.824V4.904H9.168C10.48 4.904 11.264 5.672 11.264 6.824C11.264 7.944 10.48 8.824 9.168 8.824H6.736ZM6.704 13.928V9.928H9.456C10.672 9.928 11.632 10.76 11.632 11.896C11.632 13.048 10.816 13.928 9.52 13.928H6.704ZM11.072 9.288C11.808 8.84 12.624 8.04 12.624 6.744C12.624 5.064 11.328 3.8 9.376 3.8H5.84C5.664 3.8 5.536 3.944 5.536 4.104V14.696C5.536 14.856 5.664 15 5.84 15H9.6C11.584 15 12.976 13.704 12.976 11.912C12.976 10.456 11.92 9.672 11.072 9.32V9.288ZM14.6434 11.304C14.6434 13.416 15.9874 15.176 18.2274 15.176C19.5074 15.176 20.4834 14.68 20.9314 14.328C21.2034 14.12 21.1394 14.04 20.9954 13.816L20.8034 13.544C20.6114 13.256 20.4994 13.32 20.2434 13.496C19.8274 13.768 19.2194 14.104 18.2434 14.104C16.8994 14.104 15.8594 12.808 15.8274 11.576H21.2034C21.3634 11.576 21.5234 11.448 21.5394 11.256C21.5554 11.128 21.5714 10.936 21.5714 10.808C21.5714 8.872 20.1634 7.448 18.2274 7.448C15.9874 7.448 14.6434 9.224 14.6434 11.304ZM15.8434 10.632C15.9874 9.48 16.9794 8.52 18.2274 8.52C19.4914 8.52 20.3554 9.544 20.3874 10.632H15.8434ZM23.5136 14.776C23.5136 14.952 23.6256 15.064 23.8016 15.064C24.2656 15.064 24.5216 14.712 24.5696 14.232C25.0336 14.68 25.7696 15.176 26.9056 15.176C28.7936 15.176 30.2176 13.4 30.2176 11.288C30.2176 9.128 28.9376 7.448 26.7296 7.448C25.4976 7.448 24.6816 7.912 24.6816 7.912V4.152C24.6816 3.976 24.5056 3.8 24.3296 3.8H23.8496C23.6576 3.8 23.5136 3.976 23.5136 4.152V14.776ZM24.6816 8.984C24.6816 8.984 25.5296 8.52 26.5536 8.52C28.1696 8.52 29.0176 9.832 29.0176 11.304C29.0176 12.744 28.1216 14.104 26.7776 14.104C25.4496 14.104 24.6816 12.888 24.6816 12.888V8.984ZM32.248 14.648C32.248 14.84 32.408 15 32.6 15H33.08C33.256 15 33.432 14.84 33.432 14.648V7.96C33.432 7.784 33.256 7.608 33.08 7.608H32.6C32.408 7.608 32.248 7.784 32.248 7.96V14.648ZM32.808 5.704C33.304 5.704 33.688 5.304 33.688 4.84C33.688 4.328 33.304 3.944 32.808 3.944C32.328 3.944 31.944 4.328 31.944 4.84C31.944 5.304 32.328 5.704 32.808 5.704ZM35.4715 11.288C35.4715 13.4 36.9115 15.176 38.7835 15.176C39.7595 15.176 40.6075 14.68 41.1195 14.232C41.1835 14.712 41.4395 15.064 41.9035 15.064C42.0795 15.064 42.1915 14.952 42.1915 14.776V4.152C42.1915 3.976 42.0155 3.8 41.8235 3.8H41.3755C41.1835 3.8 41.0235 3.976 41.0235 4.152V7.912C41.0235 7.912 40.1915 7.448 38.9755 7.448C36.7515 7.448 35.4715 9.128 35.4715 11.288ZM36.6715 11.304C36.6715 9.832 37.5515 8.52 39.1355 8.52C40.1595 8.52 41.0235 8.936 41.0235 8.936V12.92C41.0235 12.92 40.2555 14.104 38.9275 14.104C37.5835 14.104 36.6715 12.744 36.6715 11.304ZM44.1095 12.76C44.1095 14.248 45.1015 15.176 46.3975 15.176C47.5495 15.176 48.3335 14.6 48.7175 14.2C48.7655 14.696 49.0215 15.064 49.5015 15.064C49.6775 15.064 49.7895 14.952 49.7895 14.776V10.552C49.7895 8.568 48.9095 7.448 47.0215 7.448C45.9975 7.448 45.3255 7.768 44.9575 7.928C44.7815 8.008 44.6695 8.104 44.7335 8.328L44.8935 8.76C44.9575 8.936 45.0535 9.032 45.2455 8.952C45.5815 8.84 46.1415 8.52 46.9575 8.52C48.0135 8.52 48.6695 9.192 48.6535 10.552C48.6535 10.552 47.8535 10.312 47.0695 10.312C45.1655 10.312 44.1095 11.352 44.1095 12.76ZM45.2775 12.76C45.2775 11.816 46.0455 11.32 47.0695 11.32C47.8055 11.32 48.3975 11.48 48.6375 11.608V13.112C48.3175 13.592 47.5175 14.104 46.6055 14.104C45.7895 14.104 45.2775 13.512 45.2775 12.76ZM54.2808 15.176C55.7848 15.176 56.7928 14.232 56.7928 13.064C56.7928 11.72 55.6888 11.24 54.4088 10.648C53.5128 10.232 53.0008 9.992 53.0008 9.336C53.0008 8.984 53.2728 8.52 54.0888 8.52C54.7768 8.52 55.2888 8.76 55.6088 8.952C55.7688 9.048 56.0088 9.032 56.1208 8.824L56.2808 8.52C56.3928 8.312 56.3608 8.152 56.2008 8.024C55.8488 7.768 55.0488 7.448 54.0888 7.448C52.3768 7.448 51.8008 8.616 51.8008 9.384C51.8008 10.648 52.9208 11.176 53.8968 11.656C54.9688 12.184 55.5448 12.472 55.5448 13.176C55.5448 13.752 55.0328 14.104 54.2808 14.104C53.3368 14.104 52.6968 13.64 52.4408 13.448C52.2328 13.304 52.1048 13.368 52.0088 13.544L51.7848 13.96C51.7208 14.088 51.7528 14.2 51.8328 14.28C52.2168 14.632 53.0488 15.176 54.2808 15.176ZM58.3808 14.216C58.3808 14.568 58.6368 15 59.1488 15C59.3088 15 59.5648 14.936 59.6768 14.856C59.7248 14.984 59.7408 15.112 59.7408 15.224C59.7408 15.832 59.4688 16.2 59.0208 16.648C58.9408 16.728 58.8928 16.84 58.9888 16.936L59.2608 17.192C59.3408 17.272 59.4208 17.272 59.5168 17.192C59.9648 16.808 60.4768 16.168 60.4768 15C60.4768 14.024 60.0608 13.24 59.2768 13.24C58.7008 13.24 58.3808 13.656 58.3808 14.216ZM65.8439 12.76C65.8439 14.248 66.8359 15.176 68.1319 15.176C69.2839 15.176 70.0679 14.6 70.4519 14.2C70.4999 14.696 70.7559 15.064 71.2359 15.064C71.4119 15.064 71.5239 14.952 71.5239 14.776V10.552C71.5239 8.568 70.6439 7.448 68.7559 7.448C67.7319 7.448 67.0599 7.768 66.6919 7.928C66.5159 8.008 66.4039 8.104 66.4679 8.328L66.6279 8.76C66.6919 8.936 66.7879 9.032 66.9799 8.952C67.3159 8.84 67.8759 8.52 68.6919 8.52C69.7479 8.52 70.4039 9.192 70.3879 10.552C70.3879 10.552 69.5879 10.312 68.8039 10.312C66.8999 10.312 65.8439 11.352 65.8439 12.76ZM67.0119 12.76C67.0119 11.816 67.7799 11.32 68.8039 11.32C69.5399 11.32 70.1319 11.48 70.3719 11.608V13.112C70.0519 13.592 69.2519 14.104 68.3399 14.104C67.5239 14.104 67.0119 13.512 67.0119 12.76ZM80.2071 7.832C80.2071 7.656 80.0951 7.544 79.9191 7.544C79.5031 7.544 79.2631 7.816 79.1671 8.216C78.7191 7.864 77.9031 7.448 76.9431 7.448C74.9271 7.448 73.4871 9.192 73.4871 11.304C73.4871 13.464 74.9591 15.176 76.9911 15.176C78.2071 15.176 79.0391 14.52 79.0391 14.52V15.048C79.0391 16.776 78.1431 17.416 76.9751 17.416C76.1591 17.416 75.5191 16.968 75.1191 16.632C74.9431 16.472 74.7511 16.472 74.6391 16.648L74.3191 17.112C74.2391 17.224 74.2711 17.432 74.3991 17.544C74.7831 17.896 75.8071 18.504 76.9751 18.504C78.6551 18.504 80.2071 17.576 80.2071 15.048V7.832ZM74.6871 11.288C74.6871 9.848 75.5991 8.536 77.0711 8.536C78.2711 8.536 79.0231 9.432 79.0231 9.432V13.48C79.0231 13.48 78.1751 14.088 77.1511 14.088C75.7431 14.088 74.6871 12.888 74.6871 11.288ZM82.6211 11.944C82.6211 13.896 83.1331 15.176 85.2611 15.176C86.4451 15.176 87.1171 14.664 87.5491 14.216C87.5971 14.712 87.8531 15.064 88.3331 15.064C88.5091 15.064 88.6211 14.952 88.6211 14.776V7.96C88.6211 7.784 88.4611 7.608 88.2851 7.608H87.7891C87.5971 7.608 87.4531 7.784 87.4531 7.96V13.032C87.1171 13.416 86.4611 14.104 85.3571 14.104C84.2851 14.104 83.8051 13.432 83.8051 11.96V7.96C83.8051 7.784 83.6451 7.608 83.4531 7.608H82.9731C82.7651 7.608 82.6211 7.784 82.6211 7.96V11.944ZM90.547 12.76C90.547 14.248 91.539 15.176 92.835 15.176C93.987 15.176 94.771 14.6 95.155 14.2C95.203 14.696 95.459 15.064 95.939 15.064C96.115 15.064 96.227 14.952 96.227 14.776V10.552C96.227 8.568 95.347 7.448 93.459 7.448C92.435 7.448 91.763 7.768 91.395 7.928C91.219 8.008 91.107 8.104 91.171 8.328L91.331 8.76C91.395 8.936 91.491 9.032 91.683 8.952C92.019 8.84 92.579 8.52 93.395 8.52C94.451 8.52 95.107 9.192 95.091 10.552C95.091 10.552 94.291 10.312 93.507 10.312C91.603 10.312 90.547 11.352 90.547 12.76ZM91.715 12.76C91.715 11.816 92.483 11.32 93.507 11.32C94.243 11.32 94.835 11.48 95.075 11.608V13.112C94.755 13.592 93.955 14.104 93.043 14.104C92.227 14.104 91.715 13.512 91.715 12.76ZM103.362 18.808H103.874C104.002 18.808 104.146 18.696 104.194 18.584L108.818 8.024C108.93 7.784 108.818 7.608 108.53 7.608H107.938C107.794 7.608 107.666 7.688 107.618 7.816L105.122 13.688H105.09L102.994 7.816C102.946 7.688 102.818 7.608 102.674 7.608H102.002C101.714 7.608 101.618 7.768 101.714 8.008L104.45 15.064L103.058 18.36C102.946 18.616 103.074 18.808 103.362 18.808ZM115.135 7.96C115.135 7.752 114.959 7.608 114.783 7.608H114.303C114.111 7.608 113.951 7.752 113.951 7.96V15.912C113.951 17.192 113.519 17.592 112.767 17.864C112.591 17.928 112.463 18.072 112.543 18.296L112.703 18.776C112.751 18.936 112.863 19 113.039 18.968C114.255 18.712 115.135 17.8 115.135 15.8V7.96ZM114.511 5.704C115.007 5.704 115.391 5.304 115.391 4.84C115.391 4.328 115.007 3.944 114.511 3.944C114.031 3.944 113.647 4.328 113.647 4.84C113.647 5.304 114.031 5.704 114.511 5.704ZM117.559 11.944C117.559 13.896 118.071 15.176 120.199 15.176C121.383 15.176 122.055 14.664 122.487 14.216C122.535 14.712 122.791 15.064 123.271 15.064C123.447 15.064 123.559 14.952 123.559 14.776V7.96C123.559 7.784 123.399 7.608 123.223 7.608H122.727C122.535 7.608 122.391 7.784 122.391 7.96V13.032C122.055 13.416 121.399 14.104 120.295 14.104C119.223 14.104 118.743 13.432 118.743 11.96V7.96C118.743 7.784 118.583 7.608 118.391 7.608H117.911C117.703 7.608 117.559 7.784 117.559 7.96V11.944ZM132.317 7.832C132.317 7.656 132.205 7.544 132.029 7.544C131.613 7.544 131.373 7.816 131.277 8.216C130.829 7.864 130.013 7.448 129.053 7.448C127.037 7.448 125.597 9.192 125.597 11.304C125.597 13.464 127.069 15.176 129.101 15.176C130.317 15.176 131.149 14.52 131.149 14.52V15.048C131.149 16.776 130.253 17.416 129.085 17.416C128.269 17.416 127.629 16.968 127.229 16.632C127.053 16.472 126.861 16.472 126.749 16.648L126.429 17.112C126.349 17.224 126.381 17.432 126.509 17.544C126.893 17.896 127.917 18.504 129.085 18.504C130.765 18.504 132.317 17.576 132.317 15.048V7.832ZM126.797 11.288C126.797 9.848 127.709 8.536 129.181 8.536C130.381 8.536 131.133 9.432 131.133 9.432V13.48C131.133 13.48 130.285 14.088 129.261 14.088C127.853 14.088 126.797 12.888 126.797 11.288ZM134.331 11.288C134.331 13.4 135.995 15.176 138.043 15.176C140.091 15.176 141.755 13.4 141.755 11.288C141.755 9.208 140.091 7.448 138.043 7.448C135.995 7.448 134.331 9.208 134.331 11.288ZM135.499 11.288C135.499 9.784 136.587 8.52 138.043 8.52C139.499 8.52 140.571 9.784 140.571 11.288C140.571 12.824 139.499 14.104 138.043 14.104C136.587 14.104 135.499 12.824 135.499 11.288ZM145.828 15.176C147.332 15.176 148.34 14.232 148.34 13.064C148.34 11.72 147.236 11.24 145.956 10.648C145.06 10.232 144.548 9.992 144.548 9.336C144.548 8.984 144.82 8.52 145.636 8.52C146.324 8.52 146.836 8.76 147.156 8.952C147.316 9.048 147.556 9.032 147.668 8.824L147.828 8.52C147.94 8.312 147.908 8.152 147.748 8.024C147.396 7.768 146.596 7.448 145.636 7.448C143.924 7.448 143.348 8.616 143.348 9.384C143.348 10.648 144.468 11.176 145.444 11.656C146.516 12.184 147.092 12.472 147.092 13.176C147.092 13.752 146.58 14.104 145.828 14.104C144.884 14.104 144.244 13.64 143.988 13.448C143.78 13.304 143.652 13.368 143.556 13.544L143.332 13.96C143.268 14.088 143.3 14.2 143.38 14.28C143.764 14.632 144.596 15.176 145.828 15.176Z" fill="#0D346B"/>
<rect x="0.25" y="0.25" width="153.5" height="17.5" rx="3.75" stroke="#0D346B" stroke-width="0.5"/>
</svg>
