<svg width="168" height="19" viewBox="0 0 168 19" fill="none" xmlns="http://www.w3.org/2000/svg">
<path d="M4.832 9.416C4.832 12.616 7.408 15.16 10.608 15.16C12.032 15.16 13.36 14.568 14.416 13.608C14.528 13.496 14.56 13.272 14.432 13.176L14.064 12.808C13.936 12.68 13.808 12.664 13.648 12.792C12.8 13.512 11.984 13.992 10.592 13.992C8.064 13.992 6.128 11.864 6.128 9.4C6.128 6.92 8.064 4.792 10.592 4.792C11.76 4.792 12.816 5.272 13.648 5.992C13.808 6.152 13.936 6.168 14.064 6.008L14.496 5.576C14.624 5.448 14.608 5.256 14.48 5.128C13.392 4.2 12.224 3.64 10.608 3.64C7.408 3.64 4.832 6.216 4.832 9.416ZM15.9689 12.76C15.9689 14.248 16.9609 15.176 18.2569 15.176C19.4089 15.176 20.1929 14.6 20.5769 14.2C20.6249 14.696 20.8809 15.064 21.3609 15.064C21.5369 15.064 21.6489 14.952 21.6489 14.776V10.552C21.6489 8.568 20.7689 7.448 18.8809 7.448C17.8569 7.448 17.1849 7.768 16.8169 7.928C16.6409 8.008 16.5289 8.104 16.5929 8.328L16.7529 8.76C16.8169 8.936 16.9129 9.032 17.1049 8.952C17.4409 8.84 18.0009 8.52 18.8169 8.52C19.8729 8.52 20.5289 9.192 20.5129 10.552C20.5129 10.552 19.7129 10.312 18.9289 10.312C17.0249 10.312 15.9689 11.352 15.9689 12.76ZM17.1369 12.76C17.1369 11.816 17.9049 11.32 18.9289 11.32C19.6649 11.32 20.2569 11.48 20.4969 11.608V13.112C20.1769 13.592 19.3769 14.104 18.4649 14.104C17.6489 14.104 17.1369 13.512 17.1369 12.76ZM24.0761 14.648C24.0761 14.84 24.2361 15 24.4281 15H24.9081C25.0841 15 25.2601 14.84 25.2601 14.648V9.528C25.2601 9.528 25.8361 8.584 27.2601 8.584C27.6121 8.584 27.8841 8.712 28.0601 8.792C28.2361 8.872 28.4121 8.856 28.4921 8.616L28.7001 8.04C28.8761 7.528 27.9641 7.448 27.4041 7.448C26.2521 7.448 25.5321 7.96 25.1321 8.376C25.0841 7.896 24.8281 7.544 24.3641 7.544C24.1881 7.544 24.0761 7.656 24.0761 7.832V14.648ZM30.248 14.648C30.248 14.84 30.408 15 30.6 15H31.08C31.256 15 31.432 14.84 31.432 14.648V9.544C31.432 9.544 32.312 8.52 33.704 8.52C34.792 8.52 35.272 9.176 35.272 10.584V14.648C35.272 14.84 35.432 15 35.624 15H36.104C36.28 15 36.456 14.84 36.456 14.648V10.744C36.456 8.84 35.928 7.448 33.784 7.448C32.632 7.448 31.768 7.976 31.304 8.376C31.256 7.896 31 7.544 30.536 7.544C30.36 7.544 30.248 7.656 30.248 7.832V14.648ZM38.409 11.304C38.409 13.416 39.753 15.176 41.993 15.176C43.273 15.176 44.249 14.68 44.697 14.328C44.969 14.12 44.905 14.04 44.761 13.816L44.569 13.544C44.377 13.256 44.265 13.32 44.009 13.496C43.593 13.768 42.985 14.104 42.009 14.104C40.665 14.104 39.625 12.808 39.593 11.576H44.969C45.129 11.576 45.289 11.448 45.305 11.256C45.321 11.128 45.337 10.936 45.337 10.808C45.337 8.872 43.929 7.448 41.993 7.448C39.753 7.448 38.409 9.224 38.409 11.304ZM39.609 10.632C39.753 9.48 40.745 8.52 41.993 8.52C43.257 8.52 44.121 9.544 44.153 10.632H39.609ZM46.9433 14.216C46.9433 14.568 47.1993 15 47.7113 15C47.8713 15 48.1273 14.936 48.2393 14.856C48.2873 14.984 48.3033 15.112 48.3033 15.224C48.3033 15.832 48.0312 16.2 47.5833 16.648C47.5033 16.728 47.4553 16.84 47.5513 16.936L47.8233 17.192C47.9033 17.272 47.9833 17.272 48.0793 17.192C48.5273 16.808 49.0393 16.168 49.0393 15C49.0393 14.024 48.6233 13.24 47.8393 13.24C47.2633 13.24 46.9433 13.656 46.9433 14.216ZM56.1504 14.568C56.1504 14.568 56.9664 15.176 58.1984 15.176C60.2304 15.176 61.6864 13.464 61.6864 11.304C61.6864 9.192 60.2624 7.448 58.2464 7.448C57.2544 7.448 56.4704 7.848 56.0064 8.216C55.9264 7.816 55.6704 7.544 55.2704 7.544C55.0944 7.544 54.9824 7.656 54.9824 7.832V18.456C54.9824 18.648 55.1424 18.808 55.3344 18.808H55.7984C55.9744 18.808 56.1504 18.648 56.1504 18.456V14.568ZM56.1504 9.416C56.1504 9.416 56.9184 8.52 58.1024 8.52C59.5904 8.52 60.4864 9.848 60.4864 11.288C60.4864 12.904 59.4464 14.104 58.0224 14.104C56.9984 14.104 56.1504 13.464 56.1504 13.464V9.416ZM63.2368 11.288C63.2368 13.4 64.9008 15.176 66.9488 15.176C68.9968 15.176 70.6608 13.4 70.6608 11.288C70.6608 9.208 68.9968 7.448 66.9488 7.448C64.9008 7.448 63.2368 9.208 63.2368 11.288ZM64.4048 11.288C64.4048 9.784 65.4928 8.52 66.9488 8.52C68.4048 8.52 69.4768 9.784 69.4768 11.288C69.4768 12.824 68.4048 14.104 66.9488 14.104C65.4928 14.104 64.4048 12.824 64.4048 11.288ZM72.7499 14.648C72.7499 14.84 72.9099 15 73.1019 15H73.5819C73.7579 15 73.9339 14.84 73.9339 14.648V4.152C73.9339 3.976 73.7579 3.8 73.5819 3.8H73.1019C72.9099 3.8 72.7499 3.976 72.7499 4.152V14.648ZM76.5936 14.648C76.5936 14.84 76.7536 15 76.9456 15H77.4256C77.6016 15 77.7776 14.84 77.7776 14.648V4.152C77.7776 3.976 77.6016 3.8 77.4256 3.8H76.9456C76.7536 3.8 76.5936 3.976 76.5936 4.152V14.648ZM79.8774 11.288C79.8774 13.4 81.5414 15.176 83.5894 15.176C85.6374 15.176 87.3014 13.4 87.3014 11.288C87.3014 9.208 85.6374 7.448 83.5894 7.448C81.5414 7.448 79.8774 9.208 79.8774 11.288ZM81.0454 11.288C81.0454 9.784 82.1334 8.52 83.5894 8.52C85.0454 8.52 86.1174 9.784 86.1174 11.288C86.1174 12.824 85.0454 14.104 83.5894 14.104C82.1334 14.104 81.0454 12.824 81.0454 11.288ZM94.0182 18.808H94.5303C94.6583 18.808 94.8023 18.696 94.8503 18.584L99.4743 8.024C99.5863 7.784 99.4743 7.608 99.1863 7.608H98.5943C98.4503 7.608 98.3223 7.688 98.2743 7.816L95.7783 13.688H95.7463L93.6503 7.816C93.6023 7.688 93.4743 7.608 93.3303 7.608H92.6583C92.3703 7.608 92.2743 7.768 92.3703 8.008L95.1063 15.064L93.7143 18.36C93.6023 18.616 93.7303 18.808 94.0182 18.808ZM104.607 14.648C104.607 14.84 104.767 15 104.959 15H105.439C105.615 15 105.791 14.84 105.791 14.648V9.544C105.791 9.544 106.463 8.52 107.775 8.52C108.975 8.52 109.439 9.336 109.439 10.744V14.648C109.439 14.84 109.615 15 109.791 15H110.271C110.463 15 110.623 14.84 110.623 14.648V10.744C110.623 10.36 110.591 9.848 110.527 9.528C110.799 9.304 111.471 8.52 112.671 8.52C113.791 8.52 114.239 9.368 114.239 10.744V14.648C114.239 14.84 114.399 15 114.591 15H115.071C115.263 15 115.423 14.84 115.423 14.648V10.744C115.423 8.84 114.911 7.448 112.767 7.448C111.279 7.448 110.223 8.552 110.127 8.616C109.647 7.848 109.055 7.448 107.951 7.448C106.879 7.448 106.111 7.928 105.663 8.376C105.615 7.896 105.359 7.544 104.895 7.544C104.719 7.544 104.607 7.656 104.607 7.832V14.648ZM117.266 12.76C117.266 14.248 118.258 15.176 119.554 15.176C120.706 15.176 121.49 14.6 121.874 14.2C121.922 14.696 122.178 15.064 122.658 15.064C122.834 15.064 122.946 14.952 122.946 14.776V10.552C122.946 8.568 122.066 7.448 120.178 7.448C119.154 7.448 118.482 7.768 118.114 7.928C117.938 8.008 117.826 8.104 117.89 8.328L118.05 8.76C118.114 8.936 118.21 9.032 118.402 8.952C118.738 8.84 119.298 8.52 120.114 8.52C121.17 8.52 121.826 9.192 121.81 10.552C121.81 10.552 121.01 10.312 120.226 10.312C118.322 10.312 117.266 11.352 117.266 12.76ZM118.434 12.76C118.434 11.816 119.202 11.32 120.226 11.32C120.962 11.32 121.554 11.48 121.794 11.608V13.112C121.474 13.592 120.674 14.104 119.762 14.104C118.946 14.104 118.434 13.512 118.434 12.76ZM125.373 14.648C125.373 14.84 125.533 15 125.725 15H126.205C126.381 15 126.557 14.84 126.557 14.648V9.528C126.557 9.528 127.133 8.584 128.557 8.584C128.909 8.584 129.181 8.712 129.357 8.792C129.533 8.872 129.709 8.856 129.789 8.616L129.997 8.04C130.173 7.528 129.261 7.448 128.701 7.448C127.549 7.448 126.829 7.96 126.429 8.376C126.381 7.896 126.125 7.544 125.661 7.544C125.485 7.544 125.373 7.656 125.373 7.832V14.648ZM131.545 14.648C131.545 14.84 131.705 15 131.897 15H132.377C132.553 15 132.729 14.84 132.729 14.648V7.96C132.729 7.784 132.553 7.608 132.377 7.608H131.897C131.705 7.608 131.545 7.784 131.545 7.96V14.648ZM132.105 5.704C132.601 5.704 132.985 5.304 132.985 4.84C132.985 4.328 132.601 3.944 132.105 3.944C131.625 3.944 131.241 4.328 131.241 4.84C131.241 5.304 131.625 5.704 132.105 5.704ZM137.296 15.176C138.8 15.176 139.808 14.232 139.808 13.064C139.808 11.72 138.704 11.24 137.424 10.648C136.528 10.232 136.016 9.992 136.016 9.336C136.016 8.984 136.288 8.52 137.104 8.52C137.792 8.52 138.304 8.76 138.624 8.952C138.784 9.048 139.024 9.032 139.136 8.824L139.296 8.52C139.408 8.312 139.376 8.152 139.216 8.024C138.864 7.768 138.064 7.448 137.104 7.448C135.392 7.448 134.816 8.616 134.816 9.384C134.816 10.648 135.936 11.176 136.912 11.656C137.984 12.184 138.56 12.472 138.56 13.176C138.56 13.752 138.048 14.104 137.296 14.104C136.352 14.104 135.712 13.64 135.456 13.448C135.248 13.304 135.12 13.368 135.024 13.544L134.8 13.96C134.736 14.088 134.768 14.2 134.848 14.28C135.232 14.632 136.064 15.176 137.296 15.176ZM141.252 11.32C141.252 13.544 142.788 15.176 144.98 15.176C146.212 15.176 147.204 14.504 147.764 13.688C147.892 13.496 147.828 13.336 147.668 13.176L147.572 13.08C147.364 12.872 147.156 12.808 146.948 13.048C146.532 13.528 146.052 14.104 144.932 14.104C143.556 14.104 142.452 12.872 142.452 11.304C142.452 9.768 143.572 8.52 144.98 8.52C145.732 8.52 146.324 8.744 146.836 9.32C146.98 9.48 147.124 9.64 147.364 9.432L147.62 9.192C147.796 9.048 147.828 8.84 147.684 8.664C146.996 7.88 146.1 7.448 144.996 7.448C142.852 7.448 141.252 9.144 141.252 11.32ZM149.174 11.288C149.174 13.4 150.838 15.176 152.886 15.176C154.934 15.176 156.598 13.4 156.598 11.288C156.598 9.208 154.934 7.448 152.886 7.448C150.838 7.448 149.174 9.208 149.174 11.288ZM150.342 11.288C150.342 9.784 151.43 8.52 152.886 8.52C154.342 8.52 155.414 9.784 155.414 11.288C155.414 12.824 154.342 14.104 152.886 14.104C151.43 14.104 150.342 12.824 150.342 11.288ZM160.671 15.176C162.175 15.176 163.183 14.232 163.183 13.064C163.183 11.72 162.079 11.24 160.799 10.648C159.903 10.232 159.391 9.992 159.391 9.336C159.391 8.984 159.663 8.52 160.479 8.52C161.167 8.52 161.679 8.76 161.999 8.952C162.159 9.048 162.399 9.032 162.511 8.824L162.671 8.52C162.783 8.312 162.751 8.152 162.591 8.024C162.239 7.768 161.439 7.448 160.479 7.448C158.767 7.448 158.191 8.616 158.191 9.384C158.191 10.648 159.311 11.176 160.287 11.656C161.359 12.184 161.935 12.472 161.935 13.176C161.935 13.752 161.423 14.104 160.671 14.104C159.727 14.104 159.087 13.64 158.831 13.448C158.623 13.304 158.495 13.368 158.399 13.544L158.175 13.96C158.111 14.088 158.143 14.2 158.223 14.28C158.607 14.632 159.439 15.176 160.671 15.176Z" fill="#0D346B"/>
<rect x="0.25" y="0.25" width="167.5" height="17.5" rx="3.75" stroke="#0D346B" stroke-width="0.5"/>
</svg>
