<svg width="126" height="19" viewBox="0 0 126 19" fill="none" xmlns="http://www.w3.org/2000/svg">
<path d="M5.536 14.696C5.536 14.856 5.664 15 5.84 15H11.376C11.552 15 11.68 14.856 11.68 14.696V14.232C11.68 14.072 11.552 13.928 11.376 13.928H6.768V4.104C6.768 3.944 6.624 3.8 6.464 3.8H5.84C5.664 3.8 5.536 3.944 5.536 4.104V14.696ZM12.5783 12.76C12.5783 14.248 13.5703 15.176 14.8663 15.176C16.0182 15.176 16.8023 14.6 17.1863 14.2C17.2343 14.696 17.4903 15.064 17.9703 15.064C18.1463 15.064 18.2583 14.952 18.2583 14.776V10.552C18.2583 8.568 17.3783 7.448 15.4903 7.448C14.4663 7.448 13.7943 7.768 13.4263 7.928C13.2503 8.008 13.1383 8.104 13.2023 8.328L13.3623 8.76C13.4263 8.936 13.5223 9.032 13.7143 8.952C14.0503 8.84 14.6103 8.52 15.4263 8.52C16.4823 8.52 17.1383 9.192 17.1223 10.552C17.1223 10.552 16.3223 10.312 15.5383 10.312C13.6343 10.312 12.5783 11.352 12.5783 12.76ZM13.7463 12.76C13.7463 11.816 14.5143 11.32 15.5383 11.32C16.2743 11.32 16.8663 11.48 17.1063 11.608V13.112C16.7863 13.592 15.9863 14.104 15.0743 14.104C14.2582 14.104 13.7463 13.512 13.7463 12.76ZM14.0663 5.928C14.1623 6.104 14.3223 6.216 14.4503 6.152L17.1703 4.92C17.3783 4.824 17.3783 4.536 17.2503 4.248C17.1063 3.96 16.8023 3.832 16.5943 3.96L14.0983 5.48C13.9863 5.544 13.9863 5.768 14.0663 5.928ZM20.2055 11.32C20.2055 13.544 21.7415 15.176 23.9335 15.176C25.1655 15.176 26.1575 14.504 26.7175 13.688C26.8455 13.496 26.7815 13.336 26.6215 13.176L26.5255 13.08C26.3175 12.872 26.1095 12.808 25.9015 13.048C25.4855 13.528 25.0055 14.104 23.8855 14.104C22.5095 14.104 21.4055 12.872 21.4055 11.304C21.4055 9.768 22.5255 8.52 23.9335 8.52C24.6855 8.52 25.2775 8.744 25.7895 9.32C25.9335 9.48 26.0775 9.64 26.3175 9.432L26.5735 9.192C26.7495 9.048 26.7815 8.84 26.6375 8.664C25.9495 7.88 25.0535 7.448 23.9495 7.448C21.8055 7.448 20.2055 9.144 20.2055 11.32ZM29.1655 8.632V13C29.1655 14.152 29.9015 15.176 31.1975 15.176C31.9495 15.176 32.5895 14.92 32.9415 14.728C33.1335 14.616 33.1655 14.488 33.0695 14.248L32.9415 13.928C32.8775 13.752 32.7655 13.608 32.4775 13.784C32.1735 13.96 31.7895 14.104 31.3415 14.104C30.8295 14.104 30.3495 13.768 30.3495 13V8.632H32.5255C32.7335 8.632 32.8935 8.472 32.8935 8.28V7.96C32.8935 7.752 32.7335 7.608 32.5255 7.608H30.3495V5.528C30.3495 5.336 30.2055 5.16 30.0135 5.176L29.5175 5.208C29.3415 5.224 29.1655 5.368 29.1655 5.56V7.608H28.1895C27.9655 7.608 27.8215 7.752 27.8215 7.96V8.28C27.8215 8.472 27.9655 8.632 28.1895 8.632H29.1655ZM34.284 11.304C34.284 13.416 35.628 15.176 37.868 15.176C39.148 15.176 40.124 14.68 40.572 14.328C40.844 14.12 40.78 14.04 40.636 13.816L40.444 13.544C40.252 13.256 40.14 13.32 39.884 13.496C39.468 13.768 38.86 14.104 37.884 14.104C36.54 14.104 35.5 12.808 35.468 11.576H40.844C41.004 11.576 41.164 11.448 41.18 11.256C41.196 11.128 41.212 10.936 41.212 10.808C41.212 8.872 39.804 7.448 37.868 7.448C35.628 7.448 34.284 9.224 34.284 11.304ZM35.484 10.632C35.628 9.48 36.62 8.52 37.868 8.52C39.132 8.52 39.996 9.544 40.028 10.632H35.484ZM42.6743 11.288C42.6743 13.4 44.3383 15.176 46.3863 15.176C48.4343 15.176 50.0983 13.4 50.0983 11.288C50.0983 9.208 48.4343 7.448 46.3863 7.448C44.3383 7.448 42.6743 9.208 42.6743 11.288ZM43.8423 11.288C43.8423 9.784 44.9303 8.52 46.3863 8.52C47.8423 8.52 48.9143 9.784 48.9143 11.288C48.9143 12.824 47.8423 14.104 46.3863 14.104C44.9303 14.104 43.8423 12.824 43.8423 11.288ZM54.1714 15.176C55.6754 15.176 56.6834 14.232 56.6834 13.064C56.6834 11.72 55.5794 11.24 54.2994 10.648C53.4034 10.232 52.8914 9.992 52.8914 9.336C52.8914 8.984 53.1634 8.52 53.9794 8.52C54.6674 8.52 55.1794 8.76 55.4994 8.952C55.6594 9.048 55.8994 9.032 56.0114 8.824L56.1714 8.52C56.2834 8.312 56.2514 8.152 56.0914 8.024C55.7394 7.768 54.9394 7.448 53.9794 7.448C52.2674 7.448 51.6914 8.616 51.6914 9.384C51.6914 10.648 52.8114 11.176 53.7874 11.656C54.8594 12.184 55.4354 12.472 55.4354 13.176C55.4354 13.752 54.9234 14.104 54.1714 14.104C53.2274 14.104 52.5874 13.64 52.3314 13.448C52.1234 13.304 51.9954 13.368 51.8994 13.544L51.6754 13.96C51.6114 14.088 51.6434 14.2 51.7234 14.28C52.1074 14.632 52.9394 15.176 54.1714 15.176ZM63.3151 18.808H63.8271C63.9551 18.808 64.0991 18.696 64.1471 18.584L68.7711 8.024C68.8831 7.784 68.7711 7.608 68.4831 7.608H67.8911C67.7471 7.608 67.6191 7.688 67.5711 7.816L65.0751 13.688H65.0431L62.9471 7.816C62.8991 7.688 62.7711 7.608 62.6271 7.608H61.9551C61.6671 7.608 61.5711 7.768 61.6671 8.008L64.4031 15.064L63.0111 18.36C62.8991 18.616 63.0271 18.808 63.3151 18.808ZM73.9043 14.648C73.9043 14.84 74.0643 15 74.2563 15H74.7363C74.9123 15 75.0883 14.84 75.0883 14.648V9.576C75.0883 9.576 75.9523 8.52 77.3602 8.52C78.4963 8.52 78.9123 9.336 78.9123 10.744V14.648C78.9123 14.84 79.0723 15 79.2643 15H79.7603C79.9363 15 80.1123 14.84 80.1123 14.648V10.744C80.1123 8.584 79.2803 7.448 77.4403 7.448C75.9523 7.448 75.0883 8.392 75.0883 8.392V4.152C75.0883 3.976 74.9123 3.8 74.7363 3.8H74.2563C74.0643 3.8 73.9043 3.976 73.9043 4.152V14.648ZM82.4493 11.944C82.4493 13.896 82.9613 15.176 85.0893 15.176C86.2733 15.176 86.9453 14.664 87.3773 14.216C87.4253 14.712 87.6813 15.064 88.1613 15.064C88.3373 15.064 88.4493 14.952 88.4493 14.776V7.96C88.4493 7.784 88.2893 7.608 88.1133 7.608H87.6173C87.4253 7.608 87.2813 7.784 87.2813 7.96V13.032C86.9453 13.416 86.2893 14.104 85.1853 14.104C84.1133 14.104 83.6332 13.432 83.6332 11.96V7.96C83.6332 7.784 83.4733 7.608 83.2812 7.608H82.8013C82.5933 7.608 82.4493 7.784 82.4493 7.96V11.944ZM90.4871 11.304C90.4871 13.416 91.8311 15.176 94.0711 15.176C95.3511 15.176 96.3271 14.68 96.7751 14.328C97.0471 14.12 96.9831 14.04 96.8391 13.816L96.6471 13.544C96.4551 13.256 96.3431 13.32 96.0871 13.496C95.6711 13.768 95.0631 14.104 94.0871 14.104C92.7431 14.104 91.7031 12.808 91.6711 11.576H97.0471C97.2071 11.576 97.3671 11.448 97.3831 11.256C97.3991 11.128 97.4151 10.936 97.4151 10.808C97.4151 8.872 96.0071 7.448 94.0711 7.448C91.8311 7.448 90.4871 9.224 90.4871 11.304ZM91.6871 10.632C91.8311 9.48 92.8231 8.52 94.0711 8.52C95.3351 8.52 96.1991 9.544 96.2311 10.632H91.6871ZM101.536 14.984C101.568 15.08 101.68 15.176 101.84 15.176H101.936C102.112 15.176 102.208 15.08 102.24 14.984L105.424 8.024C105.52 7.8 105.424 7.608 105.136 7.608H104.624C104.496 7.608 104.384 7.688 104.336 7.816L101.904 13.256H101.872L99.584 7.816C99.536 7.688 99.424 7.608 99.248 7.608H98.688C98.416 7.608 98.304 7.8 98.416 8.024L101.536 14.984ZM106.424 11.288C106.424 13.4 108.088 15.176 110.136 15.176C112.184 15.176 113.848 13.4 113.848 11.288C113.848 9.208 112.184 7.448 110.136 7.448C108.088 7.448 106.424 9.208 106.424 11.288ZM107.592 11.288C107.592 9.784 108.68 8.52 110.136 8.52C111.592 8.52 112.664 9.784 112.664 11.288C112.664 12.824 111.592 14.104 110.136 14.104C108.68 14.104 107.592 12.824 107.592 11.288ZM117.921 15.176C119.425 15.176 120.433 14.232 120.433 13.064C120.433 11.72 119.329 11.24 118.049 10.648C117.153 10.232 116.641 9.992 116.641 9.336C116.641 8.984 116.913 8.52 117.729 8.52C118.417 8.52 118.929 8.76 119.249 8.952C119.409 9.048 119.649 9.032 119.761 8.824L119.921 8.52C120.033 8.312 120.001 8.152 119.841 8.024C119.489 7.768 118.689 7.448 117.729 7.448C116.017 7.448 115.441 8.616 115.441 9.384C115.441 10.648 116.561 11.176 117.537 11.656C118.609 12.184 119.185 12.472 119.185 13.176C119.185 13.752 118.673 14.104 117.921 14.104C116.977 14.104 116.337 13.64 116.081 13.448C115.873 13.304 115.745 13.368 115.649 13.544L115.425 13.96C115.361 14.088 115.393 14.2 115.473 14.28C115.857 14.632 116.689 15.176 117.921 15.176Z" fill="#0D346B"/>
<rect x="0.25" y="0.25" width="125.5" height="17.5" rx="3.75" stroke="#0D346B" stroke-width="0.5"/>
</svg>
