<svg width="18" height="18" viewBox="0 0 18 18" fill="none" xmlns="http://www.w3.org/2000/svg">
<path d="M15.5325 14.4675L12.9825 11.925C13.8052 10.8768 14.2517 9.58249 14.25 8.25C14.25 7.06331 13.8981 5.90327 13.2388 4.91657C12.5795 3.92988 11.6425 3.16084 10.5461 2.70672C9.44975 2.25259 8.24335 2.13377 7.07946 2.36528C5.91558 2.59679 4.84648 3.16824 4.00736 4.00735C3.16825 4.84647 2.5968 5.91557 2.36529 7.07945C2.13378 8.24334 2.2526 9.44974 2.70673 10.5461C3.16085 11.6425 3.92989 12.5795 4.91658 13.2388C5.90328 13.8981 7.06331 14.25 8.25 14.25C9.58249 14.2517 10.8768 13.8052 11.925 12.9825L14.4675 15.5325C14.5372 15.6028 14.6202 15.6586 14.7116 15.6967C14.803 15.7347 14.901 15.7543 15 15.7543C15.099 15.7543 15.197 15.7347 15.2884 15.6967C15.3798 15.6586 15.4628 15.6028 15.5325 15.5325C15.6028 15.4628 15.6586 15.3798 15.6967 15.2884C15.7347 15.197 15.7544 15.099 15.7544 15C15.7544 14.901 15.7347 14.803 15.6967 14.7116C15.6586 14.6202 15.6028 14.5372 15.5325 14.4675ZM3.75 8.25C3.75 7.35998 4.01392 6.48995 4.50839 5.74993C5.00286 5.00991 5.70566 4.43313 6.52793 4.09254C7.35019 3.75194 8.25499 3.66283 9.12791 3.83646C10.0008 4.01009 10.8026 4.43868 11.432 5.06801C12.0613 5.69735 12.4899 6.49917 12.6635 7.37209C12.8372 8.245 12.7481 9.1498 12.4075 9.97207C12.0669 10.7943 11.4901 11.4971 10.7501 11.9916C10.01 12.4861 9.14002 12.75 8.25 12.75C7.05653 12.75 5.91194 12.2759 5.06802 11.432C4.22411 10.5881 3.75 9.44347 3.75 8.25Z" fill="#0071CE"/>
</svg>
