<svg width="298" height="48" viewBox="0 0 298 48" fill="none" xmlns="http://www.w3.org/2000/svg">
<path d="M4.508 6.754V6.782L0.854 14.426C0.798 14.538 0.784 14.608 0.784 14.72C0.784 14.958 0.966 15 1.134 15H2.212C2.45 15 2.59 14.846 2.702 14.608L6.944 5.676C7 5.564 7 5.522 7 5.466C7 5.326 6.86 5.2 6.72 5.2H0.714C0.574 5.2 0.448 5.326 0.448 5.466V6.474C0.448 6.628 0.574 6.754 0.714 6.754H4.508ZM7.97672 13.95C8.32672 14.384 9.26472 15.14 10.8187 15.14C12.8067 15.14 14.3047 13.642 14.3047 11.836C14.3047 9.96 13.0447 8.644 11.0007 8.644H9.75472V6.726H12.9607C13.1147 6.726 13.2407 6.6 13.2407 6.446V5.466C13.2407 5.326 13.1147 5.2 12.9607 5.2H8.41072C8.24272 5.2 8.13072 5.326 8.13072 5.466V9.722C8.13072 9.96 8.28472 10.226 8.57872 10.226H10.8047C11.9387 10.226 12.5407 10.954 12.5407 11.836C12.5407 12.746 11.8547 13.544 10.8747 13.544C10.0067 13.544 9.41872 13.068 9.01272 12.732C8.90072 12.634 8.76072 12.662 8.66272 12.746L7.94872 13.46C7.76672 13.628 7.78072 13.726 7.97672 13.95ZM19.9176 12.914V14.72C19.9176 14.874 20.0576 15 20.1976 15H21.3876C21.5416 15 21.6676 14.874 21.6676 14.72L21.6536 12.914H22.8016C22.9696 12.914 23.0816 12.774 23.0816 12.634V11.668C23.0816 11.528 22.9696 11.416 22.8016 11.416H21.6536V5.34C21.6536 5.186 21.5276 5.06 21.3736 5.06H20.6876C20.5056 5.06 20.4216 5.102 20.3236 5.214L15.3676 11.234C15.2416 11.374 15.1856 11.528 15.1856 11.724V12.634C15.1856 12.774 15.3116 12.914 15.4656 12.914H19.9176ZM17.1176 11.458V11.43L19.9456 7.972H19.9736V11.458H17.1176ZM24.4377 13.95C24.7877 14.384 25.7257 15.14 27.2797 15.14C29.2677 15.14 30.7657 13.642 30.7657 11.836C30.7657 9.96 29.5057 8.644 27.4617 8.644H26.2157V6.726H29.4217C29.5757 6.726 29.7017 6.6 29.7017 6.446V5.466C29.7017 5.326 29.5757 5.2 29.4217 5.2H24.8717C24.7037 5.2 24.5917 5.326 24.5917 5.466V9.722C24.5917 9.96 24.7457 10.226 25.0397 10.226H27.2657C28.3997 10.226 29.0017 10.954 29.0017 11.836C29.0017 12.746 28.3157 13.544 27.3357 13.544C26.4677 13.544 25.8797 13.068 25.4737 12.732C25.3617 12.634 25.2217 12.662 25.1237 12.746L24.4097 13.46C24.2277 13.628 24.2417 13.726 24.4377 13.95ZM36.3786 12.914V14.72C36.3786 14.874 36.5186 15 36.6586 15H37.8486C38.0026 15 38.1286 14.874 38.1286 14.72L38.1146 12.914H39.2626C39.4306 12.914 39.5426 12.774 39.5426 12.634V11.668C39.5426 11.528 39.4306 11.416 39.2626 11.416H38.1146V5.34C38.1146 5.186 37.9886 5.06 37.8346 5.06H37.1486C36.9666 5.06 36.8826 5.102 36.7846 5.214L31.8286 11.234C31.7026 11.374 31.6466 11.528 31.6466 11.724V12.634C31.6466 12.774 31.7726 12.914 31.9266 12.914H36.3786ZM33.5786 11.458V11.43L36.4066 7.972H36.4346V11.458H33.5786ZM40.5066 13.866C40.8286 14.23 41.7106 15.14 43.5026 15.14C45.4906 15.14 46.8206 13.964 46.8206 12.326C46.8206 11.052 45.8546 10.282 45.0846 9.988V9.932C45.7286 9.638 46.5686 8.952 46.5686 7.706C46.5686 6.082 45.1686 5.06 43.4886 5.06C42.1026 5.06 41.2066 5.802 40.7866 6.334C40.6886 6.446 40.6606 6.614 40.7866 6.712L41.4866 7.37C41.6126 7.482 41.7806 7.468 41.8786 7.356C42.1166 7.062 42.5786 6.67 43.3346 6.67C44.0626 6.67 44.7346 7.202 44.7346 7.986C44.7346 8.728 44.1326 9.302 42.9426 9.302H42.1306C41.9626 9.302 41.8646 9.4 41.8646 9.596V10.506C41.8646 10.674 41.9766 10.786 42.1306 10.786H42.9426C44.2446 10.786 44.9306 11.346 44.9306 12.27C44.9306 13.012 44.2866 13.572 43.4046 13.572C42.5226 13.572 42.0186 13.18 41.6266 12.788C41.5146 12.676 41.3886 12.676 41.2626 12.788L40.5206 13.502C40.4366 13.6 40.4226 13.754 40.5066 13.866ZM47.8621 13.866C48.1841 14.23 49.0661 15.14 50.8581 15.14C52.8461 15.14 54.1761 13.964 54.1761 12.326C54.1761 11.052 53.2101 10.282 52.4401 9.988V9.932C53.0841 9.638 53.9241 8.952 53.9241 7.706C53.9241 6.082 52.5241 5.06 50.8441 5.06C49.4581 5.06 48.5621 5.802 48.1421 6.334C48.0441 6.446 48.0161 6.614 48.1421 6.712L48.8421 7.37C48.9681 7.482 49.1361 7.468 49.2341 7.356C49.4721 7.062 49.9341 6.67 50.6901 6.67C51.4181 6.67 52.0901 7.202 52.0901 7.986C52.0901 8.728 51.4881 9.302 50.2981 9.302H49.4861C49.3181 9.302 49.2201 9.4 49.2201 9.596V10.506C49.2201 10.674 49.3321 10.786 49.4861 10.786H50.2981C51.6001 10.786 52.2861 11.346 52.2861 12.27C52.2861 13.012 51.6421 13.572 50.7601 13.572C49.8781 13.572 49.3741 13.18 48.9821 12.788C48.8701 12.676 48.7441 12.676 48.6181 12.788L47.8761 13.502C47.7921 13.6 47.7781 13.754 47.8621 13.866ZM57.9508 13.46V13.432C58.7068 12.466 59.7988 11.122 60.4008 10.254C60.9608 9.442 61.3668 8.868 61.3668 7.93C61.3668 6.376 60.2188 5.06 58.1468 5.06C56.4388 5.06 55.3048 6.474 55.3048 6.474C55.2068 6.586 55.2348 6.768 55.3188 6.852L56.0188 7.538C56.1308 7.664 56.2848 7.664 56.4108 7.538C56.7328 7.188 57.3348 6.698 58.0208 6.698C59.0568 6.698 59.5468 7.356 59.5468 8C59.5468 8.49 59.2668 9.05 58.8188 9.596C57.8948 10.814 56.1728 13.054 55.1928 14.258C55.1508 14.314 55.0808 14.426 55.0808 14.58V14.72C55.0808 14.874 55.1928 15 55.3468 15H61.0308C61.1848 15 61.3108 14.874 61.3108 14.72V13.726C61.3108 13.586 61.1848 13.46 61.0308 13.46H57.9508ZM65.4157 13.46V13.432C66.1717 12.466 67.2637 11.122 67.8657 10.254C68.4257 9.442 68.8317 8.868 68.8317 7.93C68.8317 6.376 67.6837 5.06 65.6117 5.06C63.9037 5.06 62.7697 6.474 62.7697 6.474C62.6717 6.586 62.6997 6.768 62.7837 6.852L63.4837 7.538C63.5957 7.664 63.7497 7.664 63.8757 7.538C64.1977 7.188 64.7997 6.698 65.4857 6.698C66.5217 6.698 67.0117 7.356 67.0117 8C67.0117 8.49 66.7317 9.05 66.2837 9.596C65.3597 10.814 63.6377 13.054 62.6577 14.258C62.6157 14.314 62.5457 14.426 62.5457 14.58V14.72C62.5457 14.874 62.6577 15 62.8117 15H68.4957C68.6497 15 68.7757 14.874 68.7757 14.72V13.726C68.7757 13.586 68.6497 13.46 68.4957 13.46H65.4157ZM70.0105 13.866C70.3325 14.23 71.2145 15.14 73.0065 15.14C74.9945 15.14 76.3245 13.964 76.3245 12.326C76.3245 11.052 75.3585 10.282 74.5885 9.988V9.932C75.2325 9.638 76.0725 8.952 76.0725 7.706C76.0725 6.082 74.6725 5.06 72.9925 5.06C71.6065 5.06 70.7105 5.802 70.2905 6.334C70.1925 6.446 70.1645 6.614 70.2905 6.712L70.9905 7.37C71.1165 7.482 71.2845 7.468 71.3825 7.356C71.6205 7.062 72.0825 6.67 72.8385 6.67C73.5665 6.67 74.2385 7.202 74.2385 7.986C74.2385 8.728 73.6365 9.302 72.4465 9.302H71.6345C71.4665 9.302 71.3685 9.4 71.3685 9.596V10.506C71.3685 10.674 71.4805 10.786 71.6345 10.786H72.4465C73.7485 10.786 74.4345 11.346 74.4345 12.27C74.4345 13.012 73.7905 13.572 72.9085 13.572C72.0265 13.572 71.5225 13.18 71.1305 12.788C71.0185 12.676 70.8925 12.676 70.7665 12.788L70.0245 13.502C69.9405 13.6 69.9265 13.754 70.0105 13.866Z" fill="#0D346B"/>
<path d="M223.1 18.7253H223.114V26.4533C223.114 26.6073 223.24 26.7333 223.394 26.7333H223.912C224.052 26.7333 224.178 26.6073 224.178 26.4533V17.1993C224.178 17.0593 224.052 16.9333 223.912 16.9333H223.66C223.562 16.9333 223.492 16.9613 223.422 17.0313L221.504 18.8933C221.434 18.9633 221.378 19.0893 221.476 19.2013L221.756 19.5093C221.854 19.6213 221.966 19.6073 222.078 19.5233L223.1 18.7253ZM230.845 17.8993V17.9273L226.939 26.1033C226.869 26.2433 226.841 26.3413 226.841 26.4533C226.841 26.6073 226.967 26.7333 227.107 26.7333H227.527C227.807 26.7333 227.947 26.4813 228.003 26.3553L232.147 17.4373C232.217 17.2973 232.217 17.2413 232.217 17.1993C232.217 17.0173 232.091 16.9333 231.937 16.9333H226.141C226.001 16.9333 225.875 17.0593 225.875 17.1993V17.6193C225.875 17.7593 226.001 17.8993 226.141 17.8993H230.845ZM232.846 26.3833C232.79 26.5793 232.916 26.7333 233.098 26.7333H233.42C233.518 26.7333 233.644 26.6493 233.672 26.5513L236.402 17.2833C236.458 17.0873 236.346 16.9333 236.15 16.9333H235.842C235.73 16.9333 235.618 17.0173 235.59 17.1153L232.846 26.3833ZM241.498 26.8733C243.738 26.8733 245.012 24.9833 245.012 21.8333C245.012 18.6693 243.738 16.7933 241.498 16.7933C239.272 16.7933 237.998 18.6693 237.998 21.8333C237.998 24.9833 239.272 26.8733 241.498 26.8733ZM241.498 25.8933C239.916 25.8933 239.09 24.4653 239.09 21.8333C239.09 19.2153 239.916 17.7733 241.498 17.7733C243.094 17.7733 243.92 19.2153 243.92 21.8333C243.92 24.4653 243.094 25.8933 241.498 25.8933ZM250.793 17.8993V17.9273L246.887 26.1033C246.817 26.2433 246.789 26.3413 246.789 26.4533C246.789 26.6073 246.915 26.7333 247.055 26.7333H247.475C247.755 26.7333 247.895 26.4813 247.951 26.3553L252.095 17.4373C252.165 17.2973 252.165 17.2413 252.165 17.1993C252.165 17.0173 252.039 16.9333 251.885 16.9333H246.089C245.949 16.9333 245.823 17.0593 245.823 17.1993V17.6193C245.823 17.7593 245.949 17.8993 246.089 17.8993H250.793ZM252.793 26.3833C252.737 26.5793 252.863 26.7333 253.045 26.7333H253.367C253.465 26.7333 253.591 26.6493 253.619 26.5513L256.349 17.2833C256.405 17.0873 256.293 16.9333 256.097 16.9333H255.789C255.677 16.9333 255.565 17.0173 255.537 17.1153L252.793 26.3833ZM259.387 25.7953V25.7673L262.131 22.8413C263.125 21.7773 263.937 20.8393 263.937 19.5653C263.937 18.0953 262.887 16.7933 260.815 16.7933C259.107 16.7933 258.085 18.2073 258.085 18.2073C257.987 18.3193 258.015 18.4873 258.099 18.5853L258.379 18.8653C258.505 18.9773 258.659 18.9773 258.771 18.8653C259.219 18.3893 259.933 17.7733 260.815 17.7733C262.313 17.7733 262.845 18.7673 262.845 19.5933C262.845 20.2793 262.369 21.1333 261.389 22.2113C260.255 23.4013 259.149 24.6333 258.029 25.8373C257.847 26.0333 257.847 26.1033 257.847 26.2573V26.4533C257.847 26.6073 257.959 26.7333 258.127 26.7333H263.601C263.755 26.7333 263.881 26.6073 263.881 26.4533V26.0753C263.881 25.9213 263.755 25.7953 263.601 25.7953H259.387ZM268.951 26.8733C271.191 26.8733 272.465 24.9833 272.465 21.8333C272.465 18.6693 271.191 16.7933 268.951 16.7933C266.725 16.7933 265.451 18.6693 265.451 21.8333C265.451 24.9833 266.725 26.8733 268.951 26.8733ZM268.951 25.8933C267.369 25.8933 266.543 24.4653 266.543 21.8333C266.543 19.2153 267.369 17.7733 268.951 17.7733C270.547 17.7733 271.373 19.2153 271.373 21.8333C271.373 24.4653 270.547 25.8933 268.951 25.8933Z" fill="black"/>
<path d="M284 30.9333C283.766 30.9338 283.54 30.847 283.36 30.688C283.259 30.5985 283.175 30.4885 283.114 30.3644C283.052 30.2403 283.015 30.1045 283.003 29.9648C282.99 29.8251 283.004 29.6842 283.043 29.5502C283.082 29.4162 283.146 29.2918 283.23 29.184L287.71 23.4667L283.39 17.7387C283.307 17.6296 283.245 17.504 283.208 17.3693C283.17 17.2345 283.158 17.0932 283.172 16.9534C283.186 16.8136 283.226 16.6782 283.289 16.5548C283.352 16.4315 283.437 16.3227 283.54 16.2347C283.644 16.1376 283.765 16.0643 283.896 16.0195C284.027 15.9747 284.166 15.9594 284.303 15.9744C284.44 15.9894 284.573 16.0345 284.693 16.1068C284.813 16.1792 284.917 16.2771 285 16.3947L289.83 22.7947C289.977 22.9855 290.058 23.2249 290.058 23.472C290.058 23.7191 289.977 23.9585 289.83 24.1493L284.83 30.5493C284.73 30.6784 284.602 30.7805 284.458 30.8472C284.314 30.9139 284.157 30.9434 284 30.9333Z" fill="#0071CE"/>
<path d="M1.344 42.4673C1.344 42.6073 1.456 42.7333 1.61 42.7333H6.454C6.608 42.7333 6.72 42.6073 6.72 42.4673V42.0613C6.72 41.9213 6.608 41.7953 6.454 41.7953H2.422V33.1993C2.422 33.0593 2.296 32.9333 2.156 32.9333H1.61C1.456 32.9333 1.344 33.0593 1.344 33.1993V42.4673ZM8.00997 42.4253C8.00997 42.5933 8.14997 42.7333 8.31797 42.7333H8.73797C8.89197 42.7333 9.04597 42.5933 9.04597 42.4253V36.5733C9.04597 36.4193 8.89197 36.2653 8.73797 36.2653H8.31797C8.14997 36.2653 8.00997 36.4193 8.00997 36.5733V42.4253ZM8.49997 34.5993C8.93397 34.5993 9.26997 34.2493 9.26997 33.8433C9.26997 33.3953 8.93397 33.0593 8.49997 33.0593C8.07997 33.0593 7.74397 33.3953 7.74397 33.8433C7.74397 34.2493 8.07997 34.5993 8.49997 34.5993ZM13.0425 42.8873C14.3585 42.8873 15.2405 42.0613 15.2405 41.0393C15.2405 39.8633 14.2745 39.4433 13.1545 38.9253C12.3705 38.5613 11.9225 38.3513 11.9225 37.7773C11.9225 37.4693 12.1605 37.0633 12.8745 37.0633C13.4765 37.0633 13.9245 37.2733 14.2045 37.4413C14.3445 37.5253 14.5545 37.5113 14.6525 37.3293L14.7925 37.0633C14.8905 36.8813 14.8625 36.7413 14.7225 36.6293C14.4145 36.4053 13.7145 36.1253 12.8745 36.1253C11.3765 36.1253 10.8725 37.1473 10.8725 37.8193C10.8725 38.9253 11.8525 39.3873 12.7065 39.8073C13.6445 40.2693 14.1485 40.5213 14.1485 41.1373C14.1485 41.6413 13.7005 41.9493 13.0425 41.9493C12.2165 41.9493 11.6565 41.5433 11.4325 41.3753C11.2505 41.2493 11.1385 41.3053 11.0545 41.4593L10.8585 41.8233C10.8025 41.9353 10.8305 42.0333 10.9005 42.1033C11.2365 42.4113 11.9645 42.8873 13.0425 42.8873ZM17.344 37.1613V40.9833C17.344 41.9913 17.988 42.8873 19.122 42.8873C19.78 42.8873 20.34 42.6633 20.648 42.4953C20.816 42.3973 20.844 42.2853 20.76 42.0753L20.648 41.7953C20.592 41.6413 20.494 41.5153 20.242 41.6693C19.976 41.8233 19.64 41.9493 19.248 41.9493C18.8 41.9493 18.38 41.6553 18.38 40.9833V37.1613H20.284C20.466 37.1613 20.606 37.0213 20.606 36.8533V36.5733C20.606 36.3913 20.466 36.2653 20.284 36.2653H18.38V34.4453C18.38 34.2773 18.254 34.1233 18.086 34.1373L17.652 34.1653C17.498 34.1793 17.344 34.3053 17.344 34.4733V36.2653H16.49C16.294 36.2653 16.168 36.3913 16.168 36.5733V36.8533C16.168 37.0213 16.294 37.1613 16.49 37.1613H17.344ZM21.8087 39.4853C21.8087 41.3333 23.2647 42.8873 25.0567 42.8873C26.8487 42.8873 28.3047 41.3333 28.3047 39.4853C28.3047 37.6653 26.8487 36.1253 25.0567 36.1253C23.2647 36.1253 21.8087 37.6653 21.8087 39.4853ZM22.8307 39.4853C22.8307 38.1693 23.7827 37.0633 25.0567 37.0633C26.3307 37.0633 27.2687 38.1693 27.2687 39.4853C27.2687 40.8293 26.3307 41.9493 25.0567 41.9493C23.7827 41.9493 22.8307 40.8293 22.8307 39.4853ZM34.448 42.3553C34.448 42.3553 35.162 42.8873 36.24 42.8873C38.018 42.8873 39.292 41.3893 39.292 39.4993C39.292 37.6513 38.046 36.1253 36.282 36.1253C35.414 36.1253 34.728 36.4753 34.322 36.7973C34.252 36.4473 34.028 36.2093 33.678 36.2093C33.524 36.2093 33.426 36.3073 33.426 36.4613V45.7573C33.426 45.9253 33.566 46.0653 33.734 46.0653H34.14C34.294 46.0653 34.448 45.9253 34.448 45.7573V42.3553ZM34.448 37.8473C34.448 37.8473 35.12 37.0633 36.156 37.0633C37.458 37.0633 38.242 38.2253 38.242 39.4853C38.242 40.8993 37.332 41.9493 36.086 41.9493C35.19 41.9493 34.448 41.3893 34.448 41.3893V37.8473ZM40.5646 40.7733C40.5646 42.0753 41.4326 42.8873 42.5666 42.8873C43.5746 42.8873 44.2606 42.3833 44.5966 42.0333C44.6386 42.4673 44.8626 42.7893 45.2826 42.7893C45.4366 42.7893 45.5346 42.6913 45.5346 42.5373V38.8413C45.5346 37.1053 44.7646 36.1253 43.1126 36.1253C42.2166 36.1253 41.6286 36.4053 41.3066 36.5453C41.1526 36.6153 41.0546 36.6993 41.1106 36.8953L41.2506 37.2733C41.3066 37.4273 41.3906 37.5113 41.5586 37.4413C41.8526 37.3433 42.3426 37.0633 43.0566 37.0633C43.9806 37.0633 44.5546 37.6513 44.5406 38.8413C44.5406 38.8413 43.8406 38.6313 43.1546 38.6313C41.4886 38.6313 40.5646 39.5413 40.5646 40.7733ZM41.5866 40.7733C41.5866 39.9473 42.2586 39.5133 43.1546 39.5133C43.7986 39.5133 44.3166 39.6533 44.5266 39.7653V41.0813C44.2466 41.5013 43.5466 41.9493 42.7486 41.9493C42.0346 41.9493 41.5866 41.4313 41.5866 40.7733ZM47.6584 42.4253C47.6584 42.5933 47.7984 42.7333 47.9664 42.7333H48.3864C48.5404 42.7333 48.6944 42.5933 48.6944 42.4253V37.9453C48.6944 37.9453 49.1984 37.1193 50.4444 37.1193C50.7524 37.1193 50.9904 37.2313 51.1444 37.3013C51.2984 37.3713 51.4524 37.3573 51.5224 37.1473L51.7044 36.6433C51.8584 36.1953 51.0604 36.1253 50.5704 36.1253C49.5624 36.1253 48.9324 36.5733 48.5824 36.9373C48.5404 36.5173 48.3164 36.2093 47.9104 36.2093C47.7564 36.2093 47.6584 36.3073 47.6584 36.4613V42.4253ZM52.4864 40.7733C52.4864 42.0753 53.3544 42.8873 54.4884 42.8873C55.4964 42.8873 56.1824 42.3833 56.5184 42.0333C56.5604 42.4673 56.7844 42.7893 57.2044 42.7893C57.3584 42.7893 57.4564 42.6913 57.4564 42.5373V38.8413C57.4564 37.1053 56.6864 36.1253 55.0344 36.1253C54.1384 36.1253 53.5504 36.4053 53.2284 36.5453C53.0744 36.6153 52.9764 36.6993 53.0324 36.8953L53.1724 37.2733C53.2284 37.4273 53.3124 37.5113 53.4804 37.4413C53.7744 37.3433 54.2644 37.0633 54.9784 37.0633C55.9024 37.0633 56.4764 37.6513 56.4624 38.8413C56.4624 38.8413 55.7624 38.6313 55.0764 38.6313C53.4104 38.6313 52.4864 39.5413 52.4864 40.7733ZM53.5084 40.7733C53.5084 39.9473 54.1804 39.5133 55.0764 39.5133C55.7204 39.5133 56.2384 39.6533 56.4484 39.7653V41.0813C56.1684 41.5013 55.4684 41.9493 54.6704 41.9493C53.9564 41.9493 53.5084 41.4313 53.5084 40.7733ZM62.5376 39.4993C62.5376 41.3473 63.7136 42.8873 65.6736 42.8873C66.7936 42.8873 67.6476 42.4533 68.0396 42.1453C68.2776 41.9633 68.2216 41.8933 68.0956 41.6973L67.9276 41.4593C67.7596 41.2073 67.6616 41.2633 67.4376 41.4173C67.0736 41.6553 66.5416 41.9493 65.6876 41.9493C64.5116 41.9493 63.6016 40.8153 63.5736 39.7373H68.2776C68.4176 39.7373 68.5576 39.6253 68.5716 39.4573C68.5856 39.3453 68.5996 39.1773 68.5996 39.0653C68.5996 37.3713 67.3676 36.1253 65.6736 36.1253C63.7136 36.1253 62.5376 37.6793 62.5376 39.4993ZM63.5876 38.9113C63.7136 37.9033 64.5816 37.0633 65.6736 37.0633C66.7796 37.0633 67.5356 37.9593 67.5636 38.9113H63.5876ZM70.299 42.4253C70.299 42.5933 70.439 42.7333 70.607 42.7333H71.027C71.181 42.7333 71.335 42.5933 71.335 42.4253V37.9593C71.335 37.9593 72.105 37.0633 73.323 37.0633C74.275 37.0633 74.695 37.6373 74.695 38.8693V42.4253C74.695 42.5933 74.835 42.7333 75.003 42.7333H75.423C75.577 42.7333 75.731 42.5933 75.731 42.4253V39.0093C75.731 37.3433 75.269 36.1253 73.393 36.1253C72.385 36.1253 71.629 36.5873 71.223 36.9373C71.181 36.5173 70.957 36.2093 70.551 36.2093C70.397 36.2093 70.299 36.3073 70.299 36.4613V42.4253ZM78.1975 37.1613V40.9833C78.1975 41.9913 78.8415 42.8873 79.9755 42.8873C80.6335 42.8873 81.1935 42.6633 81.5015 42.4953C81.6695 42.3973 81.6975 42.2853 81.6135 42.0753L81.5015 41.7953C81.4455 41.6413 81.3475 41.5153 81.0955 41.6693C80.8295 41.8233 80.4935 41.9493 80.1015 41.9493C79.6535 41.9493 79.2335 41.6553 79.2335 40.9833V37.1613H81.1375C81.3195 37.1613 81.4595 37.0213 81.4595 36.8533V36.5733C81.4595 36.3913 81.3195 36.2653 81.1375 36.2653H79.2335V34.4453C79.2335 34.2773 79.1075 34.1233 78.9395 34.1373L78.5055 34.1653C78.3515 34.1793 78.1975 34.3053 78.1975 34.4733V36.2653H77.3435C77.1475 36.2653 77.0215 36.3913 77.0215 36.5733V36.8533C77.0215 37.0213 77.1475 37.1613 77.3435 37.1613H78.1975ZM83.0822 42.4253C83.0822 42.5933 83.2222 42.7333 83.3902 42.7333H83.8102C83.9642 42.7333 84.1182 42.5933 84.1182 42.4253V37.9453C84.1182 37.9453 84.6222 37.1193 85.8682 37.1193C86.1762 37.1193 86.4142 37.2313 86.5682 37.3013C86.7222 37.3713 86.8762 37.3573 86.9462 37.1473L87.1282 36.6433C87.2822 36.1953 86.4842 36.1253 85.9942 36.1253C84.9862 36.1253 84.3562 36.5733 84.0062 36.9373C83.9642 36.5173 83.7402 36.2093 83.3342 36.2093C83.1802 36.2093 83.0822 36.3073 83.0822 36.4613V42.4253ZM87.8715 39.4993C87.8715 41.3473 89.0475 42.8873 91.0075 42.8873C92.1275 42.8873 92.9815 42.4533 93.3735 42.1453C93.6115 41.9633 93.5555 41.8933 93.4295 41.6973L93.2615 41.4593C93.0935 41.2073 92.9955 41.2633 92.7715 41.4173C92.4075 41.6553 91.8755 41.9493 91.0215 41.9493C89.8455 41.9493 88.9355 40.8153 88.9075 39.7373H93.6115C93.7515 39.7373 93.8915 39.6253 93.9055 39.4573C93.9195 39.3453 93.9335 39.1773 93.9335 39.0653C93.9335 37.3713 92.7015 36.1253 91.0075 36.1253C89.0475 36.1253 87.8715 37.6793 87.8715 39.4993ZM88.9215 38.9113C89.0475 37.9033 89.9155 37.0633 91.0075 37.0633C92.1135 37.0633 92.8695 37.9593 92.8975 38.9113H88.9215ZM101.107 36.4613C101.107 36.3073 101.009 36.2093 100.855 36.2093C100.491 36.2093 100.281 36.4473 100.197 36.7973C99.805 36.4893 99.091 36.1253 98.251 36.1253C96.487 36.1253 95.227 37.6513 95.227 39.4993C95.227 41.3893 96.515 42.8873 98.293 42.8873C99.357 42.8873 100.085 42.3133 100.085 42.3133V42.7753C100.085 44.2873 99.301 44.8473 98.279 44.8473C97.565 44.8473 97.005 44.4553 96.655 44.1613C96.501 44.0213 96.333 44.0213 96.235 44.1753L95.955 44.5813C95.885 44.6793 95.913 44.8613 96.025 44.9593C96.361 45.2673 97.257 45.7993 98.279 45.7993C99.749 45.7993 101.107 44.9873 101.107 42.7753V36.4613ZM96.277 39.4853C96.277 38.2253 97.075 37.0773 98.363 37.0773C99.413 37.0773 100.071 37.8613 100.071 37.8613V41.4033C100.071 41.4033 99.329 41.9353 98.433 41.9353C97.201 41.9353 96.277 40.8853 96.277 39.4853ZM102.785 40.7733C102.785 42.0753 103.653 42.8873 104.787 42.8873C105.795 42.8873 106.481 42.3833 106.817 42.0333C106.859 42.4673 107.083 42.7893 107.503 42.7893C107.657 42.7893 107.755 42.6913 107.755 42.5373V38.8413C107.755 37.1053 106.985 36.1253 105.333 36.1253C104.437 36.1253 103.849 36.4053 103.527 36.5453C103.373 36.6153 103.275 36.6993 103.331 36.8953L103.471 37.2733C103.527 37.4273 103.611 37.5113 103.779 37.4413C104.073 37.3433 104.563 37.0633 105.277 37.0633C106.201 37.0633 106.775 37.6513 106.761 38.8413C106.761 38.8413 106.061 38.6313 105.375 38.6313C103.709 38.6313 102.785 39.5413 102.785 40.7733ZM103.807 40.7733C103.807 39.9473 104.479 39.5133 105.375 39.5133C106.019 39.5133 106.537 39.6533 106.747 39.7653V41.0813C106.467 41.5013 105.767 41.9493 104.969 41.9493C104.255 41.9493 103.807 41.4313 103.807 40.7733ZM109.879 42.4253C109.879 42.5933 110.019 42.7333 110.187 42.7333H110.607C110.761 42.7333 110.915 42.5933 110.915 42.4253V37.9453C110.915 37.9453 111.419 37.1193 112.665 37.1193C112.973 37.1193 113.211 37.2313 113.365 37.3013C113.519 37.3713 113.673 37.3573 113.743 37.1473L113.925 36.6433C114.079 36.1953 113.281 36.1253 112.791 36.1253C111.783 36.1253 111.153 36.5733 110.803 36.9373C110.761 36.5173 110.537 36.2093 110.131 36.2093C109.977 36.2093 109.879 36.3073 109.879 36.4613V42.4253Z" fill="black"/>
</svg>
