<svg width="298" height="45" viewBox="0 0 298 45" fill="none" xmlns="http://www.w3.org/2000/svg">
<path d="M4.508 6.754V6.782L0.854 14.426C0.798 14.538 0.784 14.608 0.784 14.72C0.784 14.958 0.966 15 1.134 15H2.212C2.45 15 2.59 14.846 2.702 14.608L6.944 5.676C7 5.564 7 5.522 7 5.466C7 5.326 6.86 5.2 6.72 5.2H0.714C0.574 5.2 0.448 5.326 0.448 5.466V6.474C0.448 6.628 0.574 6.754 0.714 6.754H4.508ZM7.14919 11.164C7.14919 13.334 8.32519 15.14 10.5792 15.14C12.3572 15.14 13.8412 13.656 13.8412 11.836C13.8412 9.778 12.3432 8.714 10.9012 8.714C10.2292 8.714 9.50119 8.966 9.26319 9.12C9.71119 7.524 11.7552 6.628 12.4272 6.418C12.7072 6.334 12.7632 6.166 12.6932 5.998L12.3572 5.144C12.3012 4.962 12.1612 4.892 11.9512 4.948C10.7192 5.354 7.14919 6.95 7.14919 11.164ZM10.5652 13.53C9.40319 13.53 8.88519 12.368 8.88519 11.374C9.03919 10.856 9.59919 10.114 10.5512 10.114C11.4752 10.114 12.2172 10.842 12.2172 11.808C12.2172 12.83 11.4752 13.53 10.5652 13.53ZM15.1681 13.95C15.5181 14.384 16.4561 15.14 18.0101 15.14C19.9981 15.14 21.4961 13.642 21.4961 11.836C21.4961 9.96 20.2361 8.644 18.1921 8.644H16.9461V6.726H20.1521C20.3061 6.726 20.4321 6.6 20.4321 6.446V5.466C20.4321 5.326 20.3061 5.2 20.1521 5.2H15.6021C15.4341 5.2 15.3221 5.326 15.3221 5.466V9.722C15.3221 9.96 15.4761 10.226 15.7701 10.226H17.9961C19.1301 10.226 19.7321 10.954 19.7321 11.836C19.7321 12.746 19.0461 13.544 18.0661 13.544C17.1981 13.544 16.6101 13.068 16.2041 12.732C16.0921 12.634 15.9521 12.662 15.8541 12.746L15.1401 13.46C14.9581 13.628 14.9721 13.726 15.1681 13.95ZM22.489 11.164C22.489 13.334 23.665 15.14 25.919 15.14C27.697 15.14 29.181 13.656 29.181 11.836C29.181 9.778 27.683 8.714 26.241 8.714C25.569 8.714 24.841 8.966 24.603 9.12C25.051 7.524 27.095 6.628 27.767 6.418C28.047 6.334 28.103 6.166 28.033 5.998L27.697 5.144C27.641 4.962 27.501 4.892 27.291 4.948C26.059 5.354 22.489 6.95 22.489 11.164ZM25.905 13.53C24.743 13.53 24.225 12.368 24.225 11.374C24.379 10.856 24.939 10.114 25.891 10.114C26.815 10.114 27.557 10.842 27.557 11.808C27.557 12.83 26.815 13.53 25.905 13.53ZM30.116 13.866C30.438 14.23 31.32 15.14 33.112 15.14C35.1 15.14 36.43 13.964 36.43 12.326C36.43 11.052 35.464 10.282 34.694 9.988V9.932C35.338 9.638 36.178 8.952 36.178 7.706C36.178 6.082 34.778 5.06 33.098 5.06C31.712 5.06 30.816 5.802 30.396 6.334C30.298 6.446 30.27 6.614 30.396 6.712L31.096 7.37C31.222 7.482 31.39 7.468 31.488 7.356C31.726 7.062 32.188 6.67 32.944 6.67C33.672 6.67 34.344 7.202 34.344 7.986C34.344 8.728 33.742 9.302 32.552 9.302H31.74C31.572 9.302 31.474 9.4 31.474 9.596V10.506C31.474 10.674 31.586 10.786 31.74 10.786H32.552C33.854 10.786 34.54 11.346 34.54 12.27C34.54 13.012 33.896 13.572 33.014 13.572C32.132 13.572 31.628 13.18 31.236 12.788C31.124 12.676 30.998 12.676 30.872 12.788L30.13 13.502C30.046 13.6 30.032 13.754 30.116 13.866ZM42.1754 12.914V14.72C42.1754 14.874 42.3154 15 42.4554 15H43.6454C43.7994 15 43.9254 14.874 43.9254 14.72L43.9114 12.914H45.0594C45.2274 12.914 45.3394 12.774 45.3394 12.634V11.668C45.3394 11.528 45.2274 11.416 45.0594 11.416H43.9114V5.34C43.9114 5.186 43.7854 5.06 43.6314 5.06H42.9454C42.7634 5.06 42.6794 5.102 42.5814 5.214L37.6254 11.234C37.4994 11.374 37.4434 11.528 37.4434 11.724V12.634C37.4434 12.774 37.5694 12.914 37.7234 12.914H42.1754ZM39.3754 11.458V11.43L42.2034 7.972H42.2314V11.458H39.3754ZM47.556 15.056C47.612 15.238 47.752 15.322 47.962 15.252C49.194 14.86 52.764 13.25 52.764 9.036C52.764 6.88 51.588 5.06 49.334 5.06C47.556 5.06 46.072 6.544 46.072 8.364C46.072 10.422 47.57 11.5 49.012 11.5C49.684 11.5 50.412 11.234 50.65 11.094C50.216 12.676 48.158 13.572 47.486 13.782C47.206 13.88 47.15 14.034 47.22 14.202L47.556 15.056ZM49.362 10.086C48.438 10.086 47.696 9.316 47.696 8.392C47.696 7.482 48.438 6.684 49.348 6.684C50.51 6.684 51.028 7.846 51.028 8.826C50.874 9.344 50.314 10.086 49.362 10.086ZM55.2943 15.056C55.3503 15.238 55.4903 15.322 55.7003 15.252C56.9323 14.86 60.5023 13.25 60.5023 9.036C60.5023 6.88 59.3263 5.06 57.0723 5.06C55.2943 5.06 53.8103 6.544 53.8103 8.364C53.8103 10.422 55.3083 11.5 56.7503 11.5C57.4223 11.5 58.1503 11.234 58.3883 11.094C57.9543 12.676 55.8963 13.572 55.2243 13.782C54.9443 13.88 54.8883 14.034 54.9583 14.202L55.2943 15.056ZM57.1003 10.086C56.1763 10.086 55.4343 9.316 55.4343 8.392C55.4343 7.482 56.1763 6.684 57.0863 6.684C58.2483 6.684 58.7663 7.846 58.7663 8.826C58.6123 9.344 58.0523 10.086 57.1003 10.086ZM65.2726 15.14C67.5826 15.14 68.9126 13.25 68.9126 10.1C68.9126 6.936 67.5826 5.06 65.2726 5.06C62.9766 5.06 61.6466 6.936 61.6466 10.1C61.6466 13.25 62.9766 15.14 65.2726 15.14ZM65.2726 13.488C64.1666 13.488 63.4666 12.242 63.4666 10.1C63.4666 7.958 64.1666 6.726 65.2726 6.726C66.3926 6.726 67.0926 7.958 67.0926 10.1C67.0926 12.242 66.3926 13.488 65.2726 13.488ZM71.4541 7.818V14.72C71.4541 14.874 71.5661 15 71.7341 15H72.9661C73.1201 15 73.2321 14.874 73.2321 14.72V5.466C73.2321 5.326 73.1201 5.2 72.9661 5.2H72.2381C72.0421 5.2 71.8881 5.256 71.7481 5.382L69.9561 6.894C69.8301 6.992 69.8021 7.048 69.8161 7.202L69.9001 7.902C69.9141 8.042 70.0541 8.126 70.1941 8.098L71.4541 7.818Z" fill="#0D346B"/>
<path d="M223.1 17.992H223.114V25.72C223.114 25.874 223.24 26 223.394 26H223.912C224.052 26 224.178 25.874 224.178 25.72V16.466C224.178 16.326 224.052 16.2 223.912 16.2H223.66C223.562 16.2 223.492 16.228 223.422 16.298L221.504 18.16C221.434 18.23 221.378 18.356 221.476 18.468L221.756 18.776C221.854 18.888 221.966 18.874 222.078 18.79L223.1 17.992ZM226.197 24.866C226.519 25.216 227.331 26.14 229.095 26.14C231.097 26.14 232.301 24.95 232.301 23.312C232.301 22.024 231.251 21.296 230.565 21.016V20.974C231.223 20.666 232.063 19.798 232.063 18.692C232.063 17.068 230.831 16.06 229.081 16.06C227.513 16.06 226.477 17.334 226.477 17.334C226.379 17.432 226.365 17.614 226.477 17.712L226.827 17.978C226.967 18.118 227.107 18.048 227.191 17.95C227.513 17.586 228.101 17.012 229.081 17.012C230.117 17.012 230.971 17.698 230.971 18.832C230.971 19.784 230.229 20.582 228.689 20.582H227.891C227.653 20.582 227.583 20.666 227.583 20.89V21.24C227.583 21.478 227.709 21.562 227.863 21.562H228.675C230.453 21.562 231.223 22.346 231.223 23.424C231.223 24.6 230.243 25.244 229.151 25.244C227.905 25.244 227.121 24.418 226.995 24.25C226.883 24.096 226.771 24.068 226.603 24.18L226.211 24.516C226.099 24.6 226.113 24.754 226.197 24.866ZM233.872 25.65C233.816 25.846 233.942 26 234.124 26H234.446C234.544 26 234.67 25.916 234.698 25.818L237.428 16.55C237.484 16.354 237.372 16.2 237.176 16.2H236.868C236.756 16.2 236.644 16.284 236.616 16.382L233.872 25.65ZM242.523 26.14C244.763 26.14 246.037 24.25 246.037 21.1C246.037 17.936 244.763 16.06 242.523 16.06C240.297 16.06 239.023 17.936 239.023 21.1C239.023 24.25 240.297 26.14 242.523 26.14ZM242.523 25.16C240.941 25.16 240.115 23.732 240.115 21.1C240.115 18.482 240.941 17.04 242.523 17.04C244.119 17.04 244.945 18.482 244.945 21.1C244.945 23.732 244.119 25.16 242.523 25.16ZM247.471 23.354C247.471 24.922 248.633 26.14 250.691 26.14C252.805 26.14 253.953 24.922 253.953 23.354C253.953 22.108 252.889 21.24 252.217 20.96V20.904C252.861 20.61 253.701 19.784 253.701 18.678C253.701 17.082 252.441 16.06 250.705 16.06C248.983 16.06 247.723 17.082 247.723 18.678C247.723 19.784 248.563 20.61 249.207 20.904V20.96C248.535 21.24 247.471 22.108 247.471 23.354ZM250.719 20.442C249.375 20.316 248.801 19.616 248.801 18.72C248.801 17.642 249.613 16.928 250.719 16.928C251.797 16.928 252.637 17.642 252.637 18.72C252.637 19.616 252.035 20.316 250.719 20.442ZM248.549 23.452C248.549 22.556 249.333 21.66 250.719 21.52C252.077 21.66 252.875 22.556 252.875 23.452C252.875 24.586 251.979 25.286 250.691 25.286C249.389 25.286 248.549 24.558 248.549 23.452ZM255.514 25.65C255.458 25.846 255.584 26 255.766 26H256.088C256.186 26 256.312 25.916 256.34 25.818L259.07 16.55C259.126 16.354 259.014 16.2 258.818 16.2H258.51C258.398 16.2 258.286 16.284 258.258 16.382L255.514 25.65ZM262.108 25.062V25.034L264.852 22.108C265.846 21.044 266.658 20.106 266.658 18.832C266.658 17.362 265.608 16.06 263.535 16.06C261.828 16.06 260.806 17.474 260.806 17.474C260.708 17.586 260.736 17.754 260.82 17.852L261.1 18.132C261.226 18.244 261.38 18.244 261.492 18.132C261.94 17.656 262.654 17.04 263.535 17.04C265.034 17.04 265.566 18.034 265.566 18.86C265.566 19.546 265.09 20.4 264.11 21.478C262.976 22.668 261.87 23.9 260.75 25.104C260.568 25.3 260.568 25.37 260.568 25.524V25.72C260.568 25.874 260.68 26 260.848 26H266.322C266.476 26 266.602 25.874 266.602 25.72V25.342C266.602 25.188 266.476 25.062 266.322 25.062H262.108ZM271.671 26.14C273.911 26.14 275.185 24.25 275.185 21.1C275.185 17.936 273.911 16.06 271.671 16.06C269.445 16.06 268.171 17.936 268.171 21.1C268.171 24.25 269.445 26.14 271.671 26.14ZM271.671 25.16C270.089 25.16 269.263 23.732 269.263 21.1C269.263 18.482 270.089 17.04 271.671 17.04C273.267 17.04 274.093 18.482 274.093 21.1C274.093 23.732 273.267 25.16 271.671 25.16Z" fill="black"/>
<path d="M284 29C283.766 29.0005 283.54 28.9191 283.36 28.77C283.259 28.6861 283.175 28.583 283.114 28.4666C283.052 28.3503 283.015 28.223 283.003 28.092C282.99 27.961 283.004 27.8289 283.043 27.7033C283.082 27.5777 283.146 27.4611 283.23 27.36L287.71 22L283.39 16.63C283.307 16.5277 283.245 16.41 283.208 16.2837C283.17 16.1573 283.158 16.0248 283.172 15.8938C283.186 15.7628 283.226 15.6358 283.289 15.5202C283.352 15.4045 283.437 15.3025 283.54 15.22C283.644 15.129 283.765 15.0603 283.896 15.0183C284.027 14.9763 284.166 14.9619 284.303 14.976C284.44 14.9901 284.573 15.0324 284.693 15.1002C284.813 15.168 284.917 15.2598 285 15.37L289.83 21.37C289.977 21.5489 290.058 21.7734 290.058 22.005C290.058 22.2366 289.977 22.4611 289.83 22.64L284.83 28.64C284.73 28.761 284.602 28.8567 284.458 28.9192C284.314 28.9818 284.157 29.0095 284 29Z" fill="#0071CE"/>
<path d="M1.344 40.734C1.344 40.874 1.456 41 1.61 41H6.454C6.608 41 6.72 40.874 6.72 40.734V40.328C6.72 40.188 6.608 40.062 6.454 40.062H2.422V31.466C2.422 31.326 2.296 31.2 2.156 31.2H1.61C1.456 31.2 1.344 31.326 1.344 31.466V40.734ZM8.00997 40.692C8.00997 40.86 8.14997 41 8.31797 41H8.73797C8.89197 41 9.04597 40.86 9.04597 40.692V34.84C9.04597 34.686 8.89197 34.532 8.73797 34.532H8.31797C8.14997 34.532 8.00997 34.686 8.00997 34.84V40.692ZM8.49997 32.866C8.93397 32.866 9.26997 32.516 9.26997 32.11C9.26997 31.662 8.93397 31.326 8.49997 31.326C8.07997 31.326 7.74397 31.662 7.74397 32.11C7.74397 32.516 8.07997 32.866 8.49997 32.866ZM13.0425 41.154C14.3585 41.154 15.2405 40.328 15.2405 39.306C15.2405 38.13 14.2745 37.71 13.1545 37.192C12.3705 36.828 11.9225 36.618 11.9225 36.044C11.9225 35.736 12.1605 35.33 12.8745 35.33C13.4765 35.33 13.9245 35.54 14.2045 35.708C14.3445 35.792 14.5545 35.778 14.6525 35.596L14.7925 35.33C14.8905 35.148 14.8625 35.008 14.7225 34.896C14.4145 34.672 13.7145 34.392 12.8745 34.392C11.3765 34.392 10.8725 35.414 10.8725 36.086C10.8725 37.192 11.8525 37.654 12.7065 38.074C13.6445 38.536 14.1485 38.788 14.1485 39.404C14.1485 39.908 13.7005 40.216 13.0425 40.216C12.2165 40.216 11.6565 39.81 11.4325 39.642C11.2505 39.516 11.1385 39.572 11.0545 39.726L10.8585 40.09C10.8025 40.202 10.8305 40.3 10.9005 40.37C11.2365 40.678 11.9645 41.154 13.0425 41.154ZM17.344 35.428V39.25C17.344 40.258 17.988 41.154 19.122 41.154C19.78 41.154 20.34 40.93 20.648 40.762C20.816 40.664 20.844 40.552 20.76 40.342L20.648 40.062C20.592 39.908 20.494 39.782 20.242 39.936C19.976 40.09 19.64 40.216 19.248 40.216C18.8 40.216 18.38 39.922 18.38 39.25V35.428H20.284C20.466 35.428 20.606 35.288 20.606 35.12V34.84C20.606 34.658 20.466 34.532 20.284 34.532H18.38V32.712C18.38 32.544 18.254 32.39 18.086 32.404L17.652 32.432C17.498 32.446 17.344 32.572 17.344 32.74V34.532H16.49C16.294 34.532 16.168 34.658 16.168 34.84V35.12C16.168 35.288 16.294 35.428 16.49 35.428H17.344ZM21.8087 37.752C21.8087 39.6 23.2647 41.154 25.0567 41.154C26.8487 41.154 28.3047 39.6 28.3047 37.752C28.3047 35.932 26.8487 34.392 25.0567 34.392C23.2647 34.392 21.8087 35.932 21.8087 37.752ZM22.8307 37.752C22.8307 36.436 23.7827 35.33 25.0567 35.33C26.3307 35.33 27.2687 36.436 27.2687 37.752C27.2687 39.096 26.3307 40.216 25.0567 40.216C23.7827 40.216 22.8307 39.096 22.8307 37.752ZM34.448 40.622C34.448 40.622 35.162 41.154 36.24 41.154C38.018 41.154 39.292 39.656 39.292 37.766C39.292 35.918 38.046 34.392 36.282 34.392C35.414 34.392 34.728 34.742 34.322 35.064C34.252 34.714 34.028 34.476 33.678 34.476C33.524 34.476 33.426 34.574 33.426 34.728V44.024C33.426 44.192 33.566 44.332 33.734 44.332H34.14C34.294 44.332 34.448 44.192 34.448 44.024V40.622ZM34.448 36.114C34.448 36.114 35.12 35.33 36.156 35.33C37.458 35.33 38.242 36.492 38.242 37.752C38.242 39.166 37.332 40.216 36.086 40.216C35.19 40.216 34.448 39.656 34.448 39.656V36.114ZM40.5646 39.04C40.5646 40.342 41.4326 41.154 42.5666 41.154C43.5746 41.154 44.2606 40.65 44.5966 40.3C44.6386 40.734 44.8626 41.056 45.2826 41.056C45.4366 41.056 45.5346 40.958 45.5346 40.804V37.108C45.5346 35.372 44.7646 34.392 43.1126 34.392C42.2166 34.392 41.6286 34.672 41.3066 34.812C41.1526 34.882 41.0546 34.966 41.1106 35.162L41.2506 35.54C41.3066 35.694 41.3906 35.778 41.5586 35.708C41.8526 35.61 42.3426 35.33 43.0566 35.33C43.9806 35.33 44.5546 35.918 44.5406 37.108C44.5406 37.108 43.8406 36.898 43.1546 36.898C41.4886 36.898 40.5646 37.808 40.5646 39.04ZM41.5866 39.04C41.5866 38.214 42.2586 37.78 43.1546 37.78C43.7986 37.78 44.3166 37.92 44.5266 38.032V39.348C44.2466 39.768 43.5466 40.216 42.7486 40.216C42.0346 40.216 41.5866 39.698 41.5866 39.04ZM47.6584 40.692C47.6584 40.86 47.7984 41 47.9664 41H48.3864C48.5404 41 48.6944 40.86 48.6944 40.692V36.212C48.6944 36.212 49.1984 35.386 50.4444 35.386C50.7524 35.386 50.9904 35.498 51.1444 35.568C51.2984 35.638 51.4524 35.624 51.5224 35.414L51.7044 34.91C51.8584 34.462 51.0604 34.392 50.5704 34.392C49.5624 34.392 48.9324 34.84 48.5824 35.204C48.5404 34.784 48.3164 34.476 47.9104 34.476C47.7564 34.476 47.6584 34.574 47.6584 34.728V40.692ZM52.4864 39.04C52.4864 40.342 53.3544 41.154 54.4884 41.154C55.4964 41.154 56.1824 40.65 56.5184 40.3C56.5604 40.734 56.7844 41.056 57.2044 41.056C57.3584 41.056 57.4564 40.958 57.4564 40.804V37.108C57.4564 35.372 56.6864 34.392 55.0344 34.392C54.1384 34.392 53.5504 34.672 53.2284 34.812C53.0744 34.882 52.9764 34.966 53.0324 35.162L53.1724 35.54C53.2284 35.694 53.3124 35.778 53.4804 35.708C53.7744 35.61 54.2644 35.33 54.9784 35.33C55.9024 35.33 56.4764 35.918 56.4624 37.108C56.4624 37.108 55.7624 36.898 55.0764 36.898C53.4104 36.898 52.4864 37.808 52.4864 39.04ZM53.5084 39.04C53.5084 38.214 54.1804 37.78 55.0764 37.78C55.7204 37.78 56.2384 37.92 56.4484 38.032V39.348C56.1684 39.768 55.4684 40.216 54.6704 40.216C53.9564 40.216 53.5084 39.698 53.5084 39.04ZM62.5376 37.766C62.5376 39.614 63.7136 41.154 65.6736 41.154C66.7936 41.154 67.6476 40.72 68.0396 40.412C68.2776 40.23 68.2216 40.16 68.0956 39.964L67.9276 39.726C67.7596 39.474 67.6616 39.53 67.4376 39.684C67.0736 39.922 66.5416 40.216 65.6876 40.216C64.5116 40.216 63.6016 39.082 63.5736 38.004H68.2776C68.4176 38.004 68.5576 37.892 68.5716 37.724C68.5856 37.612 68.5996 37.444 68.5996 37.332C68.5996 35.638 67.3676 34.392 65.6736 34.392C63.7136 34.392 62.5376 35.946 62.5376 37.766ZM63.5876 37.178C63.7136 36.17 64.5816 35.33 65.6736 35.33C66.7796 35.33 67.5356 36.226 67.5636 37.178H63.5876ZM70.299 40.692C70.299 40.86 70.439 41 70.607 41H71.027C71.181 41 71.335 40.86 71.335 40.692V36.226C71.335 36.226 72.105 35.33 73.323 35.33C74.275 35.33 74.695 35.904 74.695 37.136V40.692C74.695 40.86 74.835 41 75.003 41H75.423C75.577 41 75.731 40.86 75.731 40.692V37.276C75.731 35.61 75.269 34.392 73.393 34.392C72.385 34.392 71.629 34.854 71.223 35.204C71.181 34.784 70.957 34.476 70.551 34.476C70.397 34.476 70.299 34.574 70.299 34.728V40.692ZM78.1975 35.428V39.25C78.1975 40.258 78.8415 41.154 79.9755 41.154C80.6335 41.154 81.1935 40.93 81.5015 40.762C81.6695 40.664 81.6975 40.552 81.6135 40.342L81.5015 40.062C81.4455 39.908 81.3475 39.782 81.0955 39.936C80.8295 40.09 80.4935 40.216 80.1015 40.216C79.6535 40.216 79.2335 39.922 79.2335 39.25V35.428H81.1375C81.3195 35.428 81.4595 35.288 81.4595 35.12V34.84C81.4595 34.658 81.3195 34.532 81.1375 34.532H79.2335V32.712C79.2335 32.544 79.1075 32.39 78.9395 32.404L78.5055 32.432C78.3515 32.446 78.1975 32.572 78.1975 32.74V34.532H77.3435C77.1475 34.532 77.0215 34.658 77.0215 34.84V35.12C77.0215 35.288 77.1475 35.428 77.3435 35.428H78.1975ZM83.0822 40.692C83.0822 40.86 83.2222 41 83.3902 41H83.8102C83.9642 41 84.1182 40.86 84.1182 40.692V36.212C84.1182 36.212 84.6222 35.386 85.8682 35.386C86.1762 35.386 86.4142 35.498 86.5682 35.568C86.7222 35.638 86.8762 35.624 86.9462 35.414L87.1282 34.91C87.2822 34.462 86.4842 34.392 85.9942 34.392C84.9862 34.392 84.3562 34.84 84.0062 35.204C83.9642 34.784 83.7402 34.476 83.3342 34.476C83.1802 34.476 83.0822 34.574 83.0822 34.728V40.692ZM87.8715 37.766C87.8715 39.614 89.0475 41.154 91.0075 41.154C92.1275 41.154 92.9815 40.72 93.3735 40.412C93.6115 40.23 93.5555 40.16 93.4295 39.964L93.2615 39.726C93.0935 39.474 92.9955 39.53 92.7715 39.684C92.4075 39.922 91.8755 40.216 91.0215 40.216C89.8455 40.216 88.9355 39.082 88.9075 38.004H93.6115C93.7515 38.004 93.8915 37.892 93.9055 37.724C93.9195 37.612 93.9335 37.444 93.9335 37.332C93.9335 35.638 92.7015 34.392 91.0075 34.392C89.0475 34.392 87.8715 35.946 87.8715 37.766ZM88.9215 37.178C89.0475 36.17 89.9155 35.33 91.0075 35.33C92.1135 35.33 92.8695 36.226 92.8975 37.178H88.9215ZM101.107 34.728C101.107 34.574 101.009 34.476 100.855 34.476C100.491 34.476 100.281 34.714 100.197 35.064C99.805 34.756 99.091 34.392 98.251 34.392C96.487 34.392 95.227 35.918 95.227 37.766C95.227 39.656 96.515 41.154 98.293 41.154C99.357 41.154 100.085 40.58 100.085 40.58V41.042C100.085 42.554 99.301 43.114 98.279 43.114C97.565 43.114 97.005 42.722 96.655 42.428C96.501 42.288 96.333 42.288 96.235 42.442L95.955 42.848C95.885 42.946 95.913 43.128 96.025 43.226C96.361 43.534 97.257 44.066 98.279 44.066C99.749 44.066 101.107 43.254 101.107 41.042V34.728ZM96.277 37.752C96.277 36.492 97.075 35.344 98.363 35.344C99.413 35.344 100.071 36.128 100.071 36.128V39.67C100.071 39.67 99.329 40.202 98.433 40.202C97.201 40.202 96.277 39.152 96.277 37.752ZM102.785 39.04C102.785 40.342 103.653 41.154 104.787 41.154C105.795 41.154 106.481 40.65 106.817 40.3C106.859 40.734 107.083 41.056 107.503 41.056C107.657 41.056 107.755 40.958 107.755 40.804V37.108C107.755 35.372 106.985 34.392 105.333 34.392C104.437 34.392 103.849 34.672 103.527 34.812C103.373 34.882 103.275 34.966 103.331 35.162L103.471 35.54C103.527 35.694 103.611 35.778 103.779 35.708C104.073 35.61 104.563 35.33 105.277 35.33C106.201 35.33 106.775 35.918 106.761 37.108C106.761 37.108 106.061 36.898 105.375 36.898C103.709 36.898 102.785 37.808 102.785 39.04ZM103.807 39.04C103.807 38.214 104.479 37.78 105.375 37.78C106.019 37.78 106.537 37.92 106.747 38.032V39.348C106.467 39.768 105.767 40.216 104.969 40.216C104.255 40.216 103.807 39.698 103.807 39.04ZM109.879 40.692C109.879 40.86 110.019 41 110.187 41H110.607C110.761 41 110.915 40.86 110.915 40.692V36.212C110.915 36.212 111.419 35.386 112.665 35.386C112.973 35.386 113.211 35.498 113.365 35.568C113.519 35.638 113.673 35.624 113.743 35.414L113.925 34.91C114.079 34.462 113.281 34.392 112.791 34.392C111.783 34.392 111.153 34.84 110.803 35.204C110.761 34.784 110.537 34.476 110.131 34.476C109.977 34.476 109.879 34.574 109.879 34.728V40.692Z" fill="black"/>
</svg>
