<svg width="298" height="45" viewBox="0 0 298 45" fill="none" xmlns="http://www.w3.org/2000/svg">
<path d="M0.588 12.382C0.588 13.95 1.918 15.14 3.976 15.14C6.104 15.14 7.434 13.95 7.434 12.382C7.434 11.136 6.552 10.338 5.684 9.974V9.904C6.342 9.596 7.168 8.798 7.168 7.706C7.168 6.096 5.782 5.06 3.976 5.06C2.24 5.06 0.854 6.096 0.854 7.706C0.854 8.826 1.652 9.624 2.338 9.918V9.974C1.526 10.338 0.588 11.122 0.588 12.382ZM4.018 9.134C3.108 8.91 2.702 8.42 2.702 7.776C2.702 7.09 3.22 6.544 3.976 6.544C4.788 6.544 5.32 7.09 5.32 7.776C5.32 8.392 4.9 8.924 4.018 9.134ZM2.506 12.34C2.506 11.696 3.052 11.038 4.018 10.814C4.984 11.038 5.516 11.696 5.516 12.34C5.516 13.138 4.914 13.67 4.018 13.67C3.108 13.67 2.506 13.138 2.506 12.34ZM8.55739 11.164C8.55739 13.334 9.73339 15.14 11.9874 15.14C13.7654 15.14 15.2494 13.656 15.2494 11.836C15.2494 9.778 13.7514 8.714 12.3094 8.714C11.6374 8.714 10.9094 8.966 10.6714 9.12C11.1194 7.524 13.1634 6.628 13.8354 6.418C14.1154 6.334 14.1714 6.166 14.1014 5.998L13.7654 5.144C13.7094 4.962 13.5694 4.892 13.3594 4.948C12.1274 5.354 8.55739 6.95 8.55739 11.164ZM11.9734 13.53C10.8114 13.53 10.2934 12.368 10.2934 11.374C10.4474 10.856 11.0074 10.114 11.9594 10.114C12.8834 10.114 13.6254 10.842 13.6254 11.808C13.6254 12.83 12.8834 13.53 11.9734 13.53ZM16.5763 13.95C16.9263 14.384 17.8643 15.14 19.4183 15.14C21.4063 15.14 22.9043 13.642 22.9043 11.836C22.9043 9.96 21.6443 8.644 19.6003 8.644H18.3543V6.726H21.5603C21.7143 6.726 21.8403 6.6 21.8403 6.446V5.466C21.8403 5.326 21.7143 5.2 21.5603 5.2H17.0103C16.8423 5.2 16.7303 5.326 16.7303 5.466V9.722C16.7303 9.96 16.8843 10.226 17.1783 10.226H19.4043C20.5383 10.226 21.1403 10.954 21.1403 11.836C21.1403 12.746 20.4543 13.544 19.4743 13.544C18.6063 13.544 18.0183 13.068 17.6123 12.732C17.5003 12.634 17.3603 12.662 17.2623 12.746L16.5483 13.46C16.3663 13.628 16.3803 13.726 16.5763 13.95ZM24.0685 13.95C24.4185 14.384 25.3565 15.14 26.9105 15.14C28.8985 15.14 30.3965 13.642 30.3965 11.836C30.3965 9.96 29.1365 8.644 27.0925 8.644H25.8465V6.726H29.0525C29.2065 6.726 29.3325 6.6 29.3325 6.446V5.466C29.3325 5.326 29.2065 5.2 29.0525 5.2H24.5025C24.3345 5.2 24.2225 5.326 24.2225 5.466V9.722C24.2225 9.96 24.3765 10.226 24.6705 10.226H26.8965C28.0305 10.226 28.6325 10.954 28.6325 11.836C28.6325 12.746 27.9465 13.544 26.9665 13.544C26.0985 13.544 25.5105 13.068 25.1045 12.732C24.9925 12.634 24.8525 12.662 24.7545 12.746L24.0405 13.46C23.8585 13.628 23.8725 13.726 24.0685 13.95ZM34.1754 13.46V13.432C34.9314 12.466 36.0234 11.122 36.6254 10.254C37.1854 9.442 37.5914 8.868 37.5914 7.93C37.5914 6.376 36.4434 5.06 34.3714 5.06C32.6634 5.06 31.5294 6.474 31.5294 6.474C31.4314 6.586 31.4594 6.768 31.5434 6.852L32.2434 7.538C32.3554 7.664 32.5094 7.664 32.6354 7.538C32.9574 7.188 33.5594 6.698 34.2454 6.698C35.2814 6.698 35.7714 7.356 35.7714 8C35.7714 8.49 35.4914 9.05 35.0434 9.596C34.1194 10.814 32.3974 13.054 31.4174 14.258C31.3754 14.314 31.3054 14.426 31.3054 14.58V14.72C31.3054 14.874 31.4174 15 31.5714 15H37.2554C37.4094 15 37.5354 14.874 37.5354 14.72V13.726C37.5354 13.586 37.4094 13.46 37.2554 13.46H34.1754ZM38.7703 13.866C39.0923 14.23 39.9743 15.14 41.7663 15.14C43.7543 15.14 45.0843 13.964 45.0843 12.326C45.0843 11.052 44.1183 10.282 43.3483 9.988V9.932C43.9923 9.638 44.8323 8.952 44.8323 7.706C44.8323 6.082 43.4323 5.06 41.7523 5.06C40.3663 5.06 39.4703 5.802 39.0503 6.334C38.9523 6.446 38.9243 6.614 39.0503 6.712L39.7503 7.37C39.8763 7.482 40.0443 7.468 40.1423 7.356C40.3803 7.062 40.8423 6.67 41.5983 6.67C42.3263 6.67 42.9983 7.202 42.9983 7.986C42.9983 8.728 42.3963 9.302 41.2063 9.302H40.3943C40.2263 9.302 40.1283 9.4 40.1283 9.596V10.506C40.1283 10.674 40.2403 10.786 40.3943 10.786H41.2063C42.5083 10.786 43.1943 11.346 43.1943 12.27C43.1943 13.012 42.5503 13.572 41.6683 13.572C40.7863 13.572 40.2823 13.18 39.8903 12.788C39.7783 12.676 39.6523 12.676 39.5263 12.788L38.7843 13.502C38.7003 13.6 38.6863 13.754 38.7703 13.866ZM50.8297 12.914V14.72C50.8297 14.874 50.9697 15 51.1097 15H52.2997C52.4537 15 52.5797 14.874 52.5797 14.72L52.5657 12.914H53.7137C53.8817 12.914 53.9937 12.774 53.9937 12.634V11.668C53.9937 11.528 53.8817 11.416 53.7137 11.416H52.5657V5.34C52.5657 5.186 52.4397 5.06 52.2857 5.06H51.5997C51.4177 5.06 51.3337 5.102 51.2357 5.214L46.2797 11.234C46.1537 11.374 46.0977 11.528 46.0977 11.724V12.634C46.0977 12.774 46.2237 12.914 46.3777 12.914H50.8297ZM48.0297 11.458V11.43L50.8577 7.972H50.8857V11.458H48.0297ZM55.3498 13.95C55.6998 14.384 56.6378 15.14 58.1918 15.14C60.1798 15.14 61.6778 13.642 61.6778 11.836C61.6778 9.96 60.4178 8.644 58.3738 8.644H57.1278V6.726H60.3338C60.4878 6.726 60.6138 6.6 60.6138 6.446V5.466C60.6138 5.326 60.4878 5.2 60.3338 5.2H55.7838C55.6158 5.2 55.5038 5.326 55.5038 5.466V9.722C55.5038 9.96 55.6578 10.226 55.9518 10.226H58.1778C59.3118 10.226 59.9138 10.954 59.9138 11.836C59.9138 12.746 59.2278 13.544 58.2478 13.544C57.3798 13.544 56.7918 13.068 56.3858 12.732C56.2738 12.634 56.1338 12.662 56.0358 12.746L55.3218 13.46C55.1398 13.628 55.1538 13.726 55.3498 13.95ZM62.842 13.95C63.192 14.384 64.13 15.14 65.684 15.14C67.672 15.14 69.17 13.642 69.17 11.836C69.17 9.96 67.91 8.644 65.866 8.644H64.62V6.726H67.826C67.98 6.726 68.106 6.6 68.106 6.446V5.466C68.106 5.326 67.98 5.2 67.826 5.2H63.276C63.108 5.2 62.996 5.326 62.996 5.466V9.722C62.996 9.96 63.15 10.226 63.444 10.226H65.67C66.804 10.226 67.406 10.954 67.406 11.836C67.406 12.746 66.72 13.544 65.74 13.544C64.872 13.544 64.284 13.068 63.878 12.732C63.766 12.634 63.626 12.662 63.528 12.746L62.814 13.46C62.632 13.628 62.646 13.726 62.842 13.95ZM73.9338 6.754V6.782L70.2798 14.426C70.2238 14.538 70.2098 14.608 70.2098 14.72C70.2098 14.958 70.3918 15 70.5598 15H71.6378C71.8758 15 72.0158 14.846 72.1278 14.608L76.3698 5.676C76.4258 5.564 76.4258 5.522 76.4258 5.466C76.4258 5.326 76.2858 5.2 76.1458 5.2H70.1398C69.9998 5.2 69.8738 5.326 69.8738 5.466V6.474C69.8738 6.628 69.9998 6.754 70.1398 6.754H73.9338Z" fill="#0D346B"/>
<path d="M223.1 17.992H223.114V25.72C223.114 25.874 223.24 26 223.394 26H223.912C224.052 26 224.178 25.874 224.178 25.72V16.466C224.178 16.326 224.052 16.2 223.912 16.2H223.66C223.562 16.2 223.492 16.228 223.422 16.298L221.504 18.16C221.434 18.23 221.378 18.356 221.476 18.468L221.756 18.776C221.854 18.888 221.966 18.874 222.078 18.79L223.1 17.992ZM226.463 24.95C226.827 25.384 227.639 26.14 229.249 26.14C231.195 26.14 232.595 24.642 232.595 22.836C232.595 20.96 231.433 19.812 229.263 19.812H227.583V17.166H231.251C231.405 17.166 231.531 17.026 231.531 16.886V16.466C231.531 16.326 231.405 16.2 231.251 16.2H226.897C226.743 16.2 226.617 16.326 226.617 16.466V20.274C226.617 20.512 226.785 20.778 227.065 20.778H229.263C230.803 20.778 231.531 21.73 231.531 22.85C231.531 23.998 230.649 25.216 229.263 25.216C228.031 25.216 227.429 24.516 227.121 24.152C227.009 23.998 226.897 24.026 226.771 24.138C226.645 24.236 226.547 24.362 226.435 24.46C226.267 24.628 226.281 24.726 226.463 24.95ZM234.022 25.65C233.966 25.846 234.092 26 234.274 26H234.596C234.694 26 234.82 25.916 234.848 25.818L237.578 16.55C237.634 16.354 237.522 16.2 237.326 16.2H237.018C236.906 16.2 236.794 16.284 236.766 16.382L234.022 25.65ZM242.673 26.14C244.913 26.14 246.187 24.25 246.187 21.1C246.187 17.936 244.913 16.06 242.673 16.06C240.447 16.06 239.173 17.936 239.173 21.1C239.173 24.25 240.447 26.14 242.673 26.14ZM242.673 25.16C241.091 25.16 240.265 23.732 240.265 21.1C240.265 18.482 241.091 17.04 242.673 17.04C244.269 17.04 245.095 18.482 245.095 21.1C245.095 23.732 244.269 25.16 242.673 25.16ZM248.868 26.098C248.924 26.224 249.05 26.308 249.19 26.252C250.646 25.664 253.936 24.012 253.936 20.176C253.936 17.88 252.914 16.06 250.576 16.06C248.84 16.06 247.384 17.544 247.384 19.364C247.384 21.282 248.854 22.5 250.492 22.5C251.724 22.5 252.676 21.842 252.676 21.842C252.172 23.788 249.61 25.09 248.952 25.314C248.686 25.398 248.63 25.552 248.7 25.72L248.868 26.098ZM250.59 21.562C249.372 21.562 248.406 20.554 248.406 19.308C248.406 18.062 249.358 17.012 250.576 17.012C252.256 17.012 252.914 18.594 252.914 19.952C252.914 20.19 252.9 20.414 252.858 20.624C252.858 20.624 251.934 21.562 250.59 21.562ZM255.405 25.65C255.349 25.846 255.475 26 255.657 26H255.979C256.077 26 256.203 25.916 256.231 25.818L258.961 16.55C259.017 16.354 258.905 16.2 258.709 16.2H258.401C258.289 16.2 258.177 16.284 258.149 16.382L255.405 25.65ZM261.998 25.062V25.034L264.742 22.108C265.736 21.044 266.548 20.106 266.548 18.832C266.548 17.362 265.498 16.06 263.426 16.06C261.718 16.06 260.696 17.474 260.696 17.474C260.598 17.586 260.626 17.754 260.71 17.852L260.99 18.132C261.116 18.244 261.27 18.244 261.382 18.132C261.83 17.656 262.544 17.04 263.426 17.04C264.924 17.04 265.456 18.034 265.456 18.86C265.456 19.546 264.98 20.4 264 21.478C262.866 22.668 261.76 23.9 260.64 25.104C260.458 25.3 260.458 25.37 260.458 25.524V25.72C260.458 25.874 260.57 26 260.738 26H266.212C266.366 26 266.492 25.874 266.492 25.72V25.342C266.492 25.188 266.366 25.062 266.212 25.062H261.998ZM271.562 26.14C273.802 26.14 275.076 24.25 275.076 21.1C275.076 17.936 273.802 16.06 271.562 16.06C269.336 16.06 268.062 17.936 268.062 21.1C268.062 24.25 269.336 26.14 271.562 26.14ZM271.562 25.16C269.98 25.16 269.154 23.732 269.154 21.1C269.154 18.482 269.98 17.04 271.562 17.04C273.158 17.04 273.984 18.482 273.984 21.1C273.984 23.732 273.158 25.16 271.562 25.16Z" fill="black"/>
<path d="M284 29C283.766 29.0005 283.54 28.9191 283.36 28.77C283.259 28.6861 283.175 28.583 283.114 28.4666C283.052 28.3503 283.015 28.223 283.003 28.092C282.99 27.961 283.004 27.8289 283.043 27.7033C283.082 27.5777 283.146 27.4611 283.23 27.36L287.71 22L283.39 16.63C283.307 16.5277 283.245 16.41 283.208 16.2837C283.17 16.1573 283.158 16.0248 283.172 15.8938C283.186 15.7628 283.226 15.6358 283.289 15.5202C283.352 15.4045 283.437 15.3025 283.54 15.22C283.644 15.129 283.765 15.0603 283.896 15.0183C284.027 14.9763 284.166 14.9619 284.303 14.976C284.44 14.9901 284.573 15.0324 284.693 15.1002C284.813 15.168 284.917 15.2598 285 15.37L289.83 21.37C289.977 21.5489 290.058 21.7734 290.058 22.005C290.058 22.2366 289.977 22.4611 289.83 22.64L284.83 28.64C284.73 28.761 284.602 28.8567 284.458 28.9192C284.314 28.9818 284.157 29.0095 284 29Z" fill="#0071CE"/>
<path d="M1.344 40.734C1.344 40.874 1.456 41 1.61 41H6.454C6.608 41 6.72 40.874 6.72 40.734V40.328C6.72 40.188 6.608 40.062 6.454 40.062H2.422V31.466C2.422 31.326 2.296 31.2 2.156 31.2H1.61C1.456 31.2 1.344 31.326 1.344 31.466V40.734ZM8.00997 40.692C8.00997 40.86 8.14997 41 8.31797 41H8.73797C8.89197 41 9.04597 40.86 9.04597 40.692V34.84C9.04597 34.686 8.89197 34.532 8.73797 34.532H8.31797C8.14997 34.532 8.00997 34.686 8.00997 34.84V40.692ZM8.49997 32.866C8.93397 32.866 9.26997 32.516 9.26997 32.11C9.26997 31.662 8.93397 31.326 8.49997 31.326C8.07997 31.326 7.74397 31.662 7.74397 32.11C7.74397 32.516 8.07997 32.866 8.49997 32.866ZM13.0425 41.154C14.3585 41.154 15.2405 40.328 15.2405 39.306C15.2405 38.13 14.2745 37.71 13.1545 37.192C12.3705 36.828 11.9225 36.618 11.9225 36.044C11.9225 35.736 12.1605 35.33 12.8745 35.33C13.4765 35.33 13.9245 35.54 14.2045 35.708C14.3445 35.792 14.5545 35.778 14.6525 35.596L14.7925 35.33C14.8905 35.148 14.8625 35.008 14.7225 34.896C14.4145 34.672 13.7145 34.392 12.8745 34.392C11.3765 34.392 10.8725 35.414 10.8725 36.086C10.8725 37.192 11.8525 37.654 12.7065 38.074C13.6445 38.536 14.1485 38.788 14.1485 39.404C14.1485 39.908 13.7005 40.216 13.0425 40.216C12.2165 40.216 11.6565 39.81 11.4325 39.642C11.2505 39.516 11.1385 39.572 11.0545 39.726L10.8585 40.09C10.8025 40.202 10.8305 40.3 10.9005 40.37C11.2365 40.678 11.9645 41.154 13.0425 41.154ZM17.344 35.428V39.25C17.344 40.258 17.988 41.154 19.122 41.154C19.78 41.154 20.34 40.93 20.648 40.762C20.816 40.664 20.844 40.552 20.76 40.342L20.648 40.062C20.592 39.908 20.494 39.782 20.242 39.936C19.976 40.09 19.64 40.216 19.248 40.216C18.8 40.216 18.38 39.922 18.38 39.25V35.428H20.284C20.466 35.428 20.606 35.288 20.606 35.12V34.84C20.606 34.658 20.466 34.532 20.284 34.532H18.38V32.712C18.38 32.544 18.254 32.39 18.086 32.404L17.652 32.432C17.498 32.446 17.344 32.572 17.344 32.74V34.532H16.49C16.294 34.532 16.168 34.658 16.168 34.84V35.12C16.168 35.288 16.294 35.428 16.49 35.428H17.344ZM21.8087 37.752C21.8087 39.6 23.2647 41.154 25.0567 41.154C26.8487 41.154 28.3047 39.6 28.3047 37.752C28.3047 35.932 26.8487 34.392 25.0567 34.392C23.2647 34.392 21.8087 35.932 21.8087 37.752ZM22.8307 37.752C22.8307 36.436 23.7827 35.33 25.0567 35.33C26.3307 35.33 27.2687 36.436 27.2687 37.752C27.2687 39.096 26.3307 40.216 25.0567 40.216C23.7827 40.216 22.8307 39.096 22.8307 37.752ZM34.448 40.622C34.448 40.622 35.162 41.154 36.24 41.154C38.018 41.154 39.292 39.656 39.292 37.766C39.292 35.918 38.046 34.392 36.282 34.392C35.414 34.392 34.728 34.742 34.322 35.064C34.252 34.714 34.028 34.476 33.678 34.476C33.524 34.476 33.426 34.574 33.426 34.728V44.024C33.426 44.192 33.566 44.332 33.734 44.332H34.14C34.294 44.332 34.448 44.192 34.448 44.024V40.622ZM34.448 36.114C34.448 36.114 35.12 35.33 36.156 35.33C37.458 35.33 38.242 36.492 38.242 37.752C38.242 39.166 37.332 40.216 36.086 40.216C35.19 40.216 34.448 39.656 34.448 39.656V36.114ZM40.5646 39.04C40.5646 40.342 41.4326 41.154 42.5666 41.154C43.5746 41.154 44.2606 40.65 44.5966 40.3C44.6386 40.734 44.8626 41.056 45.2826 41.056C45.4366 41.056 45.5346 40.958 45.5346 40.804V37.108C45.5346 35.372 44.7646 34.392 43.1126 34.392C42.2166 34.392 41.6286 34.672 41.3066 34.812C41.1526 34.882 41.0546 34.966 41.1106 35.162L41.2506 35.54C41.3066 35.694 41.3906 35.778 41.5586 35.708C41.8526 35.61 42.3426 35.33 43.0566 35.33C43.9806 35.33 44.5546 35.918 44.5406 37.108C44.5406 37.108 43.8406 36.898 43.1546 36.898C41.4886 36.898 40.5646 37.808 40.5646 39.04ZM41.5866 39.04C41.5866 38.214 42.2586 37.78 43.1546 37.78C43.7986 37.78 44.3166 37.92 44.5266 38.032V39.348C44.2466 39.768 43.5466 40.216 42.7486 40.216C42.0346 40.216 41.5866 39.698 41.5866 39.04ZM47.6584 40.692C47.6584 40.86 47.7984 41 47.9664 41H48.3864C48.5404 41 48.6944 40.86 48.6944 40.692V36.212C48.6944 36.212 49.1984 35.386 50.4444 35.386C50.7524 35.386 50.9904 35.498 51.1444 35.568C51.2984 35.638 51.4524 35.624 51.5224 35.414L51.7044 34.91C51.8584 34.462 51.0604 34.392 50.5704 34.392C49.5624 34.392 48.9324 34.84 48.5824 35.204C48.5404 34.784 48.3164 34.476 47.9104 34.476C47.7564 34.476 47.6584 34.574 47.6584 34.728V40.692ZM52.4864 39.04C52.4864 40.342 53.3544 41.154 54.4884 41.154C55.4964 41.154 56.1824 40.65 56.5184 40.3C56.5604 40.734 56.7844 41.056 57.2044 41.056C57.3584 41.056 57.4564 40.958 57.4564 40.804V37.108C57.4564 35.372 56.6864 34.392 55.0344 34.392C54.1384 34.392 53.5504 34.672 53.2284 34.812C53.0744 34.882 52.9764 34.966 53.0324 35.162L53.1724 35.54C53.2284 35.694 53.3124 35.778 53.4804 35.708C53.7744 35.61 54.2644 35.33 54.9784 35.33C55.9024 35.33 56.4764 35.918 56.4624 37.108C56.4624 37.108 55.7624 36.898 55.0764 36.898C53.4104 36.898 52.4864 37.808 52.4864 39.04ZM53.5084 39.04C53.5084 38.214 54.1804 37.78 55.0764 37.78C55.7204 37.78 56.2384 37.92 56.4484 38.032V39.348C56.1684 39.768 55.4684 40.216 54.6704 40.216C53.9564 40.216 53.5084 39.698 53.5084 39.04ZM62.5376 37.766C62.5376 39.614 63.7136 41.154 65.6736 41.154C66.7936 41.154 67.6476 40.72 68.0396 40.412C68.2776 40.23 68.2216 40.16 68.0956 39.964L67.9276 39.726C67.7596 39.474 67.6616 39.53 67.4376 39.684C67.0736 39.922 66.5416 40.216 65.6876 40.216C64.5116 40.216 63.6016 39.082 63.5736 38.004H68.2776C68.4176 38.004 68.5576 37.892 68.5716 37.724C68.5856 37.612 68.5996 37.444 68.5996 37.332C68.5996 35.638 67.3676 34.392 65.6736 34.392C63.7136 34.392 62.5376 35.946 62.5376 37.766ZM63.5876 37.178C63.7136 36.17 64.5816 35.33 65.6736 35.33C66.7796 35.33 67.5356 36.226 67.5636 37.178H63.5876ZM70.299 40.692C70.299 40.86 70.439 41 70.607 41H71.027C71.181 41 71.335 40.86 71.335 40.692V36.226C71.335 36.226 72.105 35.33 73.323 35.33C74.275 35.33 74.695 35.904 74.695 37.136V40.692C74.695 40.86 74.835 41 75.003 41H75.423C75.577 41 75.731 40.86 75.731 40.692V37.276C75.731 35.61 75.269 34.392 73.393 34.392C72.385 34.392 71.629 34.854 71.223 35.204C71.181 34.784 70.957 34.476 70.551 34.476C70.397 34.476 70.299 34.574 70.299 34.728V40.692ZM78.1975 35.428V39.25C78.1975 40.258 78.8415 41.154 79.9755 41.154C80.6335 41.154 81.1935 40.93 81.5015 40.762C81.6695 40.664 81.6975 40.552 81.6135 40.342L81.5015 40.062C81.4455 39.908 81.3475 39.782 81.0955 39.936C80.8295 40.09 80.4935 40.216 80.1015 40.216C79.6535 40.216 79.2335 39.922 79.2335 39.25V35.428H81.1375C81.3195 35.428 81.4595 35.288 81.4595 35.12V34.84C81.4595 34.658 81.3195 34.532 81.1375 34.532H79.2335V32.712C79.2335 32.544 79.1075 32.39 78.9395 32.404L78.5055 32.432C78.3515 32.446 78.1975 32.572 78.1975 32.74V34.532H77.3435C77.1475 34.532 77.0215 34.658 77.0215 34.84V35.12C77.0215 35.288 77.1475 35.428 77.3435 35.428H78.1975ZM83.0822 40.692C83.0822 40.86 83.2222 41 83.3902 41H83.8102C83.9642 41 84.1182 40.86 84.1182 40.692V36.212C84.1182 36.212 84.6222 35.386 85.8682 35.386C86.1762 35.386 86.4142 35.498 86.5682 35.568C86.7222 35.638 86.8762 35.624 86.9462 35.414L87.1282 34.91C87.2822 34.462 86.4842 34.392 85.9942 34.392C84.9862 34.392 84.3562 34.84 84.0062 35.204C83.9642 34.784 83.7402 34.476 83.3342 34.476C83.1802 34.476 83.0822 34.574 83.0822 34.728V40.692ZM87.8715 37.766C87.8715 39.614 89.0475 41.154 91.0075 41.154C92.1275 41.154 92.9815 40.72 93.3735 40.412C93.6115 40.23 93.5555 40.16 93.4295 39.964L93.2615 39.726C93.0935 39.474 92.9955 39.53 92.7715 39.684C92.4075 39.922 91.8755 40.216 91.0215 40.216C89.8455 40.216 88.9355 39.082 88.9075 38.004H93.6115C93.7515 38.004 93.8915 37.892 93.9055 37.724C93.9195 37.612 93.9335 37.444 93.9335 37.332C93.9335 35.638 92.7015 34.392 91.0075 34.392C89.0475 34.392 87.8715 35.946 87.8715 37.766ZM88.9215 37.178C89.0475 36.17 89.9155 35.33 91.0075 35.33C92.1135 35.33 92.8695 36.226 92.8975 37.178H88.9215ZM101.107 34.728C101.107 34.574 101.009 34.476 100.855 34.476C100.491 34.476 100.281 34.714 100.197 35.064C99.805 34.756 99.091 34.392 98.251 34.392C96.487 34.392 95.227 35.918 95.227 37.766C95.227 39.656 96.515 41.154 98.293 41.154C99.357 41.154 100.085 40.58 100.085 40.58V41.042C100.085 42.554 99.301 43.114 98.279 43.114C97.565 43.114 97.005 42.722 96.655 42.428C96.501 42.288 96.333 42.288 96.235 42.442L95.955 42.848C95.885 42.946 95.913 43.128 96.025 43.226C96.361 43.534 97.257 44.066 98.279 44.066C99.749 44.066 101.107 43.254 101.107 41.042V34.728ZM96.277 37.752C96.277 36.492 97.075 35.344 98.363 35.344C99.413 35.344 100.071 36.128 100.071 36.128V39.67C100.071 39.67 99.329 40.202 98.433 40.202C97.201 40.202 96.277 39.152 96.277 37.752ZM102.785 39.04C102.785 40.342 103.653 41.154 104.787 41.154C105.795 41.154 106.481 40.65 106.817 40.3C106.859 40.734 107.083 41.056 107.503 41.056C107.657 41.056 107.755 40.958 107.755 40.804V37.108C107.755 35.372 106.985 34.392 105.333 34.392C104.437 34.392 103.849 34.672 103.527 34.812C103.373 34.882 103.275 34.966 103.331 35.162L103.471 35.54C103.527 35.694 103.611 35.778 103.779 35.708C104.073 35.61 104.563 35.33 105.277 35.33C106.201 35.33 106.775 35.918 106.761 37.108C106.761 37.108 106.061 36.898 105.375 36.898C103.709 36.898 102.785 37.808 102.785 39.04ZM103.807 39.04C103.807 38.214 104.479 37.78 105.375 37.78C106.019 37.78 106.537 37.92 106.747 38.032V39.348C106.467 39.768 105.767 40.216 104.969 40.216C104.255 40.216 103.807 39.698 103.807 39.04ZM109.879 40.692C109.879 40.86 110.019 41 110.187 41H110.607C110.761 41 110.915 40.86 110.915 40.692V36.212C110.915 36.212 111.419 35.386 112.665 35.386C112.973 35.386 113.211 35.498 113.365 35.568C113.519 35.638 113.673 35.624 113.743 35.414L113.925 34.91C114.079 34.462 113.281 34.392 112.791 34.392C111.783 34.392 111.153 34.84 110.803 35.204C110.761 34.784 110.537 34.476 110.131 34.476C109.977 34.476 109.879 34.574 109.879 34.728V40.692Z" fill="black"/>
</svg>
