<svg width="298" height="45" viewBox="0 0 298 45" fill="none" xmlns="http://www.w3.org/2000/svg">
<path d="M4.508 6.754V6.782L0.854 14.426C0.798 14.538 0.784 14.608 0.784 14.72C0.784 14.958 0.966 15 1.134 15H2.212C2.45 15 2.59 14.846 2.702 14.608L6.944 5.676C7 5.564 7 5.522 7 5.466C7 5.326 6.86 5.2 6.72 5.2H0.714C0.574 5.2 0.448 5.326 0.448 5.466V6.474C0.448 6.628 0.574 6.754 0.714 6.754H4.508ZM8.974 15.056C9.03 15.238 9.17 15.322 9.38 15.252C10.612 14.86 14.182 13.25 14.182 9.036C14.182 6.88 13.006 5.06 10.752 5.06C8.974 5.06 7.49 6.544 7.49 8.364C7.49 10.422 8.988 11.5 10.43 11.5C11.102 11.5 11.83 11.234 12.068 11.094C11.634 12.676 9.576 13.572 8.904 13.782C8.624 13.88 8.568 14.034 8.638 14.202L8.974 15.056ZM10.78 10.086C9.856 10.086 9.114 9.316 9.114 8.392C9.114 7.482 9.856 6.684 10.766 6.684C11.928 6.684 12.446 7.846 12.446 8.826C12.292 9.344 11.732 10.086 10.78 10.086ZM15.0496 13.866C15.3716 14.23 16.2536 15.14 18.0456 15.14C20.0336 15.14 21.3636 13.964 21.3636 12.326C21.3636 11.052 20.3976 10.282 19.6276 9.988V9.932C20.2716 9.638 21.1116 8.952 21.1116 7.706C21.1116 6.082 19.7116 5.06 18.0316 5.06C16.6456 5.06 15.7496 5.802 15.3296 6.334C15.2316 6.446 15.2036 6.614 15.3296 6.712L16.0296 7.37C16.1556 7.482 16.3236 7.468 16.4216 7.356C16.6596 7.062 17.1216 6.67 17.8776 6.67C18.6056 6.67 19.2776 7.202 19.2776 7.986C19.2776 8.728 18.6756 9.302 17.4856 9.302H16.6736C16.5056 9.302 16.4076 9.4 16.4076 9.596V10.506C16.4076 10.674 16.5196 10.786 16.6736 10.786H17.4856C18.7876 10.786 19.4736 11.346 19.4736 12.27C19.4736 13.012 18.8296 13.572 17.9476 13.572C17.0656 13.572 16.5616 13.18 16.1696 12.788C16.0576 12.676 15.9316 12.676 15.8056 12.788L15.0636 13.502C14.9796 13.6 14.9656 13.754 15.0496 13.866ZM27.109 12.914V14.72C27.109 14.874 27.249 15 27.389 15H28.579C28.733 15 28.859 14.874 28.859 14.72L28.845 12.914H29.993C30.161 12.914 30.273 12.774 30.273 12.634V11.668C30.273 11.528 30.161 11.416 29.993 11.416H28.845V5.34C28.845 5.186 28.719 5.06 28.565 5.06H27.879C27.697 5.06 27.613 5.102 27.515 5.214L22.559 11.234C22.433 11.374 22.377 11.528 22.377 11.724V12.634C22.377 12.774 22.503 12.914 22.657 12.914H27.109ZM24.309 11.458V11.43L27.137 7.972H27.165V11.458H24.309ZM35.9411 12.914V14.72C35.9411 14.874 36.0811 15 36.2211 15H37.4111C37.5651 15 37.6911 14.874 37.6911 14.72L37.6771 12.914H38.8251C38.9931 12.914 39.1051 12.774 39.1051 12.634V11.668C39.1051 11.528 38.9931 11.416 38.8251 11.416H37.6771V5.34C37.6771 5.186 37.5511 5.06 37.3971 5.06H36.7111C36.5291 5.06 36.4451 5.102 36.3471 5.214L31.3911 11.234C31.2651 11.374 31.2091 11.528 31.2091 11.724V12.634C31.2091 12.774 31.3351 12.914 31.4891 12.914H35.9411ZM33.1411 11.458V11.43L35.9691 7.972H35.9971V11.458H33.1411ZM42.9391 13.46V13.432C43.6951 12.466 44.7871 11.122 45.3891 10.254C45.9491 9.442 46.3551 8.868 46.3551 7.93C46.3551 6.376 45.2071 5.06 43.1351 5.06C41.4271 5.06 40.2931 6.474 40.2931 6.474C40.1951 6.586 40.2231 6.768 40.3071 6.852L41.0071 7.538C41.1191 7.664 41.2731 7.664 41.3991 7.538C41.7211 7.188 42.3231 6.698 43.0091 6.698C44.0451 6.698 44.5351 7.356 44.5351 8C44.5351 8.49 44.2551 9.05 43.8071 9.596C42.8831 10.814 41.1611 13.054 40.1811 14.258C40.1391 14.314 40.0691 14.426 40.0691 14.58V14.72C40.0691 14.874 40.1811 15 40.3351 15H46.0191C46.1731 15 46.2991 14.874 46.2991 14.72V13.726C46.2991 13.586 46.1731 13.46 46.0191 13.46H42.9391ZM47.9259 13.95C48.2759 14.384 49.2139 15.14 50.7679 15.14C52.7559 15.14 54.2539 13.642 54.2539 11.836C54.2539 9.96 52.9939 8.644 50.9499 8.644H49.7039V6.726H52.9099C53.0639 6.726 53.1899 6.6 53.1899 6.446V5.466C53.1899 5.326 53.0639 5.2 52.9099 5.2H48.3599C48.1919 5.2 48.0799 5.326 48.0799 5.466V9.722C48.0799 9.96 48.2339 10.226 48.5279 10.226H50.7539C51.8879 10.226 52.4899 10.954 52.4899 11.836C52.4899 12.746 51.8039 13.544 50.8239 13.544C49.9559 13.544 49.3679 13.068 48.9619 12.732C48.8499 12.634 48.7099 12.662 48.6119 12.746L47.8979 13.46C47.7159 13.628 47.7299 13.726 47.9259 13.95ZM55.2468 11.164C55.2468 13.334 56.4228 15.14 58.6768 15.14C60.4548 15.14 61.9388 13.656 61.9388 11.836C61.9388 9.778 60.4408 8.714 58.9988 8.714C58.3268 8.714 57.5988 8.966 57.3608 9.12C57.8088 7.524 59.8528 6.628 60.5248 6.418C60.8048 6.334 60.8608 6.166 60.7908 5.998L60.4548 5.144C60.3988 4.962 60.2588 4.892 60.0488 4.948C58.8168 5.354 55.2468 6.95 55.2468 11.164ZM58.6628 13.53C57.5008 13.53 56.9828 12.368 56.9828 11.374C57.1368 10.856 57.6968 10.114 58.6488 10.114C59.5728 10.114 60.3148 10.842 60.3148 11.808C60.3148 12.83 59.5728 13.53 58.6628 13.53ZM63.0138 12.382C63.0138 13.95 64.3438 15.14 66.4018 15.14C68.5298 15.14 69.8598 13.95 69.8598 12.382C69.8598 11.136 68.9778 10.338 68.1098 9.974V9.904C68.7678 9.596 69.5938 8.798 69.5938 7.706C69.5938 6.096 68.2078 5.06 66.4018 5.06C64.6658 5.06 63.2798 6.096 63.2798 7.706C63.2798 8.826 64.0778 9.624 64.7638 9.918V9.974C63.9518 10.338 63.0138 11.122 63.0138 12.382ZM66.4438 9.134C65.5338 8.91 65.1278 8.42 65.1278 7.776C65.1278 7.09 65.6458 6.544 66.4018 6.544C67.2138 6.544 67.7458 7.09 67.7458 7.776C67.7458 8.392 67.3258 8.924 66.4438 9.134ZM64.9318 12.34C64.9318 11.696 65.4778 11.038 66.4438 10.814C67.4098 11.038 67.9418 11.696 67.9418 12.34C67.9418 13.138 67.3398 13.67 66.4438 13.67C65.5338 13.67 64.9318 13.138 64.9318 12.34ZM74.6652 15.14C76.9752 15.14 78.3052 13.25 78.3052 10.1C78.3052 6.936 76.9752 5.06 74.6652 5.06C72.3692 5.06 71.0392 6.936 71.0392 10.1C71.0392 13.25 72.3692 15.14 74.6652 15.14ZM74.6652 13.488C73.5592 13.488 72.8592 12.242 72.8592 10.1C72.8592 7.958 73.5592 6.726 74.6652 6.726C75.7852 6.726 76.4852 7.958 76.4852 10.1C76.4852 12.242 75.7852 13.488 74.6652 13.488Z" fill="#0D346B"/>
<path d="M225.228 26.14C227.468 26.14 228.742 24.25 228.742 21.1C228.742 17.936 227.468 16.06 225.228 16.06C223.002 16.06 221.728 17.936 221.728 21.1C221.728 24.25 223.002 26.14 225.228 26.14ZM225.228 25.16C223.646 25.16 222.82 23.732 222.82 21.1C222.82 18.482 223.646 17.04 225.228 17.04C226.824 17.04 227.65 18.482 227.65 21.1C227.65 23.732 226.824 25.16 225.228 25.16ZM231.577 17.992H231.591V25.72C231.591 25.874 231.717 26 231.871 26H232.389C232.529 26 232.655 25.874 232.655 25.72V16.466C232.655 16.326 232.529 16.2 232.389 16.2H232.137C232.039 16.2 231.969 16.228 231.899 16.298L229.981 18.16C229.911 18.23 229.855 18.356 229.953 18.468L230.233 18.776C230.331 18.888 230.443 18.874 230.555 18.79L231.577 17.992ZM234.856 25.65C234.8 25.846 234.926 26 235.108 26H235.43C235.528 26 235.654 25.916 235.682 25.818L238.412 16.55C238.468 16.354 238.356 16.2 238.16 16.2H237.852C237.74 16.2 237.628 16.284 237.6 16.382L234.856 25.65ZM243.507 26.14C245.747 26.14 247.021 24.25 247.021 21.1C247.021 17.936 245.747 16.06 243.507 16.06C241.281 16.06 240.007 17.936 240.007 21.1C240.007 24.25 241.281 26.14 243.507 26.14ZM243.507 25.16C241.925 25.16 241.099 23.732 241.099 21.1C241.099 18.482 241.925 17.04 243.507 17.04C245.103 17.04 245.929 18.482 245.929 21.1C245.929 23.732 245.103 25.16 243.507 25.16ZM249.702 26.098C249.758 26.224 249.884 26.308 250.024 26.252C251.48 25.664 254.77 24.012 254.77 20.176C254.77 17.88 253.748 16.06 251.41 16.06C249.674 16.06 248.218 17.544 248.218 19.364C248.218 21.282 249.688 22.5 251.326 22.5C252.558 22.5 253.51 21.842 253.51 21.842C253.006 23.788 250.444 25.09 249.786 25.314C249.52 25.398 249.464 25.552 249.534 25.72L249.702 26.098ZM251.424 21.562C250.206 21.562 249.24 20.554 249.24 19.308C249.24 18.062 250.192 17.012 251.41 17.012C253.09 17.012 253.748 18.594 253.748 19.952C253.748 20.19 253.734 20.414 253.692 20.624C253.692 20.624 252.768 21.562 251.424 21.562ZM256.239 25.65C256.183 25.846 256.309 26 256.491 26H256.813C256.911 26 257.037 25.916 257.065 25.818L259.795 16.55C259.851 16.354 259.739 16.2 259.543 16.2H259.235C259.123 16.2 259.011 16.284 258.983 16.382L256.239 25.65ZM262.832 25.062V25.034L265.576 22.108C266.57 21.044 267.382 20.106 267.382 18.832C267.382 17.362 266.332 16.06 264.26 16.06C262.552 16.06 261.53 17.474 261.53 17.474C261.432 17.586 261.46 17.754 261.544 17.852L261.824 18.132C261.95 18.244 262.104 18.244 262.216 18.132C262.664 17.656 263.378 17.04 264.26 17.04C265.758 17.04 266.29 18.034 266.29 18.86C266.29 19.546 265.814 20.4 264.834 21.478C263.7 22.668 262.594 23.9 261.474 25.104C261.292 25.3 261.292 25.37 261.292 25.524V25.72C261.292 25.874 261.404 26 261.572 26H267.046C267.2 26 267.326 25.874 267.326 25.72V25.342C267.326 25.188 267.2 25.062 267.046 25.062H262.832ZM272.396 26.14C274.636 26.14 275.91 24.25 275.91 21.1C275.91 17.936 274.636 16.06 272.396 16.06C270.17 16.06 268.896 17.936 268.896 21.1C268.896 24.25 270.17 26.14 272.396 26.14ZM272.396 25.16C270.814 25.16 269.988 23.732 269.988 21.1C269.988 18.482 270.814 17.04 272.396 17.04C273.992 17.04 274.818 18.482 274.818 21.1C274.818 23.732 273.992 25.16 272.396 25.16Z" fill="black"/>
<path d="M284 29C283.766 29.0005 283.54 28.9191 283.36 28.77C283.259 28.6861 283.175 28.5829 283.114 28.4666C283.052 28.3503 283.015 28.2229 283.003 28.092C282.99 27.961 283.004 27.8289 283.043 27.7033C283.082 27.5777 283.146 27.461 283.23 27.36L287.71 22L283.39 16.63C283.307 16.5277 283.245 16.41 283.208 16.2837C283.17 16.1573 283.158 16.0248 283.172 15.8938C283.186 15.7628 283.226 15.6358 283.289 15.5202C283.352 15.4045 283.437 15.3025 283.54 15.22C283.644 15.129 283.765 15.0603 283.896 15.0183C284.027 14.9763 284.166 14.9619 284.303 14.976C284.44 14.9901 284.573 15.0324 284.693 15.1002C284.813 15.168 284.917 15.2598 285 15.37L289.83 21.37C289.977 21.5489 290.058 21.7734 290.058 22.005C290.058 22.2366 289.977 22.4611 289.83 22.64L284.83 28.64C284.73 28.761 284.602 28.8567 284.458 28.9192C284.314 28.9818 284.157 29.0095 284 29Z" fill="#0071CE"/>
<path d="M1.344 40.734C1.344 40.874 1.456 41 1.61 41H6.454C6.608 41 6.72 40.874 6.72 40.734V40.328C6.72 40.188 6.608 40.062 6.454 40.062H2.422V31.466C2.422 31.326 2.296 31.2 2.156 31.2H1.61C1.456 31.2 1.344 31.326 1.344 31.466V40.734ZM8.00997 40.692C8.00997 40.86 8.14997 41 8.31797 41H8.73797C8.89197 41 9.04597 40.86 9.04597 40.692V34.84C9.04597 34.686 8.89197 34.532 8.73797 34.532H8.31797C8.14997 34.532 8.00997 34.686 8.00997 34.84V40.692ZM8.49997 32.866C8.93397 32.866 9.26997 32.516 9.26997 32.11C9.26997 31.662 8.93397 31.326 8.49997 31.326C8.07997 31.326 7.74397 31.662 7.74397 32.11C7.74397 32.516 8.07997 32.866 8.49997 32.866ZM13.0425 41.154C14.3585 41.154 15.2405 40.328 15.2405 39.306C15.2405 38.13 14.2745 37.71 13.1545 37.192C12.3705 36.828 11.9225 36.618 11.9225 36.044C11.9225 35.736 12.1605 35.33 12.8745 35.33C13.4765 35.33 13.9245 35.54 14.2045 35.708C14.3445 35.792 14.5545 35.778 14.6525 35.596L14.7925 35.33C14.8905 35.148 14.8625 35.008 14.7225 34.896C14.4145 34.672 13.7145 34.392 12.8745 34.392C11.3765 34.392 10.8725 35.414 10.8725 36.086C10.8725 37.192 11.8525 37.654 12.7065 38.074C13.6445 38.536 14.1485 38.788 14.1485 39.404C14.1485 39.908 13.7005 40.216 13.0425 40.216C12.2165 40.216 11.6565 39.81 11.4325 39.642C11.2505 39.516 11.1385 39.572 11.0545 39.726L10.8585 40.09C10.8025 40.202 10.8305 40.3 10.9005 40.37C11.2365 40.678 11.9645 41.154 13.0425 41.154ZM17.344 35.428V39.25C17.344 40.258 17.988 41.154 19.122 41.154C19.78 41.154 20.34 40.93 20.648 40.762C20.816 40.664 20.844 40.552 20.76 40.342L20.648 40.062C20.592 39.908 20.494 39.782 20.242 39.936C19.976 40.09 19.64 40.216 19.248 40.216C18.8 40.216 18.38 39.922 18.38 39.25V35.428H20.284C20.466 35.428 20.606 35.288 20.606 35.12V34.84C20.606 34.658 20.466 34.532 20.284 34.532H18.38V32.712C18.38 32.544 18.254 32.39 18.086 32.404L17.652 32.432C17.498 32.446 17.344 32.572 17.344 32.74V34.532H16.49C16.294 34.532 16.168 34.658 16.168 34.84V35.12C16.168 35.288 16.294 35.428 16.49 35.428H17.344ZM21.8087 37.752C21.8087 39.6 23.2647 41.154 25.0567 41.154C26.8487 41.154 28.3047 39.6 28.3047 37.752C28.3047 35.932 26.8487 34.392 25.0567 34.392C23.2647 34.392 21.8087 35.932 21.8087 37.752ZM22.8307 37.752C22.8307 36.436 23.7827 35.33 25.0567 35.33C26.3307 35.33 27.2687 36.436 27.2687 37.752C27.2687 39.096 26.3307 40.216 25.0567 40.216C23.7827 40.216 22.8307 39.096 22.8307 37.752ZM34.448 40.622C34.448 40.622 35.162 41.154 36.24 41.154C38.018 41.154 39.292 39.656 39.292 37.766C39.292 35.918 38.046 34.392 36.282 34.392C35.414 34.392 34.728 34.742 34.322 35.064C34.252 34.714 34.028 34.476 33.678 34.476C33.524 34.476 33.426 34.574 33.426 34.728V44.024C33.426 44.192 33.566 44.332 33.734 44.332H34.14C34.294 44.332 34.448 44.192 34.448 44.024V40.622ZM34.448 36.114C34.448 36.114 35.12 35.33 36.156 35.33C37.458 35.33 38.242 36.492 38.242 37.752C38.242 39.166 37.332 40.216 36.086 40.216C35.19 40.216 34.448 39.656 34.448 39.656V36.114ZM40.5646 39.04C40.5646 40.342 41.4326 41.154 42.5666 41.154C43.5746 41.154 44.2606 40.65 44.5966 40.3C44.6386 40.734 44.8626 41.056 45.2826 41.056C45.4366 41.056 45.5346 40.958 45.5346 40.804V37.108C45.5346 35.372 44.7646 34.392 43.1126 34.392C42.2166 34.392 41.6286 34.672 41.3066 34.812C41.1526 34.882 41.0546 34.966 41.1106 35.162L41.2506 35.54C41.3066 35.694 41.3906 35.778 41.5586 35.708C41.8526 35.61 42.3426 35.33 43.0566 35.33C43.9806 35.33 44.5546 35.918 44.5406 37.108C44.5406 37.108 43.8406 36.898 43.1546 36.898C41.4886 36.898 40.5646 37.808 40.5646 39.04ZM41.5866 39.04C41.5866 38.214 42.2586 37.78 43.1546 37.78C43.7986 37.78 44.3166 37.92 44.5266 38.032V39.348C44.2466 39.768 43.5466 40.216 42.7486 40.216C42.0346 40.216 41.5866 39.698 41.5866 39.04ZM47.6584 40.692C47.6584 40.86 47.7984 41 47.9664 41H48.3864C48.5404 41 48.6944 40.86 48.6944 40.692V36.212C48.6944 36.212 49.1984 35.386 50.4444 35.386C50.7524 35.386 50.9904 35.498 51.1444 35.568C51.2984 35.638 51.4524 35.624 51.5224 35.414L51.7044 34.91C51.8584 34.462 51.0604 34.392 50.5704 34.392C49.5624 34.392 48.9324 34.84 48.5824 35.204C48.5404 34.784 48.3164 34.476 47.9104 34.476C47.7564 34.476 47.6584 34.574 47.6584 34.728V40.692ZM52.4864 39.04C52.4864 40.342 53.3544 41.154 54.4884 41.154C55.4964 41.154 56.1824 40.65 56.5184 40.3C56.5604 40.734 56.7844 41.056 57.2044 41.056C57.3584 41.056 57.4564 40.958 57.4564 40.804V37.108C57.4564 35.372 56.6864 34.392 55.0344 34.392C54.1384 34.392 53.5504 34.672 53.2284 34.812C53.0744 34.882 52.9764 34.966 53.0324 35.162L53.1724 35.54C53.2284 35.694 53.3124 35.778 53.4804 35.708C53.7744 35.61 54.2644 35.33 54.9784 35.33C55.9024 35.33 56.4764 35.918 56.4624 37.108C56.4624 37.108 55.7624 36.898 55.0764 36.898C53.4104 36.898 52.4864 37.808 52.4864 39.04ZM53.5084 39.04C53.5084 38.214 54.1804 37.78 55.0764 37.78C55.7204 37.78 56.2384 37.92 56.4484 38.032V39.348C56.1684 39.768 55.4684 40.216 54.6704 40.216C53.9564 40.216 53.5084 39.698 53.5084 39.04ZM62.5376 37.766C62.5376 39.614 63.7136 41.154 65.6736 41.154C66.7936 41.154 67.6476 40.72 68.0396 40.412C68.2776 40.23 68.2216 40.16 68.0956 39.964L67.9276 39.726C67.7596 39.474 67.6616 39.53 67.4376 39.684C67.0736 39.922 66.5416 40.216 65.6876 40.216C64.5116 40.216 63.6016 39.082 63.5736 38.004H68.2776C68.4176 38.004 68.5576 37.892 68.5716 37.724C68.5856 37.612 68.5996 37.444 68.5996 37.332C68.5996 35.638 67.3676 34.392 65.6736 34.392C63.7136 34.392 62.5376 35.946 62.5376 37.766ZM63.5876 37.178C63.7136 36.17 64.5816 35.33 65.6736 35.33C66.7796 35.33 67.5356 36.226 67.5636 37.178H63.5876ZM70.299 40.692C70.299 40.86 70.439 41 70.607 41H71.027C71.181 41 71.335 40.86 71.335 40.692V36.226C71.335 36.226 72.105 35.33 73.323 35.33C74.275 35.33 74.695 35.904 74.695 37.136V40.692C74.695 40.86 74.835 41 75.003 41H75.423C75.577 41 75.731 40.86 75.731 40.692V37.276C75.731 35.61 75.269 34.392 73.393 34.392C72.385 34.392 71.629 34.854 71.223 35.204C71.181 34.784 70.957 34.476 70.551 34.476C70.397 34.476 70.299 34.574 70.299 34.728V40.692ZM78.1975 35.428V39.25C78.1975 40.258 78.8415 41.154 79.9755 41.154C80.6335 41.154 81.1935 40.93 81.5015 40.762C81.6695 40.664 81.6975 40.552 81.6135 40.342L81.5015 40.062C81.4455 39.908 81.3475 39.782 81.0955 39.936C80.8295 40.09 80.4935 40.216 80.1015 40.216C79.6535 40.216 79.2335 39.922 79.2335 39.25V35.428H81.1375C81.3195 35.428 81.4595 35.288 81.4595 35.12V34.84C81.4595 34.658 81.3195 34.532 81.1375 34.532H79.2335V32.712C79.2335 32.544 79.1075 32.39 78.9395 32.404L78.5055 32.432C78.3515 32.446 78.1975 32.572 78.1975 32.74V34.532H77.3435C77.1475 34.532 77.0215 34.658 77.0215 34.84V35.12C77.0215 35.288 77.1475 35.428 77.3435 35.428H78.1975ZM83.0822 40.692C83.0822 40.86 83.2222 41 83.3902 41H83.8102C83.9642 41 84.1182 40.86 84.1182 40.692V36.212C84.1182 36.212 84.6222 35.386 85.8682 35.386C86.1762 35.386 86.4142 35.498 86.5682 35.568C86.7222 35.638 86.8762 35.624 86.9462 35.414L87.1282 34.91C87.2822 34.462 86.4842 34.392 85.9942 34.392C84.9862 34.392 84.3562 34.84 84.0062 35.204C83.9642 34.784 83.7402 34.476 83.3342 34.476C83.1802 34.476 83.0822 34.574 83.0822 34.728V40.692ZM87.8715 37.766C87.8715 39.614 89.0475 41.154 91.0075 41.154C92.1275 41.154 92.9815 40.72 93.3735 40.412C93.6115 40.23 93.5555 40.16 93.4295 39.964L93.2615 39.726C93.0935 39.474 92.9955 39.53 92.7715 39.684C92.4075 39.922 91.8755 40.216 91.0215 40.216C89.8455 40.216 88.9355 39.082 88.9075 38.004H93.6115C93.7515 38.004 93.8915 37.892 93.9055 37.724C93.9195 37.612 93.9335 37.444 93.9335 37.332C93.9335 35.638 92.7015 34.392 91.0075 34.392C89.0475 34.392 87.8715 35.946 87.8715 37.766ZM88.9215 37.178C89.0475 36.17 89.9155 35.33 91.0075 35.33C92.1135 35.33 92.8695 36.226 92.8975 37.178H88.9215ZM101.107 34.728C101.107 34.574 101.009 34.476 100.855 34.476C100.491 34.476 100.281 34.714 100.197 35.064C99.805 34.756 99.091 34.392 98.251 34.392C96.487 34.392 95.227 35.918 95.227 37.766C95.227 39.656 96.515 41.154 98.293 41.154C99.357 41.154 100.085 40.58 100.085 40.58V41.042C100.085 42.554 99.301 43.114 98.279 43.114C97.565 43.114 97.005 42.722 96.655 42.428C96.501 42.288 96.333 42.288 96.235 42.442L95.955 42.848C95.885 42.946 95.913 43.128 96.025 43.226C96.361 43.534 97.257 44.066 98.279 44.066C99.749 44.066 101.107 43.254 101.107 41.042V34.728ZM96.277 37.752C96.277 36.492 97.075 35.344 98.363 35.344C99.413 35.344 100.071 36.128 100.071 36.128V39.67C100.071 39.67 99.329 40.202 98.433 40.202C97.201 40.202 96.277 39.152 96.277 37.752ZM102.785 39.04C102.785 40.342 103.653 41.154 104.787 41.154C105.795 41.154 106.481 40.65 106.817 40.3C106.859 40.734 107.083 41.056 107.503 41.056C107.657 41.056 107.755 40.958 107.755 40.804V37.108C107.755 35.372 106.985 34.392 105.333 34.392C104.437 34.392 103.849 34.672 103.527 34.812C103.373 34.882 103.275 34.966 103.331 35.162L103.471 35.54C103.527 35.694 103.611 35.778 103.779 35.708C104.073 35.61 104.563 35.33 105.277 35.33C106.201 35.33 106.775 35.918 106.761 37.108C106.761 37.108 106.061 36.898 105.375 36.898C103.709 36.898 102.785 37.808 102.785 39.04ZM103.807 39.04C103.807 38.214 104.479 37.78 105.375 37.78C106.019 37.78 106.537 37.92 106.747 38.032V39.348C106.467 39.768 105.767 40.216 104.969 40.216C104.255 40.216 103.807 39.698 103.807 39.04ZM109.879 40.692C109.879 40.86 110.019 41 110.187 41H110.607C110.761 41 110.915 40.86 110.915 40.692V36.212C110.915 36.212 111.419 35.386 112.665 35.386C112.973 35.386 113.211 35.498 113.365 35.568C113.519 35.638 113.673 35.624 113.743 35.414L113.925 34.91C114.079 34.462 113.281 34.392 112.791 34.392C111.783 34.392 111.153 34.84 110.803 35.204C110.761 34.784 110.537 34.476 110.131 34.476C109.977 34.476 109.879 34.574 109.879 34.728V40.692Z" fill="black"/>
</svg>
