<svg width="298" height="45" viewBox="0 0 298 45" fill="none" xmlns="http://www.w3.org/2000/svg">
<path d="M0.588 12.382C0.588 13.95 1.918 15.14 3.976 15.14C6.104 15.14 7.434 13.95 7.434 12.382C7.434 11.136 6.552 10.338 5.684 9.974V9.904C6.342 9.596 7.168 8.798 7.168 7.706C7.168 6.096 5.782 5.06 3.976 5.06C2.24 5.06 0.854 6.096 0.854 7.706C0.854 8.826 1.652 9.624 2.338 9.918V9.974C1.526 10.338 0.588 11.122 0.588 12.382ZM4.018 9.134C3.108 8.91 2.702 8.42 2.702 7.776C2.702 7.09 3.22 6.544 3.976 6.544C4.788 6.544 5.32 7.09 5.32 7.776C5.32 8.392 4.9 8.924 4.018 9.134ZM2.506 12.34C2.506 11.696 3.052 11.038 4.018 10.814C4.984 11.038 5.516 11.696 5.516 12.34C5.516 13.138 4.914 13.67 4.018 13.67C3.108 13.67 2.506 13.138 2.506 12.34ZM8.61339 12.382C8.61339 13.95 9.94339 15.14 12.0014 15.14C14.1294 15.14 15.4594 13.95 15.4594 12.382C15.4594 11.136 14.5774 10.338 13.7094 9.974V9.904C14.3674 9.596 15.1934 8.798 15.1934 7.706C15.1934 6.096 13.8074 5.06 12.0014 5.06C10.2654 5.06 8.87939 6.096 8.87939 7.706C8.87939 8.826 9.67739 9.624 10.3634 9.918V9.974C9.55139 10.338 8.61339 11.122 8.61339 12.382ZM12.0434 9.134C11.1334 8.91 10.7274 8.42 10.7274 7.776C10.7274 7.09 11.2454 6.544 12.0014 6.544C12.8134 6.544 13.3454 7.09 13.3454 7.776C13.3454 8.392 12.9254 8.924 12.0434 9.134ZM10.5314 12.34C10.5314 11.696 11.0774 11.038 12.0434 10.814C13.0094 11.038 13.5414 11.696 13.5414 12.34C13.5414 13.138 12.9394 13.67 12.0434 13.67C11.1334 13.67 10.5314 13.138 10.5314 12.34ZM17.8881 15.056C17.9441 15.238 18.0841 15.322 18.2941 15.252C19.5261 14.86 23.0961 13.25 23.0961 9.036C23.0961 6.88 21.9201 5.06 19.6661 5.06C17.8881 5.06 16.4041 6.544 16.4041 8.364C16.4041 10.422 17.9021 11.5 19.3441 11.5C20.0161 11.5 20.7441 11.234 20.9821 11.094C20.5481 12.676 18.4901 13.572 17.8181 13.782C17.5381 13.88 17.4821 14.034 17.5521 14.202L17.8881 15.056ZM19.6941 10.086C18.7701 10.086 18.0281 9.316 18.0281 8.392C18.0281 7.482 18.7701 6.684 19.6801 6.684C20.8421 6.684 21.3601 7.846 21.3601 8.826C21.2061 9.344 20.6461 10.086 19.6941 10.086ZM24.1843 11.164C24.1843 13.334 25.3603 15.14 27.6143 15.14C29.3923 15.14 30.8763 13.656 30.8763 11.836C30.8763 9.778 29.3783 8.714 27.9363 8.714C27.2643 8.714 26.5363 8.966 26.2983 9.12C26.7463 7.524 28.7903 6.628 29.4623 6.418C29.7423 6.334 29.7983 6.166 29.7283 5.998L29.3923 5.144C29.3363 4.962 29.1963 4.892 28.9863 4.948C27.7543 5.354 24.1843 6.95 24.1843 11.164ZM27.6003 13.53C26.4383 13.53 25.9203 12.368 25.9203 11.374C26.0743 10.856 26.6343 10.114 27.5863 10.114C28.5103 10.114 29.2523 10.842 29.2523 11.808C29.2523 12.83 28.5103 13.53 27.6003 13.53ZM31.8113 13.866C32.1333 14.23 33.0153 15.14 34.8073 15.14C36.7953 15.14 38.1253 13.964 38.1253 12.326C38.1253 11.052 37.1593 10.282 36.3893 9.988V9.932C37.0333 9.638 37.8733 8.952 37.8733 7.706C37.8733 6.082 36.4733 5.06 34.7933 5.06C33.4073 5.06 32.5113 5.802 32.0913 6.334C31.9933 6.446 31.9653 6.614 32.0913 6.712L32.7913 7.37C32.9173 7.482 33.0853 7.468 33.1833 7.356C33.4213 7.062 33.8833 6.67 34.6393 6.67C35.3673 6.67 36.0393 7.202 36.0393 7.986C36.0393 8.728 35.4373 9.302 34.2473 9.302H33.4353C33.2673 9.302 33.1693 9.4 33.1693 9.596V10.506C33.1693 10.674 33.2813 10.786 33.4353 10.786H34.2473C35.5493 10.786 36.2353 11.346 36.2353 12.27C36.2353 13.012 35.5913 13.572 34.7093 13.572C33.8273 13.572 33.3233 13.18 32.9313 12.788C32.8193 12.676 32.6933 12.676 32.5673 12.788L31.8253 13.502C31.7413 13.6 31.7273 13.754 31.8113 13.866ZM43.8708 12.914V14.72C43.8708 14.874 44.0108 15 44.1508 15H45.3408C45.4948 15 45.6208 14.874 45.6208 14.72L45.6068 12.914H46.7548C46.9228 12.914 47.0348 12.774 47.0348 12.634V11.668C47.0348 11.528 46.9228 11.416 46.7548 11.416H45.6068V5.34C45.6068 5.186 45.4808 5.06 45.3268 5.06H44.6408C44.4588 5.06 44.3748 5.102 44.2768 5.214L39.3208 11.234C39.1948 11.374 39.1388 11.528 39.1388 11.724V12.634C39.1388 12.774 39.2648 12.914 39.4188 12.914H43.8708ZM41.0708 11.458V11.43L43.8988 7.972H43.9268V11.458H41.0708ZM48.0828 11.164C48.0828 13.334 49.2588 15.14 51.5128 15.14C53.2908 15.14 54.7748 13.656 54.7748 11.836C54.7748 9.778 53.2768 8.714 51.8348 8.714C51.1628 8.714 50.4348 8.966 50.1968 9.12C50.6448 7.524 52.6888 6.628 53.3608 6.418C53.6408 6.334 53.6968 6.166 53.6268 5.998L53.2908 5.144C53.2348 4.962 53.0948 4.892 52.8848 4.948C51.6528 5.354 48.0828 6.95 48.0828 11.164ZM51.4988 13.53C50.3368 13.53 49.8188 12.368 49.8188 11.374C49.9728 10.856 50.5328 10.114 51.4848 10.114C52.4088 10.114 53.1508 10.842 53.1508 11.808C53.1508 12.83 52.4088 13.53 51.4988 13.53ZM56.1017 13.95C56.4517 14.384 57.3897 15.14 58.9437 15.14C60.9317 15.14 62.4297 13.642 62.4297 11.836C62.4297 9.96 61.1697 8.644 59.1257 8.644H57.8797V6.726H61.0857C61.2397 6.726 61.3657 6.6 61.3657 6.446V5.466C61.3657 5.326 61.2397 5.2 61.0857 5.2H56.5357C56.3677 5.2 56.2557 5.326 56.2557 5.466V9.722C56.2557 9.96 56.4097 10.226 56.7037 10.226H58.9297C60.0637 10.226 60.6657 10.954 60.6657 11.836C60.6657 12.746 59.9797 13.544 58.9997 13.544C58.1317 13.544 57.5437 13.068 57.1377 12.732C57.0257 12.634 56.8857 12.662 56.7877 12.746L56.0737 13.46C55.8917 13.628 55.9057 13.726 56.1017 13.95ZM64.5912 15.056C64.6472 15.238 64.7872 15.322 64.9972 15.252C66.2292 14.86 69.7992 13.25 69.7992 9.036C69.7992 6.88 68.6232 5.06 66.3692 5.06C64.5912 5.06 63.1072 6.544 63.1072 8.364C63.1072 10.422 64.6052 11.5 66.0472 11.5C66.7192 11.5 67.4472 11.234 67.6852 11.094C67.2512 12.676 65.1932 13.572 64.5212 13.782C64.2412 13.88 64.1852 14.034 64.2552 14.202L64.5912 15.056ZM66.3972 10.086C65.4732 10.086 64.7312 9.316 64.7312 8.392C64.7312 7.482 65.4732 6.684 66.3832 6.684C67.5452 6.684 68.0632 7.846 68.0632 8.826C67.9092 9.344 67.3492 10.086 66.3972 10.086ZM72.3295 15.056C72.3855 15.238 72.5255 15.322 72.7355 15.252C73.9675 14.86 77.5375 13.25 77.5375 9.036C77.5375 6.88 76.3615 5.06 74.1075 5.06C72.3295 5.06 70.8455 6.544 70.8455 8.364C70.8455 10.422 72.3435 11.5 73.7855 11.5C74.4575 11.5 75.1855 11.234 75.4235 11.094C74.9895 12.676 72.9315 13.572 72.2595 13.782C71.9795 13.88 71.9235 14.034 71.9935 14.202L72.3295 15.056ZM74.1355 10.086C73.2115 10.086 72.4695 9.316 72.4695 8.392C72.4695 7.482 73.2115 6.684 74.1215 6.684C75.2835 6.684 75.8015 7.846 75.8015 8.826C75.6475 9.344 75.0875 10.086 74.1355 10.086Z" fill="#0D346B"/>
<path d="M223.1 17.992H223.114V25.72C223.114 25.874 223.24 26 223.394 26H223.912C224.052 26 224.178 25.874 224.178 25.72V16.466C224.178 16.326 224.052 16.2 223.912 16.2H223.66C223.562 16.2 223.492 16.228 223.422 16.298L221.504 18.16C221.434 18.23 221.378 18.356 221.476 18.468L221.756 18.776C221.854 18.888 221.966 18.874 222.078 18.79L223.1 17.992ZM231.083 23.774V25.72C231.083 25.874 231.223 26 231.363 26H231.825C231.965 26 232.091 25.874 232.091 25.72V23.774H233.267C233.421 23.774 233.533 23.648 233.533 23.508V23.144C233.533 23.004 233.421 22.892 233.267 22.892H232.091V16.34C232.091 16.186 231.965 16.06 231.825 16.06H231.587C231.391 16.06 231.349 16.102 231.251 16.228L225.917 22.864C225.861 22.948 225.833 23.018 225.833 23.116V23.508C225.833 23.648 225.959 23.774 226.113 23.774H231.083ZM231.055 17.866H231.083V22.892H227.037V22.822L231.055 17.866ZM234.938 25.65C234.882 25.846 235.008 26 235.19 26H235.512C235.61 26 235.736 25.916 235.764 25.818L238.494 16.55C238.55 16.354 238.438 16.2 238.242 16.2H237.934C237.822 16.2 237.71 16.284 237.682 16.382L234.938 25.65ZM241.461 17.992H241.475V25.72C241.475 25.874 241.601 26 241.755 26H242.273C242.413 26 242.539 25.874 242.539 25.72V16.466C242.539 16.326 242.413 16.2 242.273 16.2H242.021C241.923 16.2 241.853 16.228 241.783 16.298L239.865 18.16C239.795 18.23 239.739 18.356 239.837 18.468L240.117 18.776C240.215 18.888 240.327 18.874 240.439 18.79L241.461 17.992ZM248.115 26.14C250.355 26.14 251.629 24.25 251.629 21.1C251.629 17.936 250.355 16.06 248.115 16.06C245.889 16.06 244.615 17.936 244.615 21.1C244.615 24.25 245.889 26.14 248.115 26.14ZM248.115 25.16C246.533 25.16 245.707 23.732 245.707 21.1C245.707 18.482 246.533 17.04 248.115 17.04C249.711 17.04 250.537 18.482 250.537 21.1C250.537 23.732 249.711 25.16 248.115 25.16ZM253.217 25.65C253.161 25.846 253.287 26 253.469 26H253.791C253.889 26 254.015 25.916 254.043 25.818L256.773 16.55C256.829 16.354 256.717 16.2 256.521 16.2H256.213C256.101 16.2 255.989 16.284 255.961 16.382L253.217 25.65ZM259.811 25.062V25.034L262.555 22.108C263.549 21.044 264.361 20.106 264.361 18.832C264.361 17.362 263.311 16.06 261.239 16.06C259.531 16.06 258.509 17.474 258.509 17.474C258.411 17.586 258.439 17.754 258.523 17.852L258.803 18.132C258.929 18.244 259.083 18.244 259.195 18.132C259.643 17.656 260.357 17.04 261.239 17.04C262.737 17.04 263.269 18.034 263.269 18.86C263.269 19.546 262.793 20.4 261.813 21.478C260.679 22.668 259.573 23.9 258.453 25.104C258.271 25.3 258.271 25.37 258.271 25.524V25.72C258.271 25.874 258.383 26 258.551 26H264.025C264.179 26 264.305 25.874 264.305 25.72V25.342C264.305 25.188 264.179 25.062 264.025 25.062H259.811ZM269.374 26.14C271.614 26.14 272.888 24.25 272.888 21.1C272.888 17.936 271.614 16.06 269.374 16.06C267.148 16.06 265.874 17.936 265.874 21.1C265.874 24.25 267.148 26.14 269.374 26.14ZM269.374 25.16C267.792 25.16 266.966 23.732 266.966 21.1C266.966 18.482 267.792 17.04 269.374 17.04C270.97 17.04 271.796 18.482 271.796 21.1C271.796 23.732 270.97 25.16 269.374 25.16Z" fill="black"/>
<path d="M284 29C283.766 29.0005 283.54 28.9191 283.36 28.77C283.259 28.6861 283.175 28.583 283.114 28.4666C283.052 28.3503 283.015 28.223 283.003 28.092C282.99 27.961 283.004 27.8289 283.043 27.7033C283.082 27.5777 283.146 27.4611 283.23 27.36L287.71 22L283.39 16.63C283.307 16.5277 283.245 16.41 283.208 16.2837C283.17 16.1573 283.158 16.0248 283.172 15.8938C283.186 15.7628 283.226 15.6358 283.289 15.5202C283.352 15.4045 283.437 15.3025 283.54 15.22C283.644 15.129 283.765 15.0603 283.896 15.0183C284.027 14.9763 284.166 14.9619 284.303 14.976C284.44 14.9901 284.573 15.0324 284.693 15.1002C284.813 15.168 284.917 15.2598 285 15.37L289.83 21.37C289.977 21.5489 290.058 21.7734 290.058 22.005C290.058 22.2366 289.977 22.4611 289.83 22.64L284.83 28.64C284.73 28.761 284.602 28.8567 284.458 28.9192C284.314 28.9818 284.157 29.0095 284 29Z" fill="#0071CE"/>
<path d="M1.344 40.734C1.344 40.874 1.456 41 1.61 41H6.454C6.608 41 6.72 40.874 6.72 40.734V40.328C6.72 40.188 6.608 40.062 6.454 40.062H2.422V31.466C2.422 31.326 2.296 31.2 2.156 31.2H1.61C1.456 31.2 1.344 31.326 1.344 31.466V40.734ZM8.00997 40.692C8.00997 40.86 8.14997 41 8.31797 41H8.73797C8.89197 41 9.04597 40.86 9.04597 40.692V34.84C9.04597 34.686 8.89197 34.532 8.73797 34.532H8.31797C8.14997 34.532 8.00997 34.686 8.00997 34.84V40.692ZM8.49997 32.866C8.93397 32.866 9.26997 32.516 9.26997 32.11C9.26997 31.662 8.93397 31.326 8.49997 31.326C8.07997 31.326 7.74397 31.662 7.74397 32.11C7.74397 32.516 8.07997 32.866 8.49997 32.866ZM13.0425 41.154C14.3585 41.154 15.2405 40.328 15.2405 39.306C15.2405 38.13 14.2745 37.71 13.1545 37.192C12.3705 36.828 11.9225 36.618 11.9225 36.044C11.9225 35.736 12.1605 35.33 12.8745 35.33C13.4765 35.33 13.9245 35.54 14.2045 35.708C14.3445 35.792 14.5545 35.778 14.6525 35.596L14.7925 35.33C14.8905 35.148 14.8625 35.008 14.7225 34.896C14.4145 34.672 13.7145 34.392 12.8745 34.392C11.3765 34.392 10.8725 35.414 10.8725 36.086C10.8725 37.192 11.8525 37.654 12.7065 38.074C13.6445 38.536 14.1485 38.788 14.1485 39.404C14.1485 39.908 13.7005 40.216 13.0425 40.216C12.2165 40.216 11.6565 39.81 11.4325 39.642C11.2505 39.516 11.1385 39.572 11.0545 39.726L10.8585 40.09C10.8025 40.202 10.8305 40.3 10.9005 40.37C11.2365 40.678 11.9645 41.154 13.0425 41.154ZM17.344 35.428V39.25C17.344 40.258 17.988 41.154 19.122 41.154C19.78 41.154 20.34 40.93 20.648 40.762C20.816 40.664 20.844 40.552 20.76 40.342L20.648 40.062C20.592 39.908 20.494 39.782 20.242 39.936C19.976 40.09 19.64 40.216 19.248 40.216C18.8 40.216 18.38 39.922 18.38 39.25V35.428H20.284C20.466 35.428 20.606 35.288 20.606 35.12V34.84C20.606 34.658 20.466 34.532 20.284 34.532H18.38V32.712C18.38 32.544 18.254 32.39 18.086 32.404L17.652 32.432C17.498 32.446 17.344 32.572 17.344 32.74V34.532H16.49C16.294 34.532 16.168 34.658 16.168 34.84V35.12C16.168 35.288 16.294 35.428 16.49 35.428H17.344ZM21.8087 37.752C21.8087 39.6 23.2647 41.154 25.0567 41.154C26.8487 41.154 28.3047 39.6 28.3047 37.752C28.3047 35.932 26.8487 34.392 25.0567 34.392C23.2647 34.392 21.8087 35.932 21.8087 37.752ZM22.8307 37.752C22.8307 36.436 23.7827 35.33 25.0567 35.33C26.3307 35.33 27.2687 36.436 27.2687 37.752C27.2687 39.096 26.3307 40.216 25.0567 40.216C23.7827 40.216 22.8307 39.096 22.8307 37.752ZM34.448 40.622C34.448 40.622 35.162 41.154 36.24 41.154C38.018 41.154 39.292 39.656 39.292 37.766C39.292 35.918 38.046 34.392 36.282 34.392C35.414 34.392 34.728 34.742 34.322 35.064C34.252 34.714 34.028 34.476 33.678 34.476C33.524 34.476 33.426 34.574 33.426 34.728V44.024C33.426 44.192 33.566 44.332 33.734 44.332H34.14C34.294 44.332 34.448 44.192 34.448 44.024V40.622ZM34.448 36.114C34.448 36.114 35.12 35.33 36.156 35.33C37.458 35.33 38.242 36.492 38.242 37.752C38.242 39.166 37.332 40.216 36.086 40.216C35.19 40.216 34.448 39.656 34.448 39.656V36.114ZM40.5646 39.04C40.5646 40.342 41.4326 41.154 42.5666 41.154C43.5746 41.154 44.2606 40.65 44.5966 40.3C44.6386 40.734 44.8626 41.056 45.2826 41.056C45.4366 41.056 45.5346 40.958 45.5346 40.804V37.108C45.5346 35.372 44.7646 34.392 43.1126 34.392C42.2166 34.392 41.6286 34.672 41.3066 34.812C41.1526 34.882 41.0546 34.966 41.1106 35.162L41.2506 35.54C41.3066 35.694 41.3906 35.778 41.5586 35.708C41.8526 35.61 42.3426 35.33 43.0566 35.33C43.9806 35.33 44.5546 35.918 44.5406 37.108C44.5406 37.108 43.8406 36.898 43.1546 36.898C41.4886 36.898 40.5646 37.808 40.5646 39.04ZM41.5866 39.04C41.5866 38.214 42.2586 37.78 43.1546 37.78C43.7986 37.78 44.3166 37.92 44.5266 38.032V39.348C44.2466 39.768 43.5466 40.216 42.7486 40.216C42.0346 40.216 41.5866 39.698 41.5866 39.04ZM47.6584 40.692C47.6584 40.86 47.7984 41 47.9664 41H48.3864C48.5404 41 48.6944 40.86 48.6944 40.692V36.212C48.6944 36.212 49.1984 35.386 50.4444 35.386C50.7524 35.386 50.9904 35.498 51.1444 35.568C51.2984 35.638 51.4524 35.624 51.5224 35.414L51.7044 34.91C51.8584 34.462 51.0604 34.392 50.5704 34.392C49.5624 34.392 48.9324 34.84 48.5824 35.204C48.5404 34.784 48.3164 34.476 47.9104 34.476C47.7564 34.476 47.6584 34.574 47.6584 34.728V40.692ZM52.4864 39.04C52.4864 40.342 53.3544 41.154 54.4884 41.154C55.4964 41.154 56.1824 40.65 56.5184 40.3C56.5604 40.734 56.7844 41.056 57.2044 41.056C57.3584 41.056 57.4564 40.958 57.4564 40.804V37.108C57.4564 35.372 56.6864 34.392 55.0344 34.392C54.1384 34.392 53.5504 34.672 53.2284 34.812C53.0744 34.882 52.9764 34.966 53.0324 35.162L53.1724 35.54C53.2284 35.694 53.3124 35.778 53.4804 35.708C53.7744 35.61 54.2644 35.33 54.9784 35.33C55.9024 35.33 56.4764 35.918 56.4624 37.108C56.4624 37.108 55.7624 36.898 55.0764 36.898C53.4104 36.898 52.4864 37.808 52.4864 39.04ZM53.5084 39.04C53.5084 38.214 54.1804 37.78 55.0764 37.78C55.7204 37.78 56.2384 37.92 56.4484 38.032V39.348C56.1684 39.768 55.4684 40.216 54.6704 40.216C53.9564 40.216 53.5084 39.698 53.5084 39.04ZM62.5376 37.766C62.5376 39.614 63.7136 41.154 65.6736 41.154C66.7936 41.154 67.6476 40.72 68.0396 40.412C68.2776 40.23 68.2216 40.16 68.0956 39.964L67.9276 39.726C67.7596 39.474 67.6616 39.53 67.4376 39.684C67.0736 39.922 66.5416 40.216 65.6876 40.216C64.5116 40.216 63.6016 39.082 63.5736 38.004H68.2776C68.4176 38.004 68.5576 37.892 68.5716 37.724C68.5856 37.612 68.5996 37.444 68.5996 37.332C68.5996 35.638 67.3676 34.392 65.6736 34.392C63.7136 34.392 62.5376 35.946 62.5376 37.766ZM63.5876 37.178C63.7136 36.17 64.5816 35.33 65.6736 35.33C66.7796 35.33 67.5356 36.226 67.5636 37.178H63.5876ZM70.299 40.692C70.299 40.86 70.439 41 70.607 41H71.027C71.181 41 71.335 40.86 71.335 40.692V36.226C71.335 36.226 72.105 35.33 73.323 35.33C74.275 35.33 74.695 35.904 74.695 37.136V40.692C74.695 40.86 74.835 41 75.003 41H75.423C75.577 41 75.731 40.86 75.731 40.692V37.276C75.731 35.61 75.269 34.392 73.393 34.392C72.385 34.392 71.629 34.854 71.223 35.204C71.181 34.784 70.957 34.476 70.551 34.476C70.397 34.476 70.299 34.574 70.299 34.728V40.692ZM78.1975 35.428V39.25C78.1975 40.258 78.8415 41.154 79.9755 41.154C80.6335 41.154 81.1935 40.93 81.5015 40.762C81.6695 40.664 81.6975 40.552 81.6135 40.342L81.5015 40.062C81.4455 39.908 81.3475 39.782 81.0955 39.936C80.8295 40.09 80.4935 40.216 80.1015 40.216C79.6535 40.216 79.2335 39.922 79.2335 39.25V35.428H81.1375C81.3195 35.428 81.4595 35.288 81.4595 35.12V34.84C81.4595 34.658 81.3195 34.532 81.1375 34.532H79.2335V32.712C79.2335 32.544 79.1075 32.39 78.9395 32.404L78.5055 32.432C78.3515 32.446 78.1975 32.572 78.1975 32.74V34.532H77.3435C77.1475 34.532 77.0215 34.658 77.0215 34.84V35.12C77.0215 35.288 77.1475 35.428 77.3435 35.428H78.1975ZM83.0822 40.692C83.0822 40.86 83.2222 41 83.3902 41H83.8102C83.9642 41 84.1182 40.86 84.1182 40.692V36.212C84.1182 36.212 84.6222 35.386 85.8682 35.386C86.1762 35.386 86.4142 35.498 86.5682 35.568C86.7222 35.638 86.8762 35.624 86.9462 35.414L87.1282 34.91C87.2822 34.462 86.4842 34.392 85.9942 34.392C84.9862 34.392 84.3562 34.84 84.0062 35.204C83.9642 34.784 83.7402 34.476 83.3342 34.476C83.1802 34.476 83.0822 34.574 83.0822 34.728V40.692ZM87.8715 37.766C87.8715 39.614 89.0475 41.154 91.0075 41.154C92.1275 41.154 92.9815 40.72 93.3735 40.412C93.6115 40.23 93.5555 40.16 93.4295 39.964L93.2615 39.726C93.0935 39.474 92.9955 39.53 92.7715 39.684C92.4075 39.922 91.8755 40.216 91.0215 40.216C89.8455 40.216 88.9355 39.082 88.9075 38.004H93.6115C93.7515 38.004 93.8915 37.892 93.9055 37.724C93.9195 37.612 93.9335 37.444 93.9335 37.332C93.9335 35.638 92.7015 34.392 91.0075 34.392C89.0475 34.392 87.8715 35.946 87.8715 37.766ZM88.9215 37.178C89.0475 36.17 89.9155 35.33 91.0075 35.33C92.1135 35.33 92.8695 36.226 92.8975 37.178H88.9215ZM101.107 34.728C101.107 34.574 101.009 34.476 100.855 34.476C100.491 34.476 100.281 34.714 100.197 35.064C99.805 34.756 99.091 34.392 98.251 34.392C96.487 34.392 95.227 35.918 95.227 37.766C95.227 39.656 96.515 41.154 98.293 41.154C99.357 41.154 100.085 40.58 100.085 40.58V41.042C100.085 42.554 99.301 43.114 98.279 43.114C97.565 43.114 97.005 42.722 96.655 42.428C96.501 42.288 96.333 42.288 96.235 42.442L95.955 42.848C95.885 42.946 95.913 43.128 96.025 43.226C96.361 43.534 97.257 44.066 98.279 44.066C99.749 44.066 101.107 43.254 101.107 41.042V34.728ZM96.277 37.752C96.277 36.492 97.075 35.344 98.363 35.344C99.413 35.344 100.071 36.128 100.071 36.128V39.67C100.071 39.67 99.329 40.202 98.433 40.202C97.201 40.202 96.277 39.152 96.277 37.752ZM102.785 39.04C102.785 40.342 103.653 41.154 104.787 41.154C105.795 41.154 106.481 40.65 106.817 40.3C106.859 40.734 107.083 41.056 107.503 41.056C107.657 41.056 107.755 40.958 107.755 40.804V37.108C107.755 35.372 106.985 34.392 105.333 34.392C104.437 34.392 103.849 34.672 103.527 34.812C103.373 34.882 103.275 34.966 103.331 35.162L103.471 35.54C103.527 35.694 103.611 35.778 103.779 35.708C104.073 35.61 104.563 35.33 105.277 35.33C106.201 35.33 106.775 35.918 106.761 37.108C106.761 37.108 106.061 36.898 105.375 36.898C103.709 36.898 102.785 37.808 102.785 39.04ZM103.807 39.04C103.807 38.214 104.479 37.78 105.375 37.78C106.019 37.78 106.537 37.92 106.747 38.032V39.348C106.467 39.768 105.767 40.216 104.969 40.216C104.255 40.216 103.807 39.698 103.807 39.04ZM109.879 40.692C109.879 40.86 110.019 41 110.187 41H110.607C110.761 41 110.915 40.86 110.915 40.692V36.212C110.915 36.212 111.419 35.386 112.665 35.386C112.973 35.386 113.211 35.498 113.365 35.568C113.519 35.638 113.673 35.624 113.743 35.414L113.925 34.91C114.079 34.462 113.281 34.392 112.791 34.392C111.783 34.392 111.153 34.84 110.803 35.204C110.761 34.784 110.537 34.476 110.131 34.476C109.977 34.476 109.879 34.574 109.879 34.728V40.692Z" fill="black"/>
</svg>
